<mxfile host="app.diagrams.net" modified="2023-05-02T06:22:35.370Z" agent="Mozilla/5.0 (Windows NT 10.0; Win64; x64) AppleWebKit/537.36 (KHTML, like Gecko) Chrome/111.0.0.0 Safari/537.36 OPR/97.0.0.0" etag="v3Tj9kzK3OyreRVM_G8V" version="21.2.3" type="github">
  <diagram id="C5RBs43oDa-KdzZeNtuy" name="Page-1">
    <mxGraphModel dx="1009" dy="561" grid="1" gridSize="10" guides="1" tooltips="1" connect="1" arrows="1" fold="1" page="1" pageScale="1" pageWidth="827" pageHeight="1169" math="0" shadow="0">
      <root>
        <mxCell id="WIyWlLk6GJQsqaUBKTNV-0" />
        <mxCell id="WIyWlLk6GJQsqaUBKTNV-1" parent="WIyWlLk6GJQsqaUBKTNV-0" />
        <mxCell id="HX48B-1rYJLwdNwCFjf0-1" value="Статическое напряжение сдвига" style="shape=offPageConnector;whiteSpace=wrap;html=1;" vertex="1" parent="WIyWlLk6GJQsqaUBKTNV-1">
          <mxGeometry x="218.6" y="20" width="150" height="60" as="geometry" />
        </mxCell>
        <mxCell id="HX48B-1rYJLwdNwCFjf0-4" value="&lt;div&gt;Раствор утяжелен?&lt;/div&gt;" style="strokeWidth=2;html=1;shape=mxgraph.flowchart.decision;whiteSpace=wrap;" vertex="1" parent="WIyWlLk6GJQsqaUBKTNV-1">
          <mxGeometry x="201.29" y="1205" width="166.94" height="70" as="geometry" />
        </mxCell>
        <mxCell id="HX48B-1rYJLwdNwCFjf0-27" value="&lt;div style=&quot;&quot;&gt;&lt;span style=&quot;background-color: initial;&quot;&gt;Вывод:&lt;/span&gt;&lt;/div&gt;&lt;font style=&quot;font-size: 12px;&quot;&gt;&lt;div style=&quot;&quot;&gt;&lt;span style=&quot;background-color: initial;&quot;&gt;&amp;nbsp; &amp;nbsp; &amp;nbsp; &amp;nbsp;- статическое напряжение сдвига за&lt;/span&gt;&lt;/div&gt;&lt;div style=&quot;&quot;&gt;&lt;span style=&quot;background-color: initial;&quot;&gt;60 секунд&lt;/span&gt;&lt;/div&gt;&lt;div style=&quot;&quot;&gt;&lt;span style=&quot;background-color: initial;&quot;&gt;&amp;nbsp; &amp;nbsp; &amp;nbsp; &amp;nbsp; &amp;nbsp;- статическое напряжение сдвига за&lt;/span&gt;&lt;/div&gt;&lt;div style=&quot;&quot;&gt;&lt;span style=&quot;background-color: initial;&quot;&gt;600 секунд&lt;/span&gt;&lt;/div&gt;&lt;/font&gt;" style="shape=parallelogram;html=1;strokeWidth=2;perimeter=parallelogramPerimeter;whiteSpace=wrap;rounded=1;arcSize=12;size=0.23;align=center;" vertex="1" parent="WIyWlLk6GJQsqaUBKTNV-1">
          <mxGeometry x="77.94" y="2070" width="380" height="90" as="geometry" />
        </mxCell>
        <mxCell id="HX48B-1rYJLwdNwCFjf0-32" value="" style="rounded=1;whiteSpace=wrap;html=1;absoluteArcSize=1;arcSize=14;strokeWidth=2;" vertex="1" parent="WIyWlLk6GJQsqaUBKTNV-1">
          <mxGeometry x="192.57999999999998" y="113.75" width="200" height="40" as="geometry" />
        </mxCell>
        <mxCell id="HX48B-1rYJLwdNwCFjf0-33" value="" style="strokeWidth=2;html=1;shape=mxgraph.flowchart.annotation_2;align=left;labelPosition=right;pointerEvents=1;" vertex="1" parent="WIyWlLk6GJQsqaUBKTNV-1">
          <mxGeometry x="392.58" y="123.75" width="26.37" height="26.25" as="geometry" />
        </mxCell>
        <mxCell id="HX48B-1rYJLwdNwCFjf0-35" value="&lt;span style=&quot;border-color: var(--border-color); color: rgb(0, 0, 0); font-family: Helvetica; font-style: normal; font-variant-ligatures: normal; font-variant-caps: normal; font-weight: 400; letter-spacing: normal; orphans: 2; text-indent: 0px; text-transform: none; widows: 2; word-spacing: 0px; -webkit-text-stroke-width: 0px; background-color: initial; text-decoration-thickness: initial; text-decoration-style: initial; text-decoration-color: initial;&quot;&gt;D&lt;sub&gt;д&lt;/sub&gt;&lt;/span&gt;&lt;sub style=&quot;border-color: var(--border-color); color: rgb(0, 0, 0); font-family: Helvetica; font-style: normal; font-variant-ligatures: normal; font-variant-caps: normal; font-weight: 400; letter-spacing: normal; orphans: 2; text-indent: 0px; text-transform: none; widows: 2; word-spacing: 0px; -webkit-text-stroke-width: 0px; background-color: initial; text-decoration-thickness: initial; text-decoration-style: initial; text-decoration-color: initial;&quot;&gt;&amp;nbsp;&lt;/sub&gt;&lt;span style=&quot;border-color: var(--border-color); color: rgb(0, 0, 0); font-family: Helvetica; font-size: 12px; font-style: normal; font-variant-ligatures: normal; font-variant-caps: normal; font-weight: 400; letter-spacing: normal; orphans: 2; text-indent: 0px; text-transform: none; widows: 2; word-spacing: 0px; -webkit-text-stroke-width: 0px; background-color: initial; text-decoration-thickness: initial; text-decoration-style: initial; text-decoration-color: initial;&quot;&gt;- Диаметр долота, см&lt;/span&gt;" style="text;whiteSpace=wrap;html=1;align=left;" vertex="1" parent="WIyWlLk6GJQsqaUBKTNV-1">
          <mxGeometry x="418.95000000000005" y="123.75" width="149.07" height="31.25" as="geometry" />
        </mxCell>
        <mxCell id="HX48B-1rYJLwdNwCFjf0-39" value="" style="shape=image;verticalLabelPosition=bottom;labelBackgroundColor=default;verticalAlign=top;aspect=fixed;imageAspect=0;image=data:image/png,iVBORw0KGgoAAAANSUhEUgAAAWEAAAA6CAYAAABhwehXAAAOkklEQVR4nO2dT0wj5RvHv938jkUShwPIZSkRLkapm6JZNysLaFphTUwWYQkpmyAajQlYViMnVz1gsgXbgwezGM3GUAh72GxbMBJ298BJQ2vwBCTsiZZEemBn9LivB3/v7LT0zzvTmU4Lzydpsl3evu8788z7fZ95/z0OxhgDQRAEYQtn7K4AQRDEaYZEmCAIwkZIhAmCIGyERJggCMJGSIQJgiBshESYIAjCRkiECYIgbIREmCAIwkZIhAmCIGyERJggCMJGSIQJgiBshESYIAjCRoREWFEU9Pb2wuFwCH3a29vh8/nw9ddfI5lMWn0NNY+iKJiamkJDQ4N6D99//33s7u5aUt7Kygp8Pt8xm3377bdQFEV3fiLPR0NDQ00/C5W2kZllJpNJ0+39xhtvlLR3IpHQnbdZiNSxajSL6UCWZXbjxg0GQP1Eo9Fj6RKJBPvqq6+YJEkMAJMkiUUiET1FnRoSiQSTJIm5XC62s7PDGPvvPvv9fgaABYNB08qSZZn19PRk2S/3I0kSSyQSuvKNRqNF8wTA/H6/addRaSppIzPLlGWZBQKBonbxeDxsf39fV92i0ShzOBwl7f3kyRND124msiyzL7/8Mqu+9+7dO5aOa1ZDQ4PaDhYWFipSR10izNjTh0OkweY+BIFAgMmyXFaFTxL8Xua7j1rBNKORiwiwESG2StirhUrayOwyuWCX+vT09LDHjx8L1U2WZdbb21vS3pubm4av32wSiUSWuBarmyzLbGpqShXtTz75RPjeGEW3CGu9np6eHiFR1T4MtewRmUkqlWIul6toY+L32gwRCwaDqucTj8ez7BaPx5nH48lqSC6Xi6VSqZL5csHI90ZU61TaRmaWydOMj49npZFlmc3NzamOVDHvMB9c0GrJ3lrPXbTDGR0drZhXr1uEeWPWI6jaB6vQEMZpg3dMxRqS9r6JdnjF8vH7/QXzyOfRinh3fr+/rLpVM5W0kZllplIp5vV6i3YKuUNIom2Z29tq79BMZmdnVREWFdRUKsVaW1t1d1JG0C3CWq9Wj5hqxVvUyzqp6Gm4Ru+3lmg0KiQQ2qEmkYZ5WrzgStjIjjL1vqHWohfMWLZXq0dMteLtcrl0j52LomuJWjqdxsbGBgBAkiQ0NzcL/7a7uxuSJAEA9vb2sLm5qafoE8XCwgL29vYAAM3NzXA6nQXTvvjii+q/l5eXDZW3vb2NycnJouUAgNvtRl9fn/p9f3+/6Ox5KBRCR0cHurq6DNXLDGKxGBwOB2ZnZ03Nt9I2sqNMbR5XrlwpmT4UCuGll17C66+/bqg8OyhHsy5dulQRzdIlwgcHBzg6OgIAdHR04Pnnnxf+bWNjI+rr69XvoVDI0PKYWkdRFKyurqrftQ0hH+3t7eq/NzY2kE6ndZc5NTWF/v5+obQDAwNC6ZLJJOLxONbX13H27Fn4fD6srKycCJvaYSM7yuS4XC6cO3euaJpkMomVlRWsr6+jpaWlZuxtpmaFw2HIsmx6HXWJ8P3795HJZACU7qlzqaurQ0tLi/r90aNHllxQtSPLMh49eiScvrm5We2Nj46OcHBwYFXV8pZdyMahUEh9FjKZDH755Rf09fWhrq4OU1NTFa2n2dhho0qXyUVfkiQsLy/jueeeK5o+FArh8PAQQG3Z+8GDB1WvWcIinNtTi3pMhai0oFQL2p4ZyPZo8qHtjTOZDPb39y2tn5ZC3hj3ggsxNzeHF154AYuLi1ZVzVLssFGly3z48CHW19fx448/4uWXXy6alnvBheD2jkQiuupgNVyz2P8Dyl+5cgUOh8NwflZplrAIa3tqvWMrxFP29/fVntnIfdze3raiWsfylyQJ3d3dedO43W4cHh4inU4jkUhgfn4eXq83K00mk8HVq1dNH6utBHbYqJJlLi4uYmpqCtFoFJcvXy6Z3u1246+//ipp7+Hh4aqyd61olrAIb25uqpMGesdWiKeUK6JbW1sm1eQ42redvr4+uN3uoukbGxvhdrsxNjaG1dVVpNNpBAKBrDTXr19HLBazrM5WYIeNrC5TURQsLi6ivb0dV69exc7ODq5du4b5+XnhMkTtHY1GDV2D2dSKZgmLsPYh0Tu2ko/6+no0NjaWlUc58Fl1sz61JjT52N3dxR9//AGXy4VvvvlG9+8bGxsxOzuLSCSijlcCwMTERFkTR0R5JJNJnD17VhVfTiaTwfj4OEZHRw1NsGnt3dDQoP7/5OQkUqmUKXUvB+21VrNmCR/gU+54cO7EQ0tLC+rq6nTnQ1gHn2wLh8NoamoynM/Q0BDW1taylvcsLCyYVU1CJ3z4SJZlRCIRtLW1Zf399u3b+P777w3nPzQ0hF9//VUV4r29PdvHh80YD66UZgmJsBljK7kTD2b0TOXQ398P9t9mFVM+okvAyqXU0iWjxGIx3L59G36/35RrcbvdmJ6eVr+vrq5W/XIms7DKRuWW6XQ6MTQ0hM3NTdy4cSPrbzMzM2WdeuZ2u/H555+r31dXV3WvJFAUBdevX4fD4UBnZ2dZ3nQtaZaQCJsxtqJd3gaUv7qiVik1651L7oNgBel0GhMTE4aHIQoxPDwMl8sFwNjyHpEhIz6xxBuvGUNGdtiokmU6nU588cUXCAaD6v9lMhk8ePDAUH6c4eFhtLa2AjBm74cPH2Jubg4A8Pvvv2N6elr1ZPVihmZpl7cB5a+uKISQCGt35BjtDbQTByKLw4n86G2sInAPZmNjo6xhiFyamppw4cIF0/KrFaywkRVlakUTKH/St5rsfefOHVXAy9EsnoeVmlVShBVFyVqDaMSDzV1X+tFHH5na2GuJc+fOqd6h3vWdViyzmZ2dRTwex507dyyxSTlvPCJDRnwmPhgMmjZkZIeN7CizqakJr732mu7fFaMcb7Grq0tdbeHxeDAzM2Mor1zNMlKnXM368MMPLdOskiLMZ8wB48bW7q5yuVwYHh7WncdJIXcXTqmlSdr1o2bPzsZiMczMzGBtba3kcrRyqaWJWDtsZNdzMTAwoAqUmWPZRuztdDrVzvS3334ruYuvEGZoVjgcVncIcs2yYigCEBBhrbGNjK3k9ijlzrybhV1L1JxOJ3w+n/q91CugtjFeuHDBtHsXi8Vw7do1/PTTT5YKMK+/z+ezdSJWD3bYqBqei9xVE0bY3t4GYww+n8+2TtdszQqFQoY7BBFKinA548GKouDTTz9Vb0gwGKzYKoJqRnuiXKmTynhjlCQJk5OTppSfTCZVAbbaHltbW0V331UrdtjIzufCrDHPP//8E5Ik4dKlS2XnZZRyxoMVRcFnn32mesE3b94UaiOxWAyvvPJK1tpkYYqdc1nuYeza80qtiMNVy9hxYDhjT88AFo35FwgEDEeM4AeHW2l7K8uo1UPd9cDP+Tbj/vEIFna29XIPY9eePXzz5k1dETXi8Tjr7OxkwWBQ1++KirD29H29ccd4bDkK8pkfO0LncAEWaSSJRIL19PTkbeSyLLOVlZWijZ+XZXXUDStFuJbDG4mW1draWjJShqi9GxoabI+6oQ1lpCfWnTa2XDlBPnkMPj1CXFSEtZ6saGOKRCKsra1NjWfGI8USx+GNKV+kEdGAjolEQo0P19bWxuLxeMGycuOKiXxyy859O8oN3qqNYVaJsEdWe9uVtJFZZWoDhc7NzRW0gd/vLxltOdezLGVvu8MeaT1Z0fpEIhHW3t6uatb29nZZdUilUqyzs1O4A8grwvlCZWtDb3PS6TTb3d1lS0tLzOv1qml5MEmiNJFIhEmSlNVh7ezsMI/HU/ItolCk49xhI16GXgEuFe232O9u3bpl/s3KQyWGPCphIzPL1IYSy9ced3Z22LvvvisU/Vw0unKl7F2sntooyVyzcgW1mGbFYjHT6jM6Oioczy5LhHNjjIl+zp8/zwYHB9n8/Lxhzyff+HE8Hj8W+lvbQQQCAUNlVRs7OztsfHw866EOBAIsnU6X/O2tW7dUm50/f55JkpQVL8yoTYu9/XAb5Obr9XqPRXK2mkqIMGPW2siqMvkbqfb3Xq+Xzc3NCeXBqSZ756INZ19pzeLIsswikYhaD4/HwwYHB4Xj0jkYM7gv0AL4sqm1tTX11K0nT57g8uXLCAaD+OCDD/DDDz9gcHAQIyMjAIC7d+/WzNKnSjA6Oor9/X26L1UM2ejkoCgK3nnnHRwdHeHnn39GW1sbkskk3nzzTRweHuLevXslz2zWFd7Iara3t1FfX490Og2n04m33npL/VtzczOWlpYwNjYGxpiuUDCnBb5TyO7DkYjCkI1ODlyA9/b2cPfuXXWdNQ+YK7q5o2pEmB8919HRgXQ6jYsXLwL4b52yy+XC33//jYsXL8LpdKqHl9TSBoBKwEPWnNbDkWoBstHJ4eOPP8b6+nrZmzmqRoT50XP//POP6gHzcNWSJKGpqUnd+XL//n0AqLkNAFayu7uLiYkJBAIB2hBTpZCNTg5cm7q7u9HV1ZX1N/628+yzzwptma4aEeZHz/X29qpbMLnH+8wzz6hba7nHbHdkjmpicXER/f39mJ6erqoYX8RTyEYnC65XXq/32Ns4P7tCdMv0/6yqpF6Wl5ePbW/lZxD7fD5VmPkF9vX1VcUZFHaiKArGxsbw6quvYnNzk4ZmqhCy0cmEb09ub28/NvYbDoeRyWQwMTEhdH5GVYgwd99ze46tra1jp67xwzkGBgZwcHBwqr1hp9OJpaUlu6tBFIFsdDIpdNgRj1AzMjIiPORUFcMR3LvVTrTxMZfcE6L4RN2ZM2dORHBNgiBqD37+czgcVr3ixcVFvP3225icnMR3330nvDqiKjxhfgCzdiiCj7mEw+Fj6Y+OjvD48WO89957FasjQRAEp6mpCaurqxgZGVGjmng8HkSjUfT19enKq6o2axAEQZw2qmI4giAI4rRCIkwQBGEjJMIEQRA2QiJMEARhIyTCBEEQNkIiTBAEYSMkwgRBEDZCIkwQBGEjJMIEQRA28i+4nUzeYbdoZAAAAABJRU5ErkJggg==;" vertex="1" parent="WIyWlLk6GJQsqaUBKTNV-1">
          <mxGeometry x="201.28999999999996" y="118.75" width="182.59" height="30" as="geometry" />
        </mxCell>
        <mxCell id="HX48B-1rYJLwdNwCFjf0-40" value="&lt;div style=&quot;border-color: var(--border-color);&quot;&gt;&lt;b&gt;Определение поперечного размера&lt;/b&gt;&lt;/div&gt;&lt;div style=&quot;border-color: var(--border-color);&quot;&gt;&lt;b&gt;частиц шлама&lt;/b&gt;&lt;/div&gt;" style="text;whiteSpace=wrap;html=1;align=left;" vertex="1" parent="WIyWlLk6GJQsqaUBKTNV-1">
          <mxGeometry x="419.09000000000003" y="85" width="223.07" height="33.75" as="geometry" />
        </mxCell>
        <mxCell id="HX48B-1rYJLwdNwCFjf0-41" value="" style="rounded=1;whiteSpace=wrap;html=1;absoluteArcSize=1;arcSize=14;strokeWidth=2;" vertex="1" parent="WIyWlLk6GJQsqaUBKTNV-1">
          <mxGeometry x="178.6" y="203.75" width="230" height="81.25" as="geometry" />
        </mxCell>
        <mxCell id="HX48B-1rYJLwdNwCFjf0-42" value="" style="strokeWidth=2;html=1;shape=mxgraph.flowchart.annotation_2;align=left;labelPosition=right;pointerEvents=1;" vertex="1" parent="WIyWlLk6GJQsqaUBKTNV-1">
          <mxGeometry x="408.98" y="200" width="40" height="90" as="geometry" />
        </mxCell>
        <mxCell id="HX48B-1rYJLwdNwCFjf0-43" value="P&lt;sub&gt;п&lt;/sub&gt;&amp;nbsp;- плотность породы, г/см&lt;sup&gt;3&lt;/sup&gt;" style="text;whiteSpace=wrap;html=1;align=left;" vertex="1" parent="WIyWlLk6GJQsqaUBKTNV-1">
          <mxGeometry x="439.17" y="215.75" width="171.74" height="31.25" as="geometry" />
        </mxCell>
        <mxCell id="HX48B-1rYJLwdNwCFjf0-45" value="&lt;div style=&quot;border-color: var(--border-color);&quot;&gt;&lt;b&gt;Определение&amp;nbsp;&lt;/b&gt;&lt;/div&gt;&lt;b&gt;минимального касательного напряжения&amp;nbsp;&lt;/b&gt;" style="text;whiteSpace=wrap;html=1;align=left;" vertex="1" parent="WIyWlLk6GJQsqaUBKTNV-1">
          <mxGeometry x="446.88000000000005" y="160" width="260" height="33.75" as="geometry" />
        </mxCell>
        <mxCell id="HX48B-1rYJLwdNwCFjf0-47" value="" style="shape=image;verticalLabelPosition=bottom;labelBackgroundColor=default;verticalAlign=top;aspect=fixed;imageAspect=0;image=data:image/png,iVBORw0KGgoAAAANSUhEUgAAAVMAAABqCAYAAAABSbKlAAAU00lEQVR4nO2df0gb9//Hn/nSP+M6uPxR23/WFJX9sU4rKaO1m3hlmGqhG1t1HaYO1LJ2W52xoNs/rjDq1ugqrIVO/1gd1NoONppEC6tuFMdgxaR0gy2RKgz0/MP8Ye/+LH1//uj3rpczMZfLJXeJrwcc5PSdu1fed/e894/X6/V2MMYYCIIgiJz4P6sNIAiCKAVITAmCIEyAxJQgCMIESEwJgiBMgMSUIAjCBEhMCYIgTIDElCAIwgRITAmCIEyAxJQgCMIESEwJgiBMgMSUIAjCBEhMCYIgTIDElCAIwgRITHNEkiQcPnwYDodD1+ZyuXDw4EG0trbi5s2bkCTJ6p9QcBYWFtDV1YVQKGS1KYQBQqEQ/H7/lrx3N4PENEecTifu3r0LURQxMDCQ9D+e5yGKIhhjyvb333/j888/x/r6OlpaWlBWVgav14uFhQWLfkFhGRsbQ3NzM15++WXU19dbbQ5hgPr6erzwwgt46aWXcOPGDavNsQ+MMI2VlRXmdrsZAAaABQKBTctHIhHGcRwDwDiOYxMTEwWytPCIosh4nmdut5vF43GrzSFMYGJignEcx3p6epgoilabYzkkpiaiFcdIJJLxO/F4PEmAg8FgASwtLCSkpUswGGQOh4PxPM8eP35stTmWQt18E1leXkYikQAAbN++HTt27Mj4nYqKCoyMjCj77e3tiEajebOx0EiShGPHjmFmZgYjIyOoqKiw2iTCRJqbm3Hx4kXMzMzgrbfegiiKVptkGSSmJnLr1i3lc11dHcrLy3V9r76+HjzPAwASiQQuXbqUF/us4MyZM5iZmYHP50Nzc7PV5hB54NSpUzh8+DBmZmbw3XffWW2OZZCYmoQkSVheXlb23333Xd3fdTqd8Hq9yn44HC6J1mkoFML4+Dg4jkN3d7fV5hB5wul04uuvv4bL5UJvby+CwaDVJlkCialJLCws4MGDBwAAjuOwa9eurL5fVVWlfE4kEpidnTXVvkIjCALOnj0LAGhqakJNTY3FFhH5pKKiAtXV1QCAkZGRLdndJzE1idnZWWW8tLq6OuuxwV27doHjOGV/enq6qP34rl+/jsXFRQDZtdKJ4sTpdKKxsREAtmx3n8TUBCRJwvT0tLLv9XrhdDqzOsaOHTuwfft2ZX9paalo3+6CIODKlSsAALfbjdra2ryda2pqCl6vFy6XKykwoqura8v47uaKWXXY0NAAl8sF4FljwG7379TUFFpbW5N+p8PhQFVVFb755pvcGy9WuxOUAlr/UiPuTdpj6HWtsiPBYFD5HTzP58UHUfZxlM+TauM4riRdzczC7DpcWVlhe/bsUb57+/btPP8CfYTDYeZyuRgA5vF42Pz8fMr/pdp8Ph97+vSprvOQmJqAWjzcbjdbWVnJ+hilJKY+ny/pZjQT2WcVwAZn8VTiYPR6lDJG6nB5eVnXcQ8fPmxIiPLF0NAQczgcyos9lS9sJBJJK6jZvBBITE3ADPFQO/wXswhkGwWW7bE9Hg8DkDZaTFuPRnsKpYrROtQrKupnQa8I5ws5oEBunKhbpGrUL4HNymWCxkxzRBAEzM3NKft79+415bi7d+9GWVmZKccqJKurq1hfX1f21V4KuSBJEtra2nD//n34fD60tramLFdTU4Ompqakv6n9f7cyudThjz/+qOsc6vt/fX0dq6urxg3OAUEQ0N3dDcYYAKCvr0+XR0kikUhyccwGEtMcUYsHx3FoaGgwdBx19BTwbHY/20ksO6D9HWYhO//r8Vkl74HUZFuHDocj63NUVVUp38tFmHJlfn5e8SaRn8t0v0cURSwtLeV8ThLTHMnVJUpG23oyq4VrlLGxMbhcLrhcLoyNjen+XiwWUz4b8bdNhez8D+irY62bmdV1aQesqsN4PJ5VefV9Nzo6auicQPJ9mCm0W9sgMnrPkpjmgNYlymhrUhs95Xa7ceLECVNsNEI0GkVfXx8SiQQSiQT6+vosi8iSJCkpvLa7uztjHWtbx2YNNeghGo1ucL3JZduzZw8EQcjJJjPqsLKyMicb9BCNRtHf36/cd/39/YhEIjkfN9OQ2a+//mpKg4jENAfUUU+A8e6l9jjZxPWXOuq6MeKzmm8/12JgK9ah+gW6mc+27BMtj62ePXvW8FwFiWkOqN/eudxwly5dUo5jhzj2mpoaDA4OguM4cByHwcFBy8JB1cMoel8yRhPOmEFNTQ3W1taSEoLnsj169Chn+43WoSwwdXV12LlzZ0426KGmpgYXLlxQ7rsLFy5g3759ho6lTh60uLiI+fn5DWUkSUJ/fz8ePXoEALh48WJuyXgM+QAQjLFkNxCjzulaNxSz/TILTSAQMM1XVu0PCZ0uTmrXrGL21TULM+owG1chtTsSTHaNy5aVlRW2f/9+5Xdcv35d+V8kElH+5/F4WCgUyvl8JKYGMcufUuuXV4y+pWrUAQx6H950qF80eutGfX4rH2S7UOg61Iqp1VFQoiiy4eHhDU75HMexzs5OFg6HTTvXNuNt2q1NKteLbBkaGlJmWN1uN+bm5op+rFSeBTbDPSrb7ql6osXn88Hv9+dsQ7FT6DqMxWLK8IBZ3hy54HQ60dzcjH///Rf//fcfRkZG8jaZRmOmBsnG9SIVoVAIvb29AACPx1MSQgpsTNiirqds0HpK6HHNuXr1KmZmZsDzPC5fvmzovKVErnX47bff5nR+I8+F2QwPD6Oqqgr19fWYnp7Or1eCaW3cLYS2i5/tOKd6XLEUFyPLR3htpuECuWuar8QqxYgVdai99lbG5hd6fSrTxVQeo6isrFQqtbKyko2Ojpp9KsswOi4YDoeVuOhSXo3UjKxR6hdOJlGmVTJTU+g61CY6sXK8VGtLZ2dn3icjTRNTWUTlgV15FUr1bKL2YqqTLvT09JhlSl5JlVXH5/NtuAEFQWCRSISNjY2xlpaWpIHviYmJkn7o1dfcyIy6dgY6XSs+Eokwj8fDKisrS/bFZBQr6lCdfcnqJCeMMXby5MmUmaAqKyvZ+fPnTRdXU8Q0Ho8zj8eTtrWl7harW3HaN6dds/tou/XZbAcOHGAtLS1sbGyMCYJg9U8pGOprm+111c5Ax+PxDb0djuNYY2OjqbOxpYQVdaieybeDJ8XExMSmuUrlrbGxkcVisZzPl7OYqtd9T/fQqN+S6m6fenzFzmJqJal8WePxOOvs7NxQn/JLzQ4382Y9kkyohdhsv9t0vsHqIZhSGHfNZx2mQ65bq1ul8vPB8zyLxWJMFEUWDodZZ2fnpsmwP/3005zGeHMSU3WLLdMFkyta3e0z08G7lJFbGYFAgEUiETY8PMwEQWA8zyu+g5FIhE1OTirXxA7O//LYaTbX1oxVC/SeQ66j0dFRNjw8zERRZD6fr+j9fQtRh1rUXXwrx0pHR0eZy+ViPp8v7aSTWly1gpqL7YbFVN3y0HPzqVsE8sU1I0P9ViAQCDCO41g4HGYDAwOMsecPDM/z7N69e8oEn1p47YB83fWKeyHuCfklHgwG2ejoqHI/yvd0sbdMrXiusr3O+UAeZsimZSyKIvP7/crwRC4eCIb9TOXciABw+vTpTX0ktVmRZNRpvoo1GXK+kX0F3W435ufn0dXVBeB50MChQ4cQj8fR0dEB4LmTdiEzJW3G5cuXwfM8xsfHMTQ0lLF8IeLqHz58CLfbrSQuluOx5YQgxZpLVqbQuQlCoRB++OEHU3xTjaJOBp3Nb3Y6nRgYGFDi+HPBkJiqcyPqSReXLvmq2sG72G/gfCHX3fr6Ot544w3lJonFYuA4DpIk4ciRIwCShdcuWX6cTid+/vln8DyPCxcuIBQKpS2rXrUgXwlf5HNs27YN//zzj/ISAp6/iIo5uXQh6lBNNBrFBx98gIaGBvz000+WNYjUOUlfeeWVrBJbO51OJVLrnXfeMZQUGzAgpoIg4OzZs8p+plYpsHEpC5mysjLs3r0bACXwTYfcAn3ttdfw+uuvA3gumolEIklg5ZaV3VL4yYJ68uRJtLe348aNGynLqUN0c8kruRnyOZ48eaJEoAH2fBEZoRB1KBONRvHmm2/i1VdftVRIgeSG2V9//aWEtOpBfgHxPI/6+nrjRmQ7LqCeNDKSOEE7GSGPtdBMfmpS1Y88Lqod25Pr2c51KfvpDgwMJNluJLuREdTjpWrsNHFnlELVoTowx07BOIFAQBn7vHjxoq6xz3g8zvbv3888Hk/OHghZianRMMrNBDgQCNDkUxrkh0NbP7JoaieZ1DPRCwsLhTZXN6Iosp6enqSH3YyoKT3nTVWf6vMHg0EmCEJRTkAVog7l86gDc+yEPJsPPE+tp/XvFgQhyVWqp6fHlHDTrMTUiCuT9m2pvciRSIQdP368KG/efCO3QLUvLZ/Pt6H+1bP7k5OT5GaWgnT1ydjzF9G9e/fY5OSkBdYRZiG7PrW0tCQFKcjbgQMHTE+/x1gWKfi0GWj0jsdol+Twer1JE001NTWYnJzUa8aWQs7kr54Qkcd30tX/48ePUVFRYVlmfDuTqj6B594m6+vriMViSZNSRPHhdDpx5MgRZWK2YOhVXW1yD71+jLk65msz3+S60ZACQRD5QHfLVLsUcW9vb9JsqB7yPbtIEARhFbpco9S+awDA8zxEUcy4GFgwGEw6jraLrwc7LlBGEAShRZeYqn3XAP2iqG7NGl3agyAIohjQJabqpSf0iqK2NdvU1ESTIgRBlCy6xkwfPnyofNa7rsv169eTFpyzei14IxgNKyMIovR4+vTpppqQUUy1SUr0rnCodqMq1lYpyyIkjSCIrU3Wsfl6Yuh/++03JaOU2+3G4OBg9pb9P9FoFC6XCw6Hw5Rtz549EATBsD0EQRCpyCim2oxPmVK7qdfdBoCRkRGaPScIouTJ2M2XMzstLi6C4zglVVU65HW3ASAQCCi5Io0iu0YRBEHYmYwtU3Wuv0wIgoArV64AAHw+H/x+f27WEQRBFAm6xkz1JMuVJAltbW1YXFyEz+fD5cuXczaOIAiiWNAlprW1tXC73UgkEpidnd3wf0mScOzYMczMzCAQCODatWuUNZ8giC2FLjEtLy/HyMgIOI5Db29vUqb0qakpNDQ04PHjxwiHw9S1JwhiS+JgWThTLiws4JNPPsGdO3eUvzU2NuLjjz8ufLorgiAIG5GVmBIEQRCpMbzUM0EQBPEcElOCIAgTIDElCIIwARJToiSIRqM4d+4cqqqqlDwMJ0+etNosYgtBE1BE0SJJEkZHR/Hll18ikUiA4zi8/fbbaGtrQ0VFha5UkQRhFrrXgCIIO7GwsID3338f9+/fBwAMDAzA7/dTsAhhGSSmRNERCoXQ3t6utEZ/+eWXosyXS5QWJKZEUXHjxg289957AEBCStgKGjMlioZQKISjR48CICEl7AfN5hNFQTQaRXt7u7Lf399PQkrYChJTwvZIkoRz584hkUgAAHiex6lTpyy2iiCSITElbI969QYA6O7upll7wnaQmBK2Rr16A/Bsgcba2loLLdqc1dVVRKNR3Lx5E6dOncLBgwfh9XqTFnGUJAl+v18JLkiXtlIuJy8oSektbQ4jCBsTDAYZAGULBAJWm5SWQCDADhw4wDiOS7LZ5/MpZSKRyIb/A2DBYDDpWHrLEfaBWqaErbl165bymeM4NDQ0YGpqCl1dXUmhow6HA16vF1NTU5bZ6vf78fvvv2NtbQ0+n0/5u7zsTzQaxUcffYTx8XEwxpLKxGIx5XM0GkVra2vGcoS9IDElbIsgCJibm1P2E4kE9u3bh5mZGZw/fx6xWAyMMYTDYXAchzt37qCpqQl+vx+SJFlmtyRJWF5eBvB8WEIQBHz11Vf4/vvvN02kHo1G8dlnnyEUCinl9u7dWxC7iRyxuGVMEGnRdnV5nmfxeDxl2ZWVFeZ2u1N2rQuN2m6fz8dEUWTHjx9nkUhEKSOKIuN5ngFgHMexSCTCVlZWWGNjY9pyoG6+raGWKWFblpeXFXcoAPB6vaioqEhZVl6nTGZ8fByhUCjvNqZidnZWsXvv3r24evUq2trakvxiFxYW8ODBAwDA9u3bsWPHDgQCAZw5cyZtOY7jdC+7ThQeElOiZJBX0ZW5dOlSVt39sbExuFwuuFwujI2NGbJBkiRMT08DeCZ+L774IlZWVtDc3JxUTi24dXV1mJ+fx86dOzctV11dnfZlQlgPiSlhW7STLVVVVZuWLy8vx+nTp5X9paUliKKo61zRaBR9fX1IJBJIJBLo6+tDNBrN2mZRFLG0tATg2Xjpn3/+id7e3g3lHj58qHw+dOgQbt++vSEQQS3MwLOWOfnX2hcSU8K2ZBLPTN9ZX1/H6uqqmSZlZH5+HouLiwCAxcVFHD16FOXl5Ull1BNrbrcbd+/exYcffrhBKLVd/IaGhgL8AsIoJKZESbFr1y5wHJf192pqajA4OAiO48BxHAYHBw3F/qtduaqrq1FfX7+hjFpwt23bBo/Hk/Jc6jFj6uLbHxJTwrZohTHfPpYdHR1YW1vD2toaOjo6sv6+1pUrXdirWnCfPHmCEydOpDyeuhx18e0PiSlhWyoqKlBdXa3sq8cZ9SDPkheK1dVVrK+vA3iWjCVVq1QruKdPn94wDKAtR1384oDElLAtTqcTXq9X2Z+bm0uKcc9EXV1dSqHKF+qZ93QtSbXgut3utK1S9VAAdfGLAxJTwtacOHFCcXdaXFzE/Pz8puVlQeM4Dt3d3YUwEcBGl6h0LUmtS1Q6sacufvFBYkrYGq0z/ma+o2pBK3TyaPXMe7qWpNbVSY7Z15Kqiy8IArq6uiwNkyU2h8SUsD3Nzc0IBAIAgJmZGVy9ejVlOTnvqc/nK3jyaD1dfLXgphtTBZKHAqqrq1FeXo7h4WF88cUX1EK1M1bHsxKEXkZHR5WY956eHiaKImPsWfx6T0/Phr8XEp/PlxRnn4pAIKArlaC6HADm8XjS5iQg7AO1TImioaOjA3/88Qc6Oztx7do1lJWVweFwoLa2FqIoIh6PY2hoqOCtN3W3fLPJItkbIdPsfENDg+IS1tPTg9nZWZqAKgJodVKCIAgToJYpQRCECZCYEgRBmACJKUEQhAmQmBIEQZgAiSlBEIQJkJgSBEGYAIkpQRCECZCYEgRBmMD/AGX9YDGLlFPAAAAAAElFTkSuQmCC;" vertex="1" parent="WIyWlLk6GJQsqaUBKTNV-1">
          <mxGeometry x="189.32" y="212.57" width="203.46" height="63.62" as="geometry" />
        </mxCell>
        <mxCell id="HX48B-1rYJLwdNwCFjf0-49" value="P&lt;span style=&quot;font-size: 10px;&quot;&gt; &lt;/span&gt;-&amp;nbsp;плотность раствора, г/см&lt;sup&gt;3&lt;/sup&gt;" style="text;whiteSpace=wrap;html=1;align=left;" vertex="1" parent="WIyWlLk6GJQsqaUBKTNV-1">
          <mxGeometry x="440.43" y="230.82" width="170" height="30.06" as="geometry" />
        </mxCell>
        <mxCell id="HX48B-1rYJLwdNwCFjf0-51" value="&lt;sub&gt;&lt;span style=&quot;font-size: 12px;&quot;&gt;D&lt;/span&gt;m&lt;/sub&gt;&amp;nbsp;-&amp;nbsp;поперечный размер частиц шлама" style="text;whiteSpace=wrap;html=1;align=left;" vertex="1" parent="WIyWlLk6GJQsqaUBKTNV-1">
          <mxGeometry x="439.42" y="193.75" width="233" height="31.25" as="geometry" />
        </mxCell>
        <mxCell id="HX48B-1rYJLwdNwCFjf0-53" value="g - ускорение свободного падения, м/c&lt;sup&gt;2&lt;/sup&gt;" style="text;html=1;align=left;verticalAlign=middle;resizable=0;points=[];autosize=1;strokeColor=none;fillColor=none;" vertex="1" parent="WIyWlLk6GJQsqaUBKTNV-1">
          <mxGeometry x="441.43" y="245" width="240" height="30" as="geometry" />
        </mxCell>
        <mxCell id="HX48B-1rYJLwdNwCFjf0-54" value="m&lt;span style=&quot;font-size: 10px;&quot;&gt;&amp;nbsp;&lt;/span&gt;- коэффициент формы" style="text;whiteSpace=wrap;html=1;align=left;" vertex="1" parent="WIyWlLk6GJQsqaUBKTNV-1">
          <mxGeometry x="441.43" y="266.19" width="149.74" height="30.06" as="geometry" />
        </mxCell>
        <mxCell id="HX48B-1rYJLwdNwCFjf0-55" value="" style="rounded=1;whiteSpace=wrap;html=1;absoluteArcSize=1;arcSize=14;strokeWidth=2;" vertex="1" parent="WIyWlLk6GJQsqaUBKTNV-1">
          <mxGeometry x="189.32" y="345" width="200" height="40" as="geometry" />
        </mxCell>
        <mxCell id="HX48B-1rYJLwdNwCFjf0-56" value="" style="strokeWidth=2;html=1;shape=mxgraph.flowchart.annotation_2;align=left;labelPosition=right;pointerEvents=1;" vertex="1" parent="WIyWlLk6GJQsqaUBKTNV-1">
          <mxGeometry x="391.17" y="348.75" width="26.37" height="40" as="geometry" />
        </mxCell>
        <mxCell id="HX48B-1rYJLwdNwCFjf0-57" value="&lt;span style=&quot;border-color: var(--border-color); color: rgb(0, 0, 0); font-family: Helvetica; font-style: normal; font-variant-ligatures: normal; font-variant-caps: normal; font-weight: 400; letter-spacing: normal; orphans: 2; text-indent: 0px; text-transform: none; widows: 2; word-spacing: 0px; -webkit-text-stroke-width: 0px; background-color: initial; text-decoration-thickness: initial; text-decoration-style: initial; text-decoration-color: initial;&quot;&gt;D&lt;sub&gt;нар&lt;/sub&gt;&lt;/span&gt;&lt;sub style=&quot;border-color: var(--border-color); color: rgb(0, 0, 0); font-family: Helvetica; font-style: normal; font-variant-ligatures: normal; font-variant-caps: normal; font-weight: 400; letter-spacing: normal; orphans: 2; text-indent: 0px; text-transform: none; widows: 2; word-spacing: 0px; -webkit-text-stroke-width: 0px; background-color: initial; text-decoration-thickness: initial; text-decoration-style: initial; text-decoration-color: initial;&quot;&gt;&amp;nbsp;&lt;/sub&gt;&lt;span style=&quot;border-color: var(--border-color); color: rgb(0, 0, 0); font-family: Helvetica; font-size: 12px; font-style: normal; font-variant-ligatures: normal; font-variant-caps: normal; font-weight: 400; letter-spacing: normal; orphans: 2; text-indent: 0px; text-transform: none; widows: 2; word-spacing: 0px; -webkit-text-stroke-width: 0px; background-color: initial; text-decoration-thickness: initial; text-decoration-style: initial; text-decoration-color: initial;&quot;&gt;-&amp;nbsp;наружный диаметр обсадной колонны&lt;/span&gt;" style="text;whiteSpace=wrap;html=1;align=left;" vertex="1" parent="WIyWlLk6GJQsqaUBKTNV-1">
          <mxGeometry x="418.65999999999997" y="345" width="263.87" height="31.25" as="geometry" />
        </mxCell>
        <mxCell id="HX48B-1rYJLwdNwCFjf0-59" value="&lt;div style=&quot;border-color: var(--border-color);&quot;&gt;&lt;b&gt;Внутренний диаметр обсадной колонны на интервале H&lt;sub&gt;i&lt;/sub&gt;&lt;/b&gt;&lt;br&gt;&lt;/div&gt;" style="text;whiteSpace=wrap;html=1;align=left;" vertex="1" parent="WIyWlLk6GJQsqaUBKTNV-1">
          <mxGeometry x="431.06000000000006" y="311.25" width="253.87" height="33.75" as="geometry" />
        </mxCell>
        <mxCell id="HX48B-1rYJLwdNwCFjf0-60" value="" style="shape=image;verticalLabelPosition=bottom;labelBackgroundColor=default;verticalAlign=top;aspect=fixed;imageAspect=0;image=data:image/png,iVBORw0KGgoAAAANSUhEUgAAARAAAABACAYAAADS8yhWAAAK5UlEQVR4nO2dTUwTQRvH/33zHos12R5ALloCxIuCpiSgB0IhAcHEgwTCoeqhEiUeBEzkYlAPklA+NOpBejBoaCIXk1owEYgxGA+GlniDhuIFysEeYPc+78F31u337raw2/L8kk1Y2M5Mn13+O/PMM89YGGMMBEEQOviP0Q0gCKJ4IQEhCEI3JCAEQeiGBIQgCN2QgBAEoRsSEIIgdEMCQhCEbkhACILQDQkIQRC6IQEhCEI3JCAEQeiGBIQgCN2QgBDEMWZvbw9TU1O4dOkSLBZLwtHR0YGFhQVIkpTx81kFRJIktLa2phSc6bDb7bh06RJ6e3vx4cOHrBUTmSG7FweRSAS3b9+G3W5PuBcdHR0Ih8NGNy8nPp8Pt27dQm1tLb5//w7GGERRxOjoKADg8+fP6OzsREtLC3Z3d9MXwlQgiiIbHR1lAOTD5XIxURQTrovFYiwYDLL29nb5uvb2dra5uammGiIJsrt5GRwcTLgv6Y5098oseL1e5nK52MHBQcrfRFFkra2tCd/F6/WmLUeVgDDG2O7uLnM4HDkL5IRCISYIAgPABEFgfr9fbVWEArK7+XC73TnFgx9Op5Pt7u4a3eQEQqEQq6mpYaFQKOs1dru9cAKS/GBmq5yzubmZ8PAHAgG11RH/h+xuLgKBgHwvJicnWSwWk/8Wi8XS9kzcbreBLU4lEAioepb4dxkcHMx4jWoB4YYDwBwOh2pVVX5O7T8A8Q+yu3kQRZG5XK6cQxO/358gIGazP38pFULYVM/CzM/Pyz9fvnwZFRUVqj7X3NwMl8sFAIjH45ienlZbJQGyu5mIRCI4ODjAu3fvYLVaM17X29sLr9crn8fjcaysrBxFE1VRXV2Nuro6zM7OYmJiIq+yVAmIJEnY2dmRz7u7u1VXYLVa0dHRIZ8Hg8Gi8FCbAbK7uVhZWUFPT48qEe/r64PD4ZDPf/36dZhN04TVasX4+DgEQcDw8DCGhoZ0z9ypEpBIJIL19XUAgCAIqKys1FRJbW2t/LPZ1NjMkN3NxdDQEIaGhlRdW1ZWhjNnzhxyi/RTX1+Pt2/fwmKxYHJyEteuXYMoiprLUSUgKysriMfjAIC6ujpUV1drqqSyshKCIMjni4uLFKugArJ78WK1WhME/9y5cwa2Jj1dXV0YHx8HACwvL6Ourg6bm5uaysgpIJIkYXFxUT7v6OjIOv5LR3l5OWw2m3y+vb2tS+2OE2T30kLZGzQT/f39aG1tBQBEo1E0NTUhFAqp/nxOARFFEdvb2/J5IQyxv7+Pvb29vMspZcjuxY3Sf+VwOHDx4kWDW5QIj6I9ffo0lpaW5N/H43F0d3dnjjxNIqeArK2tIRqNAjCnIUoVsntxo/Rf3b17V/Xs2WGzsLCAhoYGNDY24uzZs/j9+zcYYwmzRtFoFCMjI6rKyykgeqcRlezt7WF/f18+t9lsKC8v11zOYREOhxPWM+R7VFVVIRaL5dWm42D3Uob7rxwOB/r6+oxuDiKRCBoaGtDZ2YkTJ07gx48fuH//vjws7uvrQ1VVlXz96uqqql5IVgGJxWJYXV2VzwvlCDpz5gzKysoKUlYpQnYvbmKxGF6/fg0AeP78ueG9j3A4jMbGRvz8+RNutxtLS0spDvmKigrcuXNHPo9Go1hbW8tZ9n+z/VH5BhMEAS0tLXraj52dHXk2Afg7O6DVIXiY1NfX48+fP0Y3Q+a42L1UmZubQzQahdvtRldXl6FtCYfDaGtrQzweh8vlwqtXrzJeW1tbC4vFAqZhu+ysPZB8pxE5yu44YM4pLTNBdi9ewuEwnj17lvOfVQ0+nw92ux12ux0+n0/z52OxGK5fv454PA5BEDA+Pl74F0imGHce9488FwQll6NlPcdxhOyeHeXiwkIchbQLt3khykz+nlrX0yTf/1yruBn7u37KYrHI9a2treX8TMYhjNKLDGgLo85Wjl6H4HGB7F68DAwMYH19HV++fDHc1l+/fsXy8jIAqHbkbmxsyMMX1T3fbGqEAqi0MneC2VYlmhGye3Hi9XoLnjphZmaGCYLABEFgMzMzqj+ntxerfGbU9FgYy7KcX1mY3sxKyd0ws+VF4JipW3yc7F4qcNE3S96V5Puvpl27u7usqqpKfn53dnZU1ZXWiZo8jagnjBoApqenZWegw+HA2NiY5jKOE2T34iMcDuPmzZvwer2Gz7hwlLNvahdhzs3NYWtrC8DfwLdTp06pqyydqhQiGQ3v0qGEHHiHDdm9uOBverXd/aNC6zOg7H1o7a2m7YFsbGzIP+uJXvz06ROGh4cBAE6nE6urq4Y7lYoBsnvxwOMrRkZGVC3xj8Vi6O3tzTtCWStqggcfPnyIra0tuFwuvHz5UlsF6dRImU9TqyIp1W9wcNC0WanNBtm9eOA9j2y5QjmiKLJgMMicTueR+aK0OOL51G2mDO25SBEQZeXQ4BjiRgIoG7geyO7FQT4O96NysibPwmSql+duzeeFkyAgfr8/xThutzvtPiShUIj5fD7W09OTMG73+/309tMI2b044NnM9YjHUfujsm3vsbm5yTweD3M6nSwYDOZVD5K7zlqOpqYm1tPTw3w+X0J6eyI3ZPfiIt+pfiOm0vk2E8p219TUMI/HU7C4INXbOhw2XBWVX9bj8chvVT6WbG9vTxl7ut1umnHQgF5biqKY8EB6PB65G8y7yUpfDI9jSR5mmSVegsgfwwWEP5T8geTbMSqnyLKN6fibnIKl1KHXlvx+uFwu+R5xsUiecubljI6OstHRUbmbzDe8osjY0kH1vjCHxcDAACYnJ+F2u/HmzZu08fdWqxVLS0sIBAIpgTF86TutNFWHHlvyKcvOzk58/PhRvkctLS0QBCFl3QTPphYMBtHX14crV64A+LsfyeXLlxGPxxO2qyCKF0MFZGJiArOzsylLnxcWFtDW1oa6ujr09/fLv5+fn095WPlWBXpzZhxX1NqSLwm32WwYGxtLGxmbHDHL0wg8evRIdyoCokgwquujdCL6/X4WCoXYkydP5MVDk5OTCbMK2ZyO5P/QhhZb8rU56fwW6daA8LLTrePhf6MhTOlgmIBk8mq3t7ezYDCY8vDx68n/kT9qban0eyTfj0y5L9KVzeGCQ/erdDBsCMMX/LjdbrC/QgbGGF68eIF79+7h/PnzCWG/KysrsNlsCdnJ+Vib/B/aUGtLfo/SpULk+SaS84zwYVDyAi5JkjA9PU2L+0oMwwSE75qW/M/PHW3KpK58k6XkuP6NjQ0IgoCTJ0/i27dvR9r+YkWLLfnanHRO1ffv3wNITHjEy06XjGZgYADLy8umSDJMFA7DBITvEL64uIhIJALg7wP4+PFj2bHa3NwM4F92LaWzjj+sNpsNBwcHuHDhglFfpajQYku+mRXfElOSJExNTWFjYwNOpxOCIMBms+Hp06eQJCkhCxrvPfINjILBIAKBgGmWvBMFwsjxkyiKzOPxJPhAampqUsKyvV5viuONj8GdTic5UDWg1ZY8RgdJcTrcuapcR8F9HDU1NQlh9oODgxQxW6JYGNOQw50gsnDjxg2srq5SGoFjhOGBZERpwLOp0eZVxwsSEKIg8ChWvWkYieKEBITIG0mS8ODBAwD/HK/E8YAEhMiLiYkJlJWVYXl5GfF4HFevXkVrayskSTK6acQRQE5UgiB0Qz0QgiB0QwJCEIRuSEAIgtANCQhBELohASEIQjckIARB6IYEhCAI3fwPb5KuLTKkRwQAAAAASUVORK5CYII=;" vertex="1" parent="WIyWlLk6GJQsqaUBKTNV-1">
          <mxGeometry x="227.1" y="350" width="132.9" height="31.27" as="geometry" />
        </mxCell>
        <mxCell id="HX48B-1rYJLwdNwCFjf0-62" value="" style="shape=image;verticalLabelPosition=bottom;labelBackgroundColor=default;verticalAlign=top;aspect=fixed;imageAspect=0;image=data:image/png,iVBORw0KGgoAAAANSUhEUgAAABUAAAAhCAYAAAA2/OAtAAAB80lEQVRIie3WSwspYRgH8AdHLmUhpSjZuCykKSULfBEbsdHk8gFsFHtZi/IRFEqRbOwtbGZhpyxcJuM6Mf5n55yJM+g4i1P+y2ee9zfv1PvMjAoA6MNRfxr8ol/0H+THK02SJNFisaDtdktERHq9nqxWK+l0uof9T3fK8zyl02maz+d0uVyoUqmQx+OhcDhMq9Xq8SIoZLPZIB6Pg+f5W+14PIJhGBAR6vX6w3WK6HQ6RSAQwOl0ktVbrRZYlv3jOkVUFEUEg0EUi0WltvdQAOA4DiaTCbFYDKIofgYFgF6vB6PRiHA4jOVy+XfodrtFp9OB3++H2WwGEcHlcmG/37+PSpKEfD6PQCCAfr+P8/mM2WwGi8UClUqFbrf7Hno4HJBKpeBwODCZTGTXstksiAilUkkRlU3U9XqlcrlM9Xqdms0m+Xw+2Zk2mUxERKTVapUn5vc7jMdjaDQaMAxzdzYBIJFIQK1WYzgcvv74yWQSRIRarXbXuN/v4fV6YbfbZRP2FA2FQjAYDOA47q6x0WjAaDSi3W4rgncowzCw2WzY7XayJkmS4Ha7USgUnoJ3aCaTgUajwWg0utUEQUAkEkG1WoUkSS+hKuDXz8R6vaZcLkeDwYBYliWn00mCIFA0GiWGYZ69JW+RoZ/K//ON+qKfz0+thAUSg2A1ywAAAABJRU5ErkJggg==;" vertex="1" parent="WIyWlLk6GJQsqaUBKTNV-1">
          <mxGeometry x="417.15999999999997" y="370" width="13.52" height="21.25" as="geometry" />
        </mxCell>
        <mxCell id="HX48B-1rYJLwdNwCFjf0-63" value="&lt;sub style=&quot;border-color: var(--border-color); color: rgb(0, 0, 0); font-family: Helvetica; font-style: normal; font-variant-ligatures: normal; font-variant-caps: normal; font-weight: 400; letter-spacing: normal; orphans: 2; text-indent: 0px; text-transform: none; widows: 2; word-spacing: 0px; -webkit-text-stroke-width: 0px; background-color: initial; text-decoration-thickness: initial; text-decoration-style: initial; text-decoration-color: initial;&quot;&gt;&amp;nbsp;&lt;/sub&gt;&lt;span style=&quot;border-color: var(--border-color); color: rgb(0, 0, 0); font-family: Helvetica; font-size: 12px; font-style: normal; font-variant-ligatures: normal; font-variant-caps: normal; font-weight: 400; letter-spacing: normal; orphans: 2; text-indent: 0px; text-transform: none; widows: 2; word-spacing: 0px; -webkit-text-stroke-width: 0px; background-color: initial; text-decoration-thickness: initial; text-decoration-style: initial; text-decoration-color: initial;&quot;&gt;-&amp;nbsp;&lt;/span&gt;толщина стенки обсадной трубы&amp;nbsp;" style="text;whiteSpace=wrap;html=1;align=left;" vertex="1" parent="WIyWlLk6GJQsqaUBKTNV-1">
          <mxGeometry x="424.09000000000003" y="365" width="263.87" height="31.25" as="geometry" />
        </mxCell>
        <mxCell id="HX48B-1rYJLwdNwCFjf0-64" value="" style="rounded=1;whiteSpace=wrap;html=1;absoluteArcSize=1;arcSize=14;strokeWidth=2;" vertex="1" parent="WIyWlLk6GJQsqaUBKTNV-1">
          <mxGeometry x="183.32" y="438.75" width="210" height="40" as="geometry" />
        </mxCell>
        <mxCell id="HX48B-1rYJLwdNwCFjf0-65" value="" style="strokeWidth=2;html=1;shape=mxgraph.flowchart.annotation_2;align=left;labelPosition=right;pointerEvents=1;" vertex="1" parent="WIyWlLk6GJQsqaUBKTNV-1">
          <mxGeometry x="395.45" y="444.06" width="34.81" height="30.62" as="geometry" />
        </mxCell>
        <mxCell id="HX48B-1rYJLwdNwCFjf0-66" value="&lt;span style=&quot;border-color: var(--border-color); color: rgb(0, 0, 0); font-family: Helvetica; font-style: normal; font-variant-ligatures: normal; font-variant-caps: normal; font-weight: 400; letter-spacing: normal; orphans: 2; text-indent: 0px; text-transform: none; widows: 2; word-spacing: 0px; -webkit-text-stroke-width: 0px; background-color: initial; text-decoration-thickness: initial; text-decoration-style: initial; text-decoration-color: initial;&quot;&gt;&lt;sub&gt;&lt;span style=&quot;font-size: 12px;&quot;&gt;H&lt;sub&gt;i-1&lt;/sub&gt;&lt;/span&gt;&lt;/sub&gt;&lt;/span&gt;&lt;sub style=&quot;border-color: var(--border-color); color: rgb(0, 0, 0); font-family: Helvetica; font-style: normal; font-variant-ligatures: normal; font-variant-caps: normal; font-weight: 400; letter-spacing: normal; orphans: 2; text-indent: 0px; text-transform: none; widows: 2; word-spacing: 0px; -webkit-text-stroke-width: 0px; background-color: initial; text-decoration-thickness: initial; text-decoration-style: initial; text-decoration-color: initial;&quot;&gt;&amp;nbsp;&lt;/sub&gt;&lt;span style=&quot;border-color: var(--border-color); color: rgb(0, 0, 0); font-family: Helvetica; font-size: 12px; font-style: normal; font-variant-ligatures: normal; font-variant-caps: normal; font-weight: 400; letter-spacing: normal; orphans: 2; text-indent: 0px; text-transform: none; widows: 2; word-spacing: 0px; -webkit-text-stroke-width: 0px; background-color: initial; text-decoration-thickness: initial; text-decoration-style: initial; text-decoration-color: initial;&quot;&gt;-&amp;nbsp;&lt;/span&gt;глубина спуска предыдущей обсадной колонны, м" style="text;whiteSpace=wrap;html=1;align=left;" vertex="1" parent="WIyWlLk6GJQsqaUBKTNV-1">
          <mxGeometry x="417.53999999999996" y="445.75" width="330" height="31.25" as="geometry" />
        </mxCell>
        <mxCell id="HX48B-1rYJLwdNwCFjf0-69" value="" style="shape=image;verticalLabelPosition=bottom;labelBackgroundColor=default;verticalAlign=top;aspect=fixed;imageAspect=0;image=data:image/png,iVBORw0KGgoAAAANSUhEUgAAAbYAAAA9CAYAAADBCUzfAAARTUlEQVR4nO2dzYsc1RbAzzzeVmLNZCUuxOqAwcWI1gyi42IWptooroTuAZFABmLVVk1Cx+wSsRtd6tSAQhaGrmgCIvaYUUgg3bowLXQj4ibViIiratqPP6DeYt4tTt2uj1tf3dXV5wcF1TN1696699Y59+OcUyuO4zhAEARBECXhP/MuAEEQBEFkCSk2giAIolSQYiMIgiBKBSk2giAIolSQYiMIgiBKBSk2giAIolSQYiMIonCMRiMwTRN0XYdqtQorKyvuUalUQNd1GI1G8y4mUVBWyI+NIIiisbKy4p43m004e/YsrK2twXA4hN3dXej3+yBJEnz11VewtbU1x5ISRYQUG0EQhYMptkajAVevXvX8bzQagSzLAAAgyzI8ePBg5uUjig0pNoIgCgdTbLZtw9ra2tT/q9UqHB4ehl5DLC+0x0YQROFwHAccxxFSWL/++usMSkQsEqTYCCIjxuMxbGxsePaHiHwYj8fuOe2xETyxFRu2TvI7cIfDmKYZmk7X9dQPQySj1+uBrutQqVSmLM96vV5m+UT1naijWq1G5jEajaDVakG1WoXV1dWp9Lquw8HBgVB5e71erPIdP34c+v2+u/9TVnRdF6qP1dVVqFarcOnSJeE6F6HX60G/3wcAAFVVM7vvIhBV98Ph0DddvV5PlG5hcWJiWZajKIoDAJ5D0zTHtu3QtJ1Ox5EkaSqtYRhxi0FkRKPRcNtBkiRHVdWp9hVpWxH4do97NBqNwHvbtu1omua5XpZlR1VVR1XVqX4ny7IzGAxCy9vtdhOVU1XV1HVVdDqdTux6kWXZ6XQ6qfNm/VOSpMg2LCN+da8oimNZVmg6wzASpVtEYis2x/GvWFHBhwUpKbX5ghUBr7y63a5HGaQV1pZlpVZsQS+gZVmOLMuesvpd2263Pc8UJRhJsYWjqqrnuTG2bTudTmdqsMH6WlLw/drtdtpHWFj4uhdVTvg9iZNu0Uik2BzHSfwiY8W2LAKgiODRW1A78II9zSAE30tVVafT6TjdbjfyEBGGeIYZ1acGg4FHucmyLFRmTdOEytvtdpdmFiFa74PBYGoVoNlsxs6v2WySUvs/uD4VRRFOh/t+nHSLRmLFxo+Qk6Qr62ih6Ni27eng3W438Fo8MpQkKXGeTEmEKRKedrsdWUZ8TdSzMPhVg6A0WLElEcRlB9dh2DKx40z3ubjvP25naot4dR+Ursz1mNgqslKpxE7T6/XAsiwAOIom8PjjjyfNnkjBzZs3YTKZAMCRg2uYVdmZM2fc88lkAqZppsr7nXfeEb722rVrAACgKEpgGb/88kvPbxELuZdeesnz+4cffhAuE3EEb2zw/PPPh16/trYGH3/8sedvH3zwgVBepmnCzs4OAABomgbnz5+PUdLyEbfuGbwh2HPPPZdZmYrGf2eZ2ZUrVwDgSJiePXt2llkTiE8++cQ9P3XqVOi1L774ouf3vXv3oF6vx85za2sLnBixAHq9nuuA+9ZbbwVe99dff7nniqLELheRDN537IknnohMw/elb7/9NjLNwcGBR6nxynEZSVL3AAC//PKL5/fJkyczK1PRmJkfGxZUV65coUgBc2I8Hrum0gAA6+vrodevra15zNdFhFEWsEGQJEnCipStBhD58/PPP7vnsiwLrb6sra15zPMtywoNZDwcDuH1118HAFJqmHv37rnnonUP4J3pKYpSahmcWLHhyhSJ1caWtFRVTTTiJ7KBH+09+eSTkWnwsvMslMdwOHQHQRcvXgy9FvfDyWQS6EeJ+eeffzy/F2VJhvkc7e/vz7songFOnJnyM8884/n9559/Bl67u7sLk8kEVFX1VWrj8RhWV1eh1WoJ558X2Ocxb5+w+/fvu+dx6h6n29jYyLRMRSOxYnvsscfc8yhhZ5qme827776bNEsiA5LsJ/Ejwiydtv3AgjtqyfqVV17x/P7uu+8i7//111+751F7jEVEZDCSN3jWv729LZzu2LFjQte1Wi3X2f369eu+13z66acwmUwKNzCJWgVJS5K6j7tSs+jkvhQ5Ho/dqCKapi2cECG8g5i8GY1GsLe3BwBH/SVqueT06dOe5S1d10NHzL1ez72/JElw69atDEo9GyRJmncRAGB6YJO1oh2Px/D+++8DwNGg+fjx477RMi5cuJBpvml46KGHZpJP0rrnV2qeffbZzMpURHJXbGxUJUkSvP3223lnN3fSho2KOtJy584dz++iDTSwpdy5c+eE0ly/ft1dkplMJrC9vQ2tVsuzfzMcDqHVasELL7wAAEcztbt37wqPXH/77TfY39+fCtW1uroK9Xo9tbUoZjweQ7VanRJim5ubAADwyCOPuH8bjUa+1+YJP+vPug9hq90iMhwOoVqtevoX60d8OLVerwcbGxtCS+QiJK17Pl3ZZ2yJ/dh4/yE/LMtyfVfK7DOBwXWSx5GWsGgRQWDHWBD0FUuCbdupnPebzaZvyDb+aDQaQpFy4kYeURQlE+ds7GeHy8razu950/gYxqVWqyVuJz4SySI6s+OQXjhoAa4PPsRbrVbLJG9c90mPZQiMkVhS8i+9H6xh4zjlEvlSZMWG80kSU7DT6XgCAOBYkfzL3Ww2hZSbYRiOLMtOo9GYeu5utzslqLOKX9hut91nkWXZk1e32/VEntA0babBDvDgIY5zsOMk639Fw7Ztz6CChXBj/Q2HbpMkSbiviSAycIs6lmGSkZtiGwwGqYQUkQ9FVWw4MkXcgZBt21OzCD9BbxjGVEihLAQOv3qRZagiXsHxI+9ZR+/hY37Gfbfzqqd5gBUcO5KsDIjC171oiLu0bbaIZKbYeGHHBOgyTHsXiSTBU2eh2HAecWNS4meKWvLh+21WS0T8zC3LWIa2bXtmaJIk5TZrjoIPgB5HsfJ1H3e2V1T4+KN5Rczn6150ZSBJm+Hl8EUMfZjYeCTMCgg7YzebzaRZEDnw8MMPe36H+RHNEmYFJ0kSvPbaa8LpTNN0+xoAwHvvvRd6/dbWFmia5v6+ceNGJn5HvKELdqJNyng8hlarBSdOnIB+v++xijxz5gzs7+9nZpQgyvfff++ex3EOBgD45ptvPL9FQ0EVldFoBLquw1NPPeUayEmSBP1+H3Rdz9SgCMBb9wDiBiBJ2oz5KUqStJChDxMrtrBKZc7YjUaj/NY3C8bTTz+d+h5Zh+IxTdO1ghMx8cd8+OGH7rmiKEIvIe/7hhVjUvh+HhZRQwSm0JhJe6fTcRVyv9+HSqUCb775Jpw4cQJardbMFNxPP/3knscNYcbcLACOBOzp06czK9csYS5MsizD3t4eKIoCg8EAZFmGzc1N6Ha78ODBA9jZ2YFKpZKZgsN1H+cDq0najPm8RYXcyxvTNKFSqcR3wk8z3QOf5Sm23yBJUqbry0Q28B8bFFkyw/tXeVjfpfniA34W0WVvbH0ZJ12csqR5tfAyUK1WC7SKxHuGs7KKxM8XZ8mY73eLbMCAl4Xxc+C+ZNv2VDumJWn9JW2zedLtdj1bDHH7S6aKDRsALEoFZg0v3LI+0sLvc4h0GNzBst4zxYYXSV7+pAoqb8WWxhLYtm1HVdXAfWu8t2JZlu+1eRC1rx4E/8maRR/0DgYDX8MdvwEGs2BN+7x83YsagCRts3lhWZavS8NcFRszAFhm8/6iKza+jCLKJM8RHx79JnnpslBsWRmQ5KEsMUw5zEs48bMuUXhBVUarPGwFngd83YsqyqRtNg+YAZaiKE673fYYlMVVbKkij+B13j/++MM1AGDf0VpGnKPBQm5HFtRqNfc8Klo/b1jBf3okDb1ez13LTxqzEUd6+PHHH4XS8M/kF28vblBbfk+ND/abBfOOxsFHhxfBNE24ceOG+1vTtIXdWwvj33//zfX+d+/edc9lWRbeh8bpotqsWq16ohwl+eZmGiRJAsMw4P79+1Cv11PFAM0spJau6zCZTKBWqwUKqI2NjamKwy9Lq9WaClcUtPHKLJIqlYrn+mq16qbRdX0qJBXehGy1Wp7/sZiWZeeNN95wz6M+Hvr555+757VaLdA4A9el6AvBPk3Dn8cBK+nJZCIUWoo3FolS1iLR9G/evOn5nef3Buf1YVQ8CBIxKsAfCAU4EqxBn57B77HfUa1WfdthOBxOpeX7n5/cSWvcE0Ye4c1wAOM4Bh1x2uz27dseK/ZZG45cvXpVOIxeJGmmjn4RHaI2/9nSU9ByJd5zCVqyYJ79iqK4yzLdbtcTCcDvfpqmBT5Dln5HiwBeApRl2XdpA4dEi2pb3tctCrz2n8bwgS9j1H4G73MU5EvF702E+QzxZSiLfxaGd/INe194h3kArxFMEKxP4vfXtm1PJA+/JV5sDBTk9I3DYC3a/h5f96LLcnh5VDQd7vfztpPAZZnpHhuv2EQyZwIwqINigesHbixe0DIlxt+brd3ynZp1mEW20EoKL+B5wWNZlqctohR/XMWGHZrT1j/vgIoHPPx1+Jn9BjoMXrEFOUXz98wqmknR4NuXf/cGg4HTbrenHNXjtC+zIvSTDXivyG+AxWRRUF5h9y46fN2L1meSdHgiMO84nnNTbNicVXQkFKbY+JfCDzYS9BNKbOTG3xsrTGYowP6WleHAIjIYDHzDNPFRLkRms3EUGz8CzSKygd+z4FiRvFVe1IvCK3ac1u+eZZ2pOY53NSTOoapqLOEYJhuwkPMbYEQptrB7Fxm/uheJbMIPuETTMZk+y6DaQcxNsWFhJrqUF9TBNE1zo2UHCUe85BB36RDPUAzDcDRNK+3oOg62bTuGYUzNvhVFcZrNprDSwX0hKgYgvjZs1pSETqfjti2v5Gq1mmMYRqw2tyzLMQzDqdVqU/dkSs4wjIUMOyQCP2CJUmSsjpPUR5jyYXIhSOCWUbFF1X2QdSyecMRJ5zj+y8F+xB3k8P1EhLkptiT4dTCm1AaDgedheKJGbVFg5/GsorATR6RxpiQIx/GXDXiPLeydLaNimzV44hD1Dhddsf0X5gyLqcY++pjnBxPr9Tpcu3YNDg8PQVEUePTRR3PLa5kYj8eupaEsy7laBBLl5/DwcOqjupIkwWeffRYZou/ChQuF+rL2IoG/sh1lau9k5HqUF7l/QTsMXqnlDQvOzAKVXr58Ofc8lwFWj5Ikwa1bt2LFeiQIHlVVPb6bLA7jyy+/DPV6PTRts9n09f+kYOzRYDeSrOPBzpq5KbbDw8PYSg1/USCuL89oNIJXX30Vms2m67S4t7eXeQTuZcM0Tdjb2wNJkmY2QCGWi/X1dbh9+zYAHH2Ngd7ZfLhz5w4AHPkbLvrgdG6KLYkgXF9fdz/d8cUXX/heMxwO4eDgwPO38XgMtVoNTp06BefPn4f19XUwDAMAjmaNWXy2ZFk5efIkqKoK/X6flBqRG1jQ/v7773MsSXlhkXtwXZumuZDyceaK7e+//wYAgM3NzUSC8OLFiwBw5Il/6dIlz/96vR5sb29Pfbfo8uXLMJlM4KOPPnL/du7cOVBVFSaTCezu7s78u1ZlgY2mF/GbTUSxYLLBDxwp5NixY1P/p/c3PSxkG6vL/f192NnZ8UQfmhdhfcOXWKYmGYBNpv0snLCJa1DkET5qhqqqrg8T75fGfOP8fIxwXqqqLr3pP0HMkyBTcxYhH8DfXxZb8wVZ3GGZQe+5P35+m/PwzbRt29PmrN07nY5w281UsfEOtLxy8/O/CPJXazabngdnEaHD8sONhMP0YCVJEMTs8ZMN+FBV1Wk0GlOCjY+gw2RB2L3J1ccfHORAUZSZf4WBj/YTdkSZ/684TsHtNgmCIAgiBnM19ycIgiCIrCHFRhAEQZQKUmwEQRBEqSDFRhAEQZQKUmwEQRBEqSDFRhAEQZQKUmwEQRBEqSDFRhAEQZQKUmwEQRBEqSDFRhAEQZQKUmwEQRBEqSDFRhAEQZSK/wE9hT0YlwotKAAAAABJRU5ErkJggg==;" vertex="1" parent="WIyWlLk6GJQsqaUBKTNV-1">
          <mxGeometry x="188.51999999999998" y="445.75" width="195.66" height="27.25" as="geometry" />
        </mxCell>
        <mxCell id="HX48B-1rYJLwdNwCFjf0-71" value="&lt;span style=&quot;line-height: 107%;&quot;&gt;&lt;font style=&quot;font-size: 12px;&quot;&gt;&lt;b&gt;Объем раствора в обсаженной части скважины&lt;/b&gt;&lt;/font&gt;&lt;/span&gt;" style="text;whiteSpace=wrap;html=1;" vertex="1" parent="WIyWlLk6GJQsqaUBKTNV-1">
          <mxGeometry x="440.43" y="413.75" width="213" height="25" as="geometry" />
        </mxCell>
        <mxCell id="HX48B-1rYJLwdNwCFjf0-75" value="" style="rounded=1;whiteSpace=wrap;html=1;absoluteArcSize=1;arcSize=14;strokeWidth=2;" vertex="1" parent="WIyWlLk6GJQsqaUBKTNV-1">
          <mxGeometry x="183.32" y="539.38" width="210" height="40" as="geometry" />
        </mxCell>
        <mxCell id="HX48B-1rYJLwdNwCFjf0-76" value="" style="strokeWidth=2;html=1;shape=mxgraph.flowchart.annotation_2;align=left;labelPosition=right;pointerEvents=1;" vertex="1" parent="WIyWlLk6GJQsqaUBKTNV-1">
          <mxGeometry x="395.45" y="550.01" width="34.81" height="29.99" as="geometry" />
        </mxCell>
        <mxCell id="HX48B-1rYJLwdNwCFjf0-79" value="&lt;b&gt;Разница спуска обсадных колонн&lt;/b&gt;" style="text;whiteSpace=wrap;html=1;" vertex="1" parent="WIyWlLk6GJQsqaUBKTNV-1">
          <mxGeometry x="439.17" y="519.51" width="213" height="25" as="geometry" />
        </mxCell>
        <mxCell id="HX48B-1rYJLwdNwCFjf0-80" value="" style="shape=image;verticalLabelPosition=bottom;labelBackgroundColor=default;verticalAlign=top;aspect=fixed;imageAspect=0;image=data:image/png,iVBORw0KGgoAAAANSUhEUgAAAPQAAAA9CAYAAACayESCAAAGkklEQVR4nO3dTWsTWxgH8H8v9wuE7EWaboqLQhlclKwEmeC6xWlXAUGZLAQRW+oLLrS1Se1GpLFCQdxkAtlWjAU3iQs1SLOQbppBXGcc9AvMXfRm7p28zlszk9P/D0I7k5wzZ07zTM6ceTKdsizLAhEJ4a+oG0BE4WFAEwmEAU0kEAY0kUAY0EQCYUATCYQBTSQQBjSRQBjQRAJhQBMJhAFNJBAGNJFAGNBEAmFAEwmEAU0kEAY0kUBCDehcLodCoeC53NTUlOtHvV4PvXycsW/cy2Qyrve13/s0aPlYsELSbrctAFYqlfJdvlQqWYlEwgLgeOTzeavdbgcq32q1fLUrDtg33hwcHFiSJPXs6/Xr113t67DyR0dHY9gD/0IL6Hw+b+/4wcFBKPV0OtGLV69eOcpLkuS7LXHDvnGvVqs59jWRSHgqf3R01BPQow6ccRDakHtra8v+/cWLF77rWVhYcCzPz897Kn/p0iXH8tLSku+2xA37xr10Ou1Yvnz5sqfyc3NzjmVZlpFMJgO366yFEtCapsE0TXu5Wq1C1/UwqiYiD0IJ6J2dnZ51+/v7YVRNRB4EDuh6vY5GowFVVZFKpez1xWIxaNVE5FHggH758iUAYGVlBffu3bPXm6YJTdOCVk9EHgQKaF3XUS6XIcsy0uk0FhcXHc/3G4oT0dkJFNCd8+RsNgsASCaTUFXVfr7RaKDZbAbZBBF54DugDcNAsVhEKpWCoij2+pWVFcfr9vb2/LcuYoVCwVOm1URnGJEQ/vZbsFKpwDRNPHv2zLE+nU5DkiQ0Gg0Ap5NjT548mYhreN0uXLgAWZZDr5PorPgO6O3tbSQSiZ7zZgC4e/culpeX7eVKpYJbt2752s7Hjx89vf7Hjx++ttOPoiiO0UfcRNk3k+bk5OR8jI78pJeVSiULgHX//v2+z7fbbUfesJf87u6UvaCPfD7vZxdjaZx90/kbl0qlMe5huMLsK1mWB26n3W5bkiRZkiRFnh7q6xz6zZs3AIAbN270fT6ZTDo+2VqtFt69e+dnU8jn87BOc85dPWq1mq/tTKKz7JvO37jzc9LJsuyprywP/2X5+PgYjUYDjUYDx8fHgdqpaRoymYzv0YTngG42m6hWq1BVFdPT0wNf1z3Efvv2rffWUWQ6Vy46P2mw2dlZSJIESZIwOzvrubxhGNA0DTMzM1heXka1WvXdFs/n0J1Z6+7Z7G5zc3OQZdluXLlcxubm5tCDQNxomhb6J1Q2m431eXlH3OcP4iSZTOLr16+Byl+9ehWKomBmZgatVst3XZ4CWtd1FItFO5FklGw26zja7O/vY2Njw3srI/Lz589AR8t+rly5Emp9cVMoFLC2thZqnV6Gv5OqcxVorAFdqVQAuB+GKYqCXC5nfxOrWCxOVECvrq5idXU16mZMlIWFBeTz+aibcW65DmjDMLC1tdWTSDKKqqrY3NwE8F9+N4dy8WYYBg4PD7Gzs4OlpSVPB7V0Ou1q9CaSZrOJvb09aJqGX79+RdoW15Nih4eHME3T8QUMN7pnwpnfHW/1eh2PHj1CLpezk4NosAcPHmBtbQ3FYtFxT4CouA7ohw8fDkwkGWZ6etqRbcX87nhLp9PY3d3lKMqljY0N7O7uRt0Mm6uArtfraLVaUFXVVwrn7du3HcuTnN99Xly8eDHqJkyMOF25cRXQT58+BTA4kWSUa9euOW5+oGkaDMPo+9o/f/742sZ5wL5xb9D7S3QjA1rXdVeJJKPcvHnT/t00TXvGvNunT58cy9++ffO0ne/fvzuWveY7xxn7xr3Pnz87lr98+eKpfPdpoZ/Ll8Pu831WRs5yP3/+HADw4cMHZDIZ3xvqPmJub2/3ZJNpmtZz66JyuYz5+XksLi6OPKBomob19XXHumq1ikKh4Kp8nLFv3KvX63j8+LFjnWmaUBQF6+vrPXf07Ff+zp07Pevdlo/UsETvzs3zz+pRq9Usy/KWRN8p839By8dZVH3TuQf4JH25RZblQF9MCVK+sz6sffDb70M/oZPJ5FiydIJuYxxtjAr7xr33799HWj4O+M/qaKjfv39H3YSJEvVkHAOaehiGgdevXwM4PU+P+k0ad/+/DDtostcNXddxcnIC4HTC01e/Bx70k1AG3URh0uYexqXfefewmyEM0q/P4eNceurfyohIABxyEwmEAU0kEAY0kUAY0EQCYUATCYQBTSQQBjSRQBjQRAJhQBMJhAFNJBAGNJFAGNBEAvkHmr6DKTRSSQQAAAAASUVORK5CYII=;" vertex="1" parent="WIyWlLk6GJQsqaUBKTNV-1">
          <mxGeometry x="227.29999999999998" y="544.51" width="118.96" height="29.74" as="geometry" />
        </mxCell>
        <mxCell id="HX48B-1rYJLwdNwCFjf0-81" value="&lt;span style=&quot;border-color: var(--border-color); color: rgb(0, 0, 0); font-family: Helvetica; font-style: normal; font-variant-ligatures: normal; font-variant-caps: normal; font-weight: 400; letter-spacing: normal; orphans: 2; text-indent: 0px; text-transform: none; widows: 2; word-spacing: 0px; -webkit-text-stroke-width: 0px; background-color: initial; text-decoration-thickness: initial; text-decoration-style: initial; text-decoration-color: initial;&quot;&gt;&lt;sub&gt;&lt;span style=&quot;font-size: 12px;&quot;&gt;H&lt;sub&gt;i&lt;/sub&gt;&lt;/span&gt;&lt;/sub&gt;&lt;/span&gt;&lt;sub style=&quot;border-color: var(--border-color); color: rgb(0, 0, 0); font-family: Helvetica; font-style: normal; font-variant-ligatures: normal; font-variant-caps: normal; font-weight: 400; letter-spacing: normal; orphans: 2; text-indent: 0px; text-transform: none; widows: 2; word-spacing: 0px; -webkit-text-stroke-width: 0px; background-color: initial; text-decoration-thickness: initial; text-decoration-style: initial; text-decoration-color: initial;&quot;&gt;&amp;nbsp;&lt;/sub&gt;&lt;span style=&quot;border-color: var(--border-color); color: rgb(0, 0, 0); font-family: Helvetica; font-size: 12px; font-style: normal; font-variant-ligatures: normal; font-variant-caps: normal; font-weight: 400; letter-spacing: normal; orphans: 2; text-indent: 0px; text-transform: none; widows: 2; word-spacing: 0px; -webkit-text-stroke-width: 0px; background-color: initial; text-decoration-thickness: initial; text-decoration-style: initial; text-decoration-color: initial;&quot;&gt;-&amp;nbsp;&lt;/span&gt;глубина бурения данным диаметром долота, м" style="text;whiteSpace=wrap;html=1;align=left;" vertex="1" parent="WIyWlLk6GJQsqaUBKTNV-1">
          <mxGeometry x="424.09000000000003" y="548.75" width="330" height="31.25" as="geometry" />
        </mxCell>
        <mxCell id="HX48B-1rYJLwdNwCFjf0-82" value="" style="rounded=1;whiteSpace=wrap;html=1;absoluteArcSize=1;arcSize=14;strokeWidth=2;" vertex="1" parent="WIyWlLk6GJQsqaUBKTNV-1">
          <mxGeometry x="162.2" y="644.06" width="260" height="40" as="geometry" />
        </mxCell>
        <mxCell id="HX48B-1rYJLwdNwCFjf0-83" value="" style="strokeWidth=2;html=1;shape=mxgraph.flowchart.annotation_2;align=left;labelPosition=right;pointerEvents=1;" vertex="1" parent="WIyWlLk6GJQsqaUBKTNV-1">
          <mxGeometry x="423.13" y="654.69" width="34.81" height="25.31" as="geometry" />
        </mxCell>
        <mxCell id="HX48B-1rYJLwdNwCFjf0-86" value="&lt;span style=&quot;border-color: var(--border-color); color: rgb(0, 0, 0); font-family: Helvetica; font-style: normal; font-variant-ligatures: normal; font-variant-caps: normal; font-weight: 400; letter-spacing: normal; orphans: 2; text-indent: 0px; text-transform: none; widows: 2; word-spacing: 0px; -webkit-text-stroke-width: 0px; background-color: initial; text-decoration-thickness: initial; text-decoration-style: initial; text-decoration-color: initial;&quot;&gt;К&lt;sub&gt;кав&lt;/sub&gt;&lt;/span&gt;&lt;sub style=&quot;border-color: var(--border-color); color: rgb(0, 0, 0); font-family: Helvetica; font-style: normal; font-variant-ligatures: normal; font-variant-caps: normal; font-weight: 400; letter-spacing: normal; orphans: 2; text-indent: 0px; text-transform: none; widows: 2; word-spacing: 0px; -webkit-text-stroke-width: 0px; background-color: initial; text-decoration-thickness: initial; text-decoration-style: initial; text-decoration-color: initial;&quot;&gt;&amp;nbsp;&lt;/sub&gt;&lt;span style=&quot;border-color: var(--border-color); color: rgb(0, 0, 0); font-family: Helvetica; font-size: 12px; font-style: normal; font-variant-ligatures: normal; font-variant-caps: normal; font-weight: 400; letter-spacing: normal; orphans: 2; text-indent: 0px; text-transform: none; widows: 2; word-spacing: 0px; -webkit-text-stroke-width: 0px; background-color: initial; text-decoration-thickness: initial; text-decoration-style: initial; text-decoration-color: initial;&quot;&gt;-&amp;nbsp;&lt;/span&gt;коэффициент кавернозности" style="text;whiteSpace=wrap;html=1;align=left;" vertex="1" parent="WIyWlLk6GJQsqaUBKTNV-1">
          <mxGeometry x="448.4600000000001" y="652.35" width="204.26" height="30" as="geometry" />
        </mxCell>
        <mxCell id="HX48B-1rYJLwdNwCFjf0-87" value="" style="shape=image;verticalLabelPosition=bottom;labelBackgroundColor=default;verticalAlign=top;aspect=fixed;imageAspect=0;image=data:image/png,iVBORw0KGgoAAAANSUhEUgAAAfUAAABDCAYAAACFrJzNAAATiUlEQVR4nO2dzYscRRvAn3nxrNu7NxGRnQ0YElmR3ii6G1hBe4g5KCizIceIay8iqJjo7OYgkeAk4sHD7uwhV2cSFDw4YTeBLDiroK4wAwY9pOcg0VM3E/0H+j3sW/1WP9MfVd01PTM9zw+a9GS7uqurq56P+niq4LquCwRBEARBjD3/GXYGCIIgCIJQAyl1giAIgsgJpNQJgiAIIieQUicIgiCInEBKnSAIgiByAil1giAIgsgJpNQJgiAIIieQUicIgiCInEBKnSAIIoc4jgM3b96E9fV1KJVKMD09DYVCAQqFAkxPT8PKygrs7+8PO5uEYkipEwRB5JCzZ8/CK6+8ApcvX4apqSk4ODgA13XBsixYWVmB69evw9LSEmxvbw87q4RCChQmliAIIn+USiXY3d0FXdfhl19+6fv73NwcWJYFAACWZcHs7GzWWSQGAHnqBEEQOeaTTz4J/P+33nrLO//jjz+yyg4xYB4adgYIgiAI9ezs7Ahf+9tvv8GpU6cGmBsiK8hTJwhipFhbW4NCoUCTuAbMP//8450///zzQ8wJoRJhpV4qlbyZk0HHzZs3A9N1u93IdHNzc8peJk/Mzc2Fltn09HRgmoWFhciyvnLlSsZvMTl0u11YX1/3fQM2w7jRaCh7Tlw7FDnicBwHtre3YWVlpa8eLiwseO/kOI5QnmXzt7W1BQAAjz76aKqyGmUajYZweZRKJVhbW5Mq8zgcx/HKWdM0OHr0qJL7jhNXrlzx1es0MEM07Oh0OoHpVlZWEqWLxBXEtm3XNE0XAHyHruuuZVmRadvttqvrel9a0zRd27ZFszBR2LbtVqtVqTKzbdstl8t9aYrFottsNjN+g8mhXq+7mqZ55W0YhmsYhnQ7EQHfV/bQdT3y/tVq1fcumqZ571MsFn330jTNrdfrsXlOmte80263+8o07tA0za1Wq6mfXalUvHuKfMM8gss+bftsNpuJ9GOtVkuULgyplmPbdt/DRZUFfuFyuZwow5MGVs5xYEOgXC6T4TRA6vV6aEO0LMtnzGqalvpbyCoBfEQJcN5gKBaLbqvV6rum1Wr1GehxSoGUeji4veIyb7VabqVS8RlarK4lrUt8nTVNU8VrjB1BCliFcYONblHFrNLAkG45ONOi8IWoQrhNAtiIqlQqsWn4yjGpDTYr2u12bJ22bdsnkNMas7zSrdfrbqvVij2YEo4yCnnPLa592rbdp9ijhBCviETyy45JgC/3KHka1AtnGIb081qtFskH1w3sdVbhaPLtIq5XjIeXETLpgpBW6rgwkqSb1O4eWfgGKNIrwlv9k9xgs4I3cKO6RLE31m63Ez9T1pK3LCs2j/w1ce/CwJ5OVJo0Sijv8HVIRJhjp0pGlrbbbU95TPK34J0lbJymdTZlnbCgdGmHV6SVOhZQIvDeyiRXJlnwWEtUhaMutWzhvfQ4JYuVZprvI+tR8O01rP7geibqJYt6jaTUw+E9NBElgOuSyJCc6/oVepqu+zzA6rumaX3tOI3Die8lOjSNnbe0vVSZLGm7du0a9Ho9AACoVqtZPDIX8DMfdV2HmZmZ0OvOnDkDAACmacLm5mYm+Ztkbty44Z0Xi8XIaFyzs7Og67r3+9atW4mf67qu8Gx6x3Hgs88+A4DDehFWf/ilTQAwkTOhh0G32/XkIgDAU089FZsG1yXLsqDb7cY+Z3l5GXq9Hui6Djs7O6F1YRK4evUqABy2ifn5edA0zfvbt99+m/i+v//+u+/3k08+KZTu7t27vt9p29/AlToWLPPz84N+ZG7ghX/YkotOpwPLy8sAQAo9S/hvwwvZMPjvJyKIVcAb06urq8Lp7t+/P6gsERw4ituJEyeE0r3xxhu+3z///HPotY7jQLlcJoX+P/b3973QuOfOnQOAw2VljOvXrydeNvj9999753GGPo+o8yaKtFJ//PHHfb/jhNPFixeh1+uBpmlw6dIl2cdNLI7jeJUPAODkyZN91+zv73sWeL1eJ4WOYOtQw9b1p+Hg4MA7f+aZZ2Kvf+KJJ3y///77b+V5wjBj2jCMSGMat+m//vor9t5Y8L344osJcpg9bJ0/L8iHxQ8//OCda5omrASOHz/u+/3nn3+GXvvFF1/AwcEBaJoWqtBLpRKUSiXBXMsxyDaYhK+++goADpUnK+/Tp0/7rvnpp58S3ZuPry9i6AelS7teHiCBUn/sscd8v6OEU7fb9QIcfPTRRxNtIcqCu3Jwl0yj0YClpSVPoY+CkBpVRD0gUZJEOsOK88cff1SVnUAajYbnpb/77ruR17700ku+3999913s/W/fvu37/frrr0vmcLiIGGKD5tdff/XOX375ZeF0Dz/8sNB1+/v7cPnyZQAA2NvbC5S/+/v7sLu7O3CjTHUbTAIfcOeDDz7w/v/UqVO+LniR+h8Eb+iz3lORPPHpVPRkD7T7fW1tDQAOuyLOnz8/yEflDl7oa5rm+9iNRsMbQyeFHs4jjzwy7Cx4YGN40GxsbADAYduLi+k9MzPjm+uytbUVOW7vOI7XtgEO6+C47PA1NTU17Cx47O7ueueDMDI+/fRT7/zpp58OjFi2tLSk/Lk8o9QGv/76a+8cG7K8DE0SARIb+seOHRNKh5235557TvrZmIEpdWYBAgB8+eWXg3qMMCrCa0YdquNU37lzxztnVnyn04GVlRVS6AFsb2/D+vq6r1uYNSyscFgI1KRgL3vU4mY3Gg1v6ObDDz8USnP+/HkwTdP7febMGVhbW/ON93W7XWg0GnDkyBFvSE2mDjqOA41GIzD8bKlUgu3tbWVhUAEOnQq8VzhTnnzPieM4sL6+nmkYZSwvVNehTqfjMxqyIMs2mAR+ghzuteC74Hu9XmjY8zCwTFhcXEyUTsmcM9np8nhJRdj0e7b+b1SWsaQNrxl3qA6WgSNIBR203v8Qft0pHwmNLRVh6z7b7bavHtRqtUTPi4sCFgRetqIi1GcYrO0lCfLUbDaFotYZhiG8Vl6mHWmapiSkMb+Ons8r+3bsm+H3TRNDQAa8jFAGfvlqmnqskqzboCx8+wtqrzjQl+yy06Dw3LKHKl2ZKBZjnEDjK52KeNeTBl7vOOhKkAcsy/IFOKpUKl45VioVnyJm0diSMspKnX+OTPALBha6fOx3bGiWy2Wh9t1qtdxiseiapuk2m02fodFut/vizasyWFutlvcumqa5tVrNk031et0niA3DyDSKHf9s2QhiSepfFmTZBmVh+Ypa189/E03TpO4v4oTFHapkgnKlbtu2Z/kmESpEvyXOvAc+gAQZTcHwgiVoAxIVnsEoK3VeIcvWDSx0w2K/8+XKAnikBddtTdOU1W1eueM6Efaeg4bPh6ycxL2OoxZIJos2KAPvhUe1Oyx3ResF7r0WfT+cTtWmW6mVOi4kJhgovntycBxuHlzxyHAKBpeTyh0BsVIX8TiyUOr8M2TjWGOFHhf7nVfAcdeLEvTNVIJDXA+r2xp39cp6rHzatHHCB8kg26AM/FBHlKGYZK8N1+0PmSxq5OJ0qozYREqdb9C8cOIb+yiM84wrfDzioC527NEQ/wd3ufL/mqapxCvD46EiCjoLpc53H8q8J/YYRJTMoMZ1sbGggnq97nmMfJ3QNM2tVCqZ93alEeY47Sga9Vm0QRnYtxcxdPFOhSKIbsoTlU5VXXfdhEo9bCMLZgmPsvU4DsQJf1yJaMJc/1gwG+9lZVir1Xz7D6QRLEkUtOzmPLLwilm2/eH6JOJNYa9G1fyOpLtABoEnwVWrVU8pNptN33ubppmZcud7RWSNcjwha5SG37Jsg6Lw7U5ETmKDXcTr5t9Zph3gslKFMqXOC5VRmbgxjogE98ee1aRPmOMVDD97Gs+8tSxLycxbPJFRpJs4ibCQIc0uiEkVKd7hSgU4L0llCe/R6rrulTee/Y7nCGQx+z2pMMf1bpTafdZtUBTWLkSNJyxbRXpCZA38oHQqy0GZUmf/p9LiUMm4LGnD47VhXhO22LNaijOq1Go1t1Kp+MqLCRRcJ2u1mrJ9zUWFa5LdDUXhBVGS4ZikSl2lVx12zzSeqGmafcKSfQf+/23b9mZnZ0FSJaDK4BkUWbfBOHhDQ2Z+Bm+sxnWLJ+2BU70zG48Spc5ncJS6g3jGRamLLnXBY2u03Wo/zDsehEeDl33JXK9amPHdyEkUkwqlrmpuxyAMBR7WvrJS4BjsbYvKDdzTM4pj6UEMsg2KPlvW6ZHpVZPZHjsqnUoSRZTDcYLfe+89ADjcVjUsXOT+/j4sLCxAoVCAubk5X6QqFimNjy7F/10FOzs74B4aMQM5RCMIxSGyMxvAYbziYrHo/W40GkqjceUBvKWoSl577TXvvNfrxdZXfietV199VVk++HjWAMlisOM2K9r2+HcKi13O2jSO7BbGvXv3vHOZTTFEefDggfJ7yhC3p0MQnU4HPv74Y++3ruvw/vvvK8/bIBhkG4yDRZDTdV0qUhsO1RoVmW9vb887LxaLwvub8OmU1/MklgCe6AEQvawFz5QFzlup1+uBC/dHabwoK2TXO2JrL2osNWh9Lm+B2rbtmqbpfYsgb7LZbLqmafZ1T4V5PXgJET50Xe/rrlMJX09VIxOBiu9VifJo8bIyEfg0SXtrcK9Pkol/YXVP5n1E75kG1hMwLPnCtwmRCY1J1u8HyVt8aJqWyQTbQbbBKPi6lGS8mpeXUd+Jv06m/fHfVHWvS2qlHtcAmcBggoJ1fxmG4fubbdu+wDVZV4JRQDb4ATYC4gQnr4yxIsVj9LzQazabviUpLC2f37CKyXcN8zSbzVThTEcBPGs8rJuOL/coQSo77o7Xi6eZV8HnMS6gjG3bvuujhJ6MkSp6z3FGRgng+sBP+IsjaO4Ar+hUr74YNXjjqdlsuq1WS+oQWWWA5a/okA4eglE9FKREqUdZvbZt+yoQE4TFYjHQWuTH1CaNJBNh8AzkKMHJvhv+XqyxM8VcLpd917B0QUZD3OxS3gvE8JV7HJflBSm3oN6PpEI8Dt6oSut5WpbV5xEGfZN2u933zlEGGTb+g+onvqeqKHWjRlxPhGVZ3lK7oJC8MoYvexYvQ/jn5xls7Ko4guotbq+iyjlpOlESfV3cXSczSYxXXEHe3bC7x4YF7krHXnEQuGeDr4BB6cKUerlcjvSWg6x+RpTSdt14QTKoip0Vtm33GWO6rvf9n0gXm6xS57+9CqMo6F342O+4rolECAvb6CLsnoZhjGWvTRyWZfUZ4CJHsVhM5FWzdskbR5Oi1EWGH2SPIEcIGw66rscOjfC9njLpZEj0dfnKITuOx1fWoMYrIwTzQtzM/DCirNGg7xKk1PngEEmIExRRf+c99XH3zNgGITgimmma0l2mrKFHwZerymhUrnv4XSqVSqiCr1arUkLItm23Xq+7pmkG1nXDMLzNP/II9tCjDmYQVqvVVOXB6lJYPvJM0PCwSqUed/8wJxcP14mmkyXTrxs3eWHcu2NHHazUmfeQZvwyqVLnx9TpWx8SFqmRIGRhE1p5JkWpTzoPQYbcvXvXO8fLBgD8SwdOnDiRSZ4mkd3dXSgUCt7varUKjuPELsfodrtw+/Zt2NvbgwcPHkQu9QiCfyb/7JWVFan75BHHcbzyLBaLcO7cuSHniBhnbt26FbrMkMg3idapJ4Vfmxe0bvDOnTsAcCjUwta7E+kxDANc1wXbtqFWq8GFCxfgyJEjoeuTHceBtbU1KBaLcPXqVVheXoaNjQ2wbRtarZbwc11uXb9lWWCaJly4cAEWFhag2+2qer2x5OLFiwAAoGkafPPNN8LrXQkC0+l0wLIsOH369LCzQgyBTJU6C6xiGEbg35mnQhZmNszMzMDq6ioYhgG9Xg/efPPNwOvOnj0LW1tbUC6X4d69e7C6ugqLi4upFM/s7Cxsbm6CrutwcHAAn3/+eeJ7jTuNRgO2trZA0zTY29uTCpRBEJgbN24AAMCzzz475JwQwyAzpd7tdqHX6wFAf0Q6gMOIc4yTJ096541GY/CZm3A2NjYAAODg4KCvvLvdrmdsvfPOO31p79+/n+rZzDCYZE/96NGjYBgGHBwckEInUsEiDJqmSb09E0pmSp0PKXn8+PHY61mX79ra2kQLfJWEhWxcXFz0QhUyBR8EVuCdTsd3fVCY2n///TcyTyws6NTUVOR1eWZ+fh52dnZoyIlIzbVr16DX68Hq6uqws0IMi6xm5PFBOIKWsuHoPAD5DUIxLKIiyvFrO/FyODYrW9M01zRNt1qtuqZpeqFmWbqg9bRhEeXa7bavTozajlMEMW6wAEJhGwbR7PfJILOvyxRK1JpaPg68aZoju+PbOIKDfAQZTPzf+eUwOC48i/fODAM+HR9fQCT2u8w6boIggolqZ1EHGdP5o+C6rqvW9ycIgiCyhC0XNU0TLl26FDmevr29DW+//TYAALRaLWU7TBKjQaaz3wmCIIjBUCwWYXNzM3aC3OrqKpTL5YxyRWQNKXWCIIgcIKOol5eXB5gTYpiQUicIgsgBL7zwgvC1x44dG2BOiGFCY+oEQRAEkRPIUycIgiCInEBKnSAIgiByAil1giAIgsgJpNQJgiAIIieQUicIgiCInEBKnSAIgiByAil1giAIgsgJpNQJgiAIIieQUicIgiCInEBKnSAIgiByAil1giAIgsgJpNQJgiAIIif8FwppVYDtV1iQAAAAAElFTkSuQmCC;" vertex="1" parent="WIyWlLk6GJQsqaUBKTNV-1">
          <mxGeometry x="180.78" y="649.38" width="228.96" height="30.62" as="geometry" />
        </mxCell>
        <mxCell id="HX48B-1rYJLwdNwCFjf0-88" value="&lt;span style=&quot;line-height: 107%;&quot;&gt;&lt;font style=&quot;font-size: 12px;&quot;&gt;&lt;b&gt;Объем выбуренной породы&lt;/b&gt;&lt;/font&gt;&lt;/span&gt;" style="text;whiteSpace=wrap;html=1;" vertex="1" parent="WIyWlLk6GJQsqaUBKTNV-1">
          <mxGeometry x="460.26000000000005" y="624.7" width="270" height="24.68" as="geometry" />
        </mxCell>
        <mxCell id="HX48B-1rYJLwdNwCFjf0-91" value="" style="rounded=1;whiteSpace=wrap;html=1;absoluteArcSize=1;arcSize=14;strokeWidth=2;" vertex="1" parent="WIyWlLk6GJQsqaUBKTNV-1">
          <mxGeometry x="188.52" y="750" width="210" height="40" as="geometry" />
        </mxCell>
        <mxCell id="HX48B-1rYJLwdNwCFjf0-92" value="" style="strokeWidth=2;html=1;shape=mxgraph.flowchart.annotation_2;align=left;labelPosition=right;pointerEvents=1;" vertex="1" parent="WIyWlLk6GJQsqaUBKTNV-1">
          <mxGeometry x="400.65" y="760.63" width="34.81" height="20" as="geometry" />
        </mxCell>
        <mxCell id="HX48B-1rYJLwdNwCFjf0-93" value="&lt;b&gt;Объем циркулирующего раствора&lt;/b&gt;" style="text;whiteSpace=wrap;html=1;" vertex="1" parent="WIyWlLk6GJQsqaUBKTNV-1">
          <mxGeometry x="438.91999999999996" y="755.63" width="213" height="25" as="geometry" />
        </mxCell>
        <mxCell id="HX48B-1rYJLwdNwCFjf0-96" value="" style="shape=image;verticalLabelPosition=bottom;labelBackgroundColor=default;verticalAlign=top;aspect=fixed;imageAspect=0;image=data:image/png,iVBORw0KGgoAAAANSUhEUgAAAQQAAAA6CAYAAABWDydjAAAIW0lEQVR4nO2dz4vTzhvH3/vhe9fQm4iI6UHxsAerp11hL2b9gReVFK8Kmh72IOIuXT1tXbdF3JPbLijsrVW8blEE99AgulZoQU+SIuIxpX9Cvod+Zj7TNknbpE2b5nlBIW0ymcmT6Tvz43kmc5ZlWSAIggDwz6QLQBDE9ECCQBAEhwSBIAgOCQJBEBwSBIIgOCQIBEFwSBAIguCQIBAEwSFBIAiCM7Qg6LqOubk5x8/58+cd06ZSKde0pVLJ18XMMrlcztV26+vrjmnj8bhr2kajEeCVhIPI2tvyQKVSsSRJsgB0fAqFgms60zStQqHQk06SJKtSqXgpSqTwajvDMCxN03rSJhIJyzCMgEofPqJob0+CYFmWlU6ney52UBKJREfaWq3mtRiRo9t26XR6oHSmaXakk2XZMk1zzKUNP1Gzt+cxhMuXL3d8v3XrlqfzZLNZzM/Pey1G5Oi2c/d9GJS9vT3EYrFRFGmmiZq9PQvCsWPHPKVrNBqoVqsAAFmW8ejRI69FiCQnTpzwlO7jx498W9M0LCwsjKpII4P1sZeXlyddFM4s29sOz4Jw6tQpT+nevXvHt/f29rxmH1mOHz/uKR2ztSRJ2NjYGGWRZpqo2TvQacdms4mtrS0AgKqqoVHNsKPrOj58+AAAePbsWSiarmEmzPYOVBBev36NVqsFANjc3Awy60iTyWQAtLto9+7dm3BpZp8w29uXIMiyzLd///7temyj0cDq6iqA9kCi1y5H1Okeu/n796/r8aVSiT+tqIs2PFGzty9BiMfjfLufs8Xz588BtPtUd+7c8ZNtpOkW0j9//rge//jxYwCAoijURfNA1OwdSJdB13Xk83kAwM7OTqj6VGEml8vBMAwAbbsT42UW7B2IILA+VSKRQDKZDCLLHpaXl13dSf1+dF2fyHU5IQ7gptNp6qKNmVmxty9BGOSiy+Uy71Ntb2/7yY74F3HsxokXL16g1WpBkiQ8ePAggFLNLlGy9//8JD558mTfY1ZWVgBM3jnj/fv3E8t71MTjcd40taPRaPBZHOqi+SdK9h5rl2F3dxeGYUCSJDx8+HCcWREC6XQawGS7aFFipuztJxAim812BHCImKbJIyKz2ayvgAuiE0VRuM0VRenYV6lU+L5piCDtriOj/gRRt8Jkb7/4aiEcOXLEcR9zQpJlmaYZR8zRo0cd97EBXPIEHR2RsrcfNRHVUTyVYRj8t/39fd+qRXQiPnXFJ1axWOQx+9Med2+H3TVNA7NqbzvGMobAnJAURcGVK1fGkQVhA3OKWVtbC+20V5iYRXuPXBBEJ6RsNjvq03tm1v0QmFMMddGCYVbtPXJBYH0qTdNo4ZOAEJ1iMplMqKe9wsBM29tvnwPCGML+/j7vU4VhuaiwIo7dKIrCl7Nz63sbhmGpqsrvT7FY5PtM07Q0TeOzQrIsT2TsB1M6huDF3mFlpILAKpTTYqu1Ws2SZblnrTlG9xSVJEk0ZWmDWEHFxW6d1qas1Wo9i+JKksT3dd+TSYl6GARhEHsXi8Uee4trMRqG0bNWo9uapMVisWPqkx2vaZplGIbt/ZVlmQ90GobRcY8lSXIs+0gFofsPboe4+KSdEdjILYCOpxjxH92zOwAsTdNsjzUMw5IkyVJVtWfVa3EfqzysFYEJzKuHQRD62ZvBWstu9Zj9SZ3EwDRNLgTZbNYyTZO35rrvkWmaHSLTPevBriGRSLgK/cgFYZBKJF5kN7Pm6DEOuitov6e5WCHFisqeMiJiK40Eoc2w9ma42VF88Dm1gpk424kPExPx3GJLofucrEvYr9y+BxUTiQTfDmsMeNg4c+ZMx/e1tTXXgS3RnfbHjx8d+9zCdOlethnW3v2o1+tIpVJ9j3nz5g0A2Lr9q6ra89v8/Dy/n6urq6jX6wDai7bk83kcHBz0LbdvQRAzCGsMeNgQbT7sytWfPn3i269evXLcLwp91PFj727q9TqWlpaQTCahKIrjcW/fvuX52fk4PH36FJZl9Yh2MpmEpmkAgBs3bkDXdaRSKRSLxYFm/XxFOwKzFUUYJtot0uFhoeiqqtpWkMPDQwBwfSVfFPFqbxFRDHZ2dlyXm//+/TuAzlXJBmVjYwPfvn1DtVrF9evXkUwmBw668i0IRHhgTUgAWFpa6tmv6zpfBPfixYuBlYsxij/dtNItBuMkFothe3sbi4uLaLVaQ91LevtzhPjy5QvfPnv2bM/+z58/8+0LFy4EUqYo8PPnz8DEgJHJZCBJEoD2S5bFh4EbJAgR4uDggG/bDRiy8QOnfivhjfv37w8tBizCknXxhmF9fR2Hh4f49esXVFVFq9XC3bt30Ww2+6YlQYgQ7BV6ToNZrPJdunSJ/1YulweqSIQzmqYN3TIQu3Tlctn2mFwu1/NbqVTC5uYmn1F4+fIlZFlGtVrFkydP+uY7EUGgChY8jUaDLwN27ty5gdLs7u7i6tWr+Pr16ziLNpOIdfz27dtDp7958yZv8q+srHQ0+ZvNJlKpFLa2tjpef8CmMwuFAh8wjsVi/P0Q+XwepVLJPeN+zhWjRvRUJMek4BAdYZziFOxcmMlb1BuiA5iqqj37xRXFnDwVxXPgX4ct5tQnSZKjU5Kd85F4Hrc4lUAFwc7nepAPCYN/WEAObNxaGWJcg6IoZHePiOJrJwr9YnpEarWapaoq/99IksRjGJzyk2W5I1ahO27CTejnLGs653p0Xcfi4iIAoFKpkNccQQTA1A4qLiwscI8rgiCCYWoFAQCuXbs26SIQRKSYakE4ffr0pItAEJFiascQCIIInqluIRAEESwkCARBcEgQCILgkCAQBMEhQSAIgkOCQBAEhwSBIAgOCQJBEJz/AxHiUG9mlIceAAAAAElFTkSuQmCC;" vertex="1" parent="WIyWlLk6GJQsqaUBKTNV-1">
          <mxGeometry x="227.92000000000002" y="754" width="137.26" height="30.62" as="geometry" />
        </mxCell>
        <mxCell id="HX48B-1rYJLwdNwCFjf0-99" value="" style="rounded=1;whiteSpace=wrap;html=1;absoluteArcSize=1;arcSize=14;strokeWidth=2;" vertex="1" parent="WIyWlLk6GJQsqaUBKTNV-1">
          <mxGeometry x="217.41" y="853" width="160" height="60" as="geometry" />
        </mxCell>
        <mxCell id="HX48B-1rYJLwdNwCFjf0-100" value="" style="strokeWidth=2;html=1;shape=mxgraph.flowchart.annotation_2;align=left;labelPosition=right;pointerEvents=1;" vertex="1" parent="WIyWlLk6GJQsqaUBKTNV-1">
          <mxGeometry x="377.67" y="870" width="34.81" height="40" as="geometry" />
        </mxCell>
        <mxCell id="HX48B-1rYJLwdNwCFjf0-101" value="&lt;b style=&quot;&quot;&gt;Концентрация выбуренной породы в объеме раствора&lt;/b&gt;" style="text;whiteSpace=wrap;html=1;" vertex="1" parent="WIyWlLk6GJQsqaUBKTNV-1">
          <mxGeometry x="426.65999999999997" y="833" width="213" height="25" as="geometry" />
        </mxCell>
        <mxCell id="HX48B-1rYJLwdNwCFjf0-103" value="" style="shape=image;verticalLabelPosition=bottom;labelBackgroundColor=default;verticalAlign=top;aspect=fixed;imageAspect=0;image=data:image/png,iVBORw0KGgoAAAANSUhEUgAAAPMAAABcCAYAAAC7vIMEAAANx0lEQVR4nO2dy28b1dvHv3n17snUOxYV8tBVK0WCSbIJi1Rqx6Qs2MC4CCEkELazQ4W2pGSBCKIOlxU0E5RILIrGRkiwqE2cSEHCBolgpLFEV/RY/AEzsiB/wPktwpnOOL7NxbfJ85FGGidnzjz2zPdcn+ecGc45B0EQU8//jdsAgiCigcRMEDGBxEwQMYHETBAxgcRMEDGBxEwQMYHETBAxgcRMEDGBxEwQMYHETBAxgcRMjIRCoYD5+Xlsb2+P25SxUy6Xnd/Ctu3I8iUxR8zMzEzXw0/6Wq02YsuHQ6PRwPz8PFZXV/HSSy/hypUr4zZp7CwuLuLGjRt47733sLi4GN2z5kSkMMa4oigcgHPkcjluWVbX9JqmOWklSeLVanXEVg8H0zS5JElcURRumuZA11iWxfP5fKx+h25YluW8K4ZhhM6PxDwEGGMeMfd7KavVqpM2ioc6CQghS5LUtSBrxzAMLsvywL9bHHALulQqhcqLxDwkVFUdWKC6rnMAXJblEVk3fMQLOoggq9XqqdbMWREz5yeFv9+CrxPUZx4Sr7/+unP+888/90y7s7MDAHj33XeHatOoKBQKqNfrUFUVS0tLXdM1m02kUik899xzkGUZpVIJmqaN0NLJIJlMIpfLodVqYXd3N3hGERYwhAvLsjz94G64m+RhSuVJQjSVB+kyqKrqqYHz+fxU1syWZXFd1z0tMvzX2tI0jeu6zhljXa8X70GY2plq5iGRSCScWqbVaqFcLndM99133wEAcrkcEonEyOzrxJ07dzAzM4Nmsxk4j0ajAcYYAAw0cr23t9ez9p4GGo0GFhcXkc1mMTs7C8YYOOdgjOGtt95CsVhENpt1nnUnkskkFEVBq9XCwcFBIDtIzEPkxRdfdM5/+eWXjmm++uorAEAmkxmJTb144oknAJy8WEGpVCoAAFVVx144jYqPP/7YKcC+/PJL5/dLJpO4efMmdF0fKJ+rV68CAH744YdAdpCYh4i7ZioWi6f+Xy6XwRiDoiiYm5sbpWkAANu2kUql0Gg0ADwWs6BQKGBzc9NXnoeHhwDCFQjThvvZdirAMpkMOOe4efNmz3zOnz8PAKjX64HsIDEPEXdTmzHmiEbw4MEDAMCNGzdGbhtw0sSvVCpYXl7G9vY2Ll68CFmWYds2VldXcf36ddy9e9dXnsKj6amnnhqGyROJoijOeRiProsXLwKAU8v7hcQ8ZJaXl53zb7/91jm3bRtbW1uQJGlsXlGZTAalUgkLCwvIZrN4++23AQCpVAr7+/vQdR1//fWXrzyD1ipR08sTr9+RSqV83euDDz5wzlOpVNfxET+0F/yDQGIeMm6h7u/vO+diMCSdTo+1b7mysoK9vT2USiUwxsAYQyKRwG+//YZMJnNm+r1hWFlZgWmaUFUV9Xod165dC1wwCI6Pj31fQ2IeMmKUEjiptcRI8SeffAIAeOedd3pe38m/u9FoIJ1OO39Lp9OBm3e1Wg2rq6u4du0azp07B1mW8ejRI1y4cAGbm5uhRrbHCT9xiAp07O3t+b7f8fHx+McJAk1oEb4QHl4AuK7r3DRNDoCrqtr3Wrevt6Io3DAMns/nuWVZHldARVF822UYhjO3qes6r1arXJZlblmW4y/ea468E+J75vN53/ZwPp3zzO7nm8/nB/ZDb8ft1hskDxLzCHA7hiiKwnO5nC8/bPGCC9G5cb8Afl9+y7K4qqrOiyNeSoGu675FKQqXsyJmUTDjv4CaMLifZRD+P6oavtls4uDgAN9//z2Ojo7QarU8/1dVFbOzs3jmmWegqupYpmLGhWhq1+t11Ot1MMYgSRLS6bSvfFqt1qn5aLfDxcOHD305YCQSCU+T8p9//vH8P8jct+hj//33376vnUbEvDoASJLUNV2tVsOPP/6Ijz76qGuaX3/9FQAgy3IgW0L3mW3bxp07dyDLMrLZLCqVCs6dOwdVVaGqqvMFK5UKisUibt26hVu3boW97dTx5ptvOuetVgu3b9+O/B7tYgx6fZh+8uXLlwEAv//+eyhbAODff/8NncewuXTpknO+tbWFQqHgjF/Yto1yuez4n29tbfUc2xAFoHuqyxdhmgWmaXqiXRRF6dg00nWdS5LkpBukrxg32sMie/nptuNuenYCIfupUeJudvrxMWaM8VKp5HlPur1Pk0a7P3anQ9O0vr+HH5/2TgQWs2VZnh++X3/B3R84i2Lm/HF/UtM0X9dNk5g59/dSur9bv2OShW0YxilRi/GRQewWhWCYQIvAYnYbLkZA+yEGfs6qmIMybWIWo+T0nAdHaCPMIFqgPnOhUPB0/Dc2NgZyLnjllVeC3I6YMtLpNBRFQaVSicQbKu40m03HG/DDDz8MnE8gMb///vvOuSzLA4/KLi0tBZ6UJ6aLnZ0dSJKEV199NdIVKOOGbduO//79+/dDedz5FrM7XhXAmVwZgujP3NwcfvrpJwDwRGYRjxFRa/V6HYZhYGVlJVR+vsXsDhYAgOeffz6UAURvms2mE/MM4NS60+4QxcPDw4lyv3QLenl5eardQ6PEtm0UCgVcuHABrVYLpVLJt89BR/x2sttH7OKy1M2kgg6jumKgq9tI8CRiGAZXFOWUB9tZRCxgqOt6pPqZ4ZxzP+JvX8zd5+UEQQyJUB5ggT1VQlKr1ULFq0Ydz0oQk4AvMbcPYlCsK0FMDr4CLYIETA8DMcVFEMRjIouaIk6PJxBEWPxUWr6a2U8++aTnMzkDEMTkQKPZEUI1MxE1fvRFzewIoYKNGCe+p6ZUVfV8jsum4AQx7fgW87PPPuv5/PDhw8iMGRSaZyaI0/gW88svv+z5LHxvB6HRaJBYCGJI+Bbz3NycZ8GxYrE4sPN8e5BAUMQ887AOCtEkppFA7pwbGxuez59++mnfa0SkCEEQwyGQmNPptGcgTKxK2Iv19fVTy+8SBBEdgQMtvvnmG0+gxfXr17G5uXnKkaTZbCKdTmNrayu4lQRB9MW304gb27axvr5+Sqii1rZtu+OugKqqUr+UICImlJgFzWYTu7u7+OOPPzwL/QEnq/wvLCw4u1lcunQJi4uLFHFFEBETiZgJghg/tKUrMVQ2Nze7Oue41y/rl558EwYgsgWIiLFgmibXdZ1rmubZKgj/7aggtn8dJ+4tT/Hfrg29dnkolUqe9LlcbuzfYRogMU8x7i1/JEnybAfj3rdp0B1HhonYsQED7nQhFo6UZXkE1sUDambHhPv373uWa11ZWcG9e/cAAIwxrK+vj8s0AN7dTB49etQ3/dHREYDTDkpEd0jMMUBRlI4LqLvFHcUWq2FYWlpy3IAZYz1dgMvlMlqtVqA9rM8yJOYpRvioDyLUTvP9o8a9+8nBwUHXdA8ePAAA5HK5odsUJ0jMMcbtjdceh+6X+fl5PP3006HycEfc7ezsdEzj9uF/4403Qt3vrEFijjG7u7vO+eXLl0PllUgkQovZHXFXr9c7riF3cHCAVqsFTdOQTCZD3e+sQWKOKc1mE3fv3gVw0qf2W8vVajWk02lHcLOzs57/r66uBlplpl9T+7PPPgMAvPbaa77zPvOMezidiB7Lspw5Z0mSuGmavvPQNM2ZGqpWqzyfz/NcLscZY07emqb5ztc0TWeKqv16xhhNR4WAxBxDxBxtUCFzflIgGIbBZVl2HFBUVeWSJHFVVT1z2n4R899o23hwbW3NszEe4Q8Sc8xwO2f08rLyg3u3ybW1tdD5uW0slUrO34XIGWOh73EWITHHCLdIwtScAsMwPJ5YiqJwSZK4LMvcMIzAXmVud81cLufcy/2Z8A+JOSaIJmpUQhYFQ3uf2TTNUH1mgaiFJUninD/uo0fVmjiLkJhjgKjVohIy5yd+35qmObWvpmmOT7VlWTyXy4USnrsVIQIx/Ax8McZ4Lpfz9L/dm7m7fdPbCx7TNJ0WhxgDZow54wPth6IofG1tbez+7f0gMU85jDHnpe02cCQCMsKIT1XVgQIkBsXd1Bb2CyH2wzRNLkkSVxTF6V+Lfr3bRlFIKIriuV4M5onWjDvf9jwYY06rYdK7ACTmKUfUMN2avJZlOS9jGBRFiXzKyF1zSpI0cM0natD2gTJZlj1CFIWYu5AzDKPnvdrF7M5n0mdyaa+pKaZWqznLNBWLRRSLxaHdaxiBGu6FHtPp9EBLSZXLZTDGoKrqKQ+xQaKxvv76a9y+fTvQslXuBSwnEfIAm2K++OKLcZsQihdeeME5z2QyA13z559/Agjmnrq9vY2joyNf3nDNZhMbGxuQJKmrP/nEMO6mAUH4QfSNB3EscTeP4RoI6zWP3Z5eHIP258cJ1cxE7Mnn8+Cco1qtYn9/H4qi9IynVlXV2arIsizouo5sNovV1dURWu0fEjMxVZw/fx4AcHh46PvapaUl3Lt3D61Wa2BhJhIJZDIZyLKMra0tNBoN3/cdFSRmYqpYWFgAAFQqlY61a6ewSjdXrlyBJEmoVCqBor6Oj499XzMqSMzEVJFMJpHP5wEAV69eRaFQQK1WQ6FQwPz8PD7//HMnrdg73F2LJxIJZwWT9vXFOonbtm1sbm6CMQZZlrG0tBT5d4qMMffZCSIQuq57PLbalxVu9wBzD5i5B8aE40kvDzBZlp3wz0mGdrQgiJhAzWyCiAkkZoKICSRmgogJJGaCiAkkZoKICSRmgogJJGaCiAkkZoKICSRmgogJJGaCiAkkZoKICf8DYR873nFS7bsAAAAASUVORK5CYII=;" vertex="1" parent="WIyWlLk6GJQsqaUBKTNV-1">
          <mxGeometry x="229.42999999999998" y="858" width="132.07" height="50" as="geometry" />
        </mxCell>
        <mxCell id="HX48B-1rYJLwdNwCFjf0-104" value="&amp;nbsp;- степень очистки бурового раствора," style="text;whiteSpace=wrap;html=1;align=left;" vertex="1" parent="WIyWlLk6GJQsqaUBKTNV-1">
          <mxGeometry x="411.23" y="875" width="220.57" height="30" as="geometry" />
        </mxCell>
        <mxCell id="HX48B-1rYJLwdNwCFjf0-105" value="" style="shape=image;verticalLabelPosition=bottom;labelBackgroundColor=default;verticalAlign=top;aspect=fixed;imageAspect=0;image=data:image/png,iVBORw0KGgoAAAANSUhEUgAAACYAAAArCAYAAAAUo/pwAAABVUlEQVRYhe2YwW3DMAxF6c7S9lB0AmqC3rpBb/S1o8jLMBt0CXqX30MdV3Zjx5QUNAc9IIdAAPVM0d+GOwCgO+ThvwW2aGJempiXJualiXlpYl6amJcbiI10GnrqQ6DQddQlvxAC9cOJxiNlUA2DCoOIQMSQqLBkLQpNaz/r0XZKAagjZgqZNxXopU1VEjECXzGrIGaIfKATFsGJmOh+1XKxtBMcsd2H8wUw5No51hCzyIePx0PxXfn4/Fpa4jI1rs6iTPOzMfgZVIsLU1kMNzkG/QZiBo2/Qiy6M/w+8sVMIUdiIpNMsTRQ696NZ7LEdPF4EeyO0Dx7vq76xVYJTnuT7Uz7lOIc45enjZWRho9P+pr/C72/OQq7O7Z4Nm53TJ1vE2vyhv/PESW7mi7EWWJW6Bbk2JRhzKtAZTDL6n3MTwe072MumpiXJualiXlpYl7uVuwboVUEX40CDWEAAAAASUVORK5CYII=;" vertex="1" parent="WIyWlLk6GJQsqaUBKTNV-1">
          <mxGeometry x="400.81" y="879" width="17.67" height="20" as="geometry" />
        </mxCell>
        <mxCell id="HX48B-1rYJLwdNwCFjf0-106" value="" style="rounded=1;whiteSpace=wrap;html=1;absoluteArcSize=1;arcSize=14;strokeWidth=2;" vertex="1" parent="WIyWlLk6GJQsqaUBKTNV-1">
          <mxGeometry x="170" y="970" width="230.77" height="80" as="geometry" />
        </mxCell>
        <mxCell id="HX48B-1rYJLwdNwCFjf0-107" value="" style="strokeWidth=2;html=1;shape=mxgraph.flowchart.annotation_2;align=left;labelPosition=right;pointerEvents=1;" vertex="1" parent="WIyWlLk6GJQsqaUBKTNV-1">
          <mxGeometry x="401.71" y="984.46" width="29.49" height="55.54" as="geometry" />
        </mxCell>
        <mxCell id="HX48B-1rYJLwdNwCFjf0-108" value="&lt;b style=&quot;&quot;&gt;Концентрация выбуренной породы в объеме раствора&lt;/b&gt;" style="text;whiteSpace=wrap;html=1;" vertex="1" parent="WIyWlLk6GJQsqaUBKTNV-1">
          <mxGeometry x="446.87999999999994" y="945" width="213" height="25" as="geometry" />
        </mxCell>
        <mxCell id="HX48B-1rYJLwdNwCFjf0-110" value="- средний размер частиц выбуренной породы с учетом диспергирования, см" style="text;whiteSpace=wrap;html=1;align=left;" vertex="1" parent="WIyWlLk6GJQsqaUBKTNV-1">
          <mxGeometry x="447.74" y="981.48" width="220.57" height="30" as="geometry" />
        </mxCell>
        <mxCell id="HX48B-1rYJLwdNwCFjf0-112" value="" style="shape=image;verticalLabelPosition=bottom;labelBackgroundColor=default;verticalAlign=top;aspect=fixed;imageAspect=0;image=data:image/png,iVBORw0KGgoAAAANSUhEUgAAAlgAAACeCAYAAADuSHRcAAAgAElEQVR4nO3da2yT1/0H8K/TSpP+MmTq47CYdNJiIHQvgFwWugJbqR1KblA6QUvRYtDKRatUJZDASKup67oJSi6EraNqaCZgLUkHaimJE0qTQNe01YDYgU7aiInDiyVOS9wS/Ghvqub8X2R+Zockvj2+5vuRLMXJczmP7dg/n/M7v6MRQggQERERkWpSYt0AIiIiomTDAIuIiIhIZQywiIiIiFTGAIuIiIhIZQywiIgCJMsympqa8PDDD2PBggUYHh6OdZOIKE7dH+sGEBHFM7vdjpaWFvzhD3/A6Oio8nuDwRDDVhFRvGMPFhHRNGw2G8rLy6HVavHCCy9Ap9PFuklElCDYg0VENI2cnBy0t7cr969du4YTJ07EsEVElCjYg0VEFKClS5dCo9HEuhlElAAYYBERBSgrKyvWTSCiBMEAi4iIiEhlDLCIiIiIVMYAi4iIiEhlDLCIiIiIVMYAi4iIiEhlDLCIiIiIVMYAi4iIiEhlDLCIiIiIVMYAi4iIiEhlDLCIiIiIVMYAi4iIiEhlDLCIiIiIVMYAi4iIiEhlDLCIiIiIVMYAi4iIiEhlDLCIiIiIVMYAi4iIiEhlDLCIiALU398f6yYQUYJggEVEFACbzYajR49CCAEAcDgcqK6uhtPpjHHLiCgehRVg1dXVQaPRBHxbuXIl9u7dC7vdrlb7iYgiRpZlrFmzBhqNBrm5uRgYGPD5+8mTJzF//nxoNBq0trbGqJVEFI80wvN1LAx2ux2FhYVwOBwAgPz8fLz//vvQ6/UAJt6k7HY7XnjhBZw/f17Z5u2338aiRYvCPT0RERFRXFFliHDRokVYtWqVcv+HP/yhElwBgFarRU5ODjo6OlBbWwsAuHLlCgoLC9mbRUREREknIjlYmzZtmvZvW7ZsgcFgADCRw/C73/0uEk0gIiIiihlVAiyn04menh4AgCRJyMjImHZbvV7v09vV09PDJFEiIiJKKqoEWCMjIxgbGwMAZGdnB5VXNTY2hpGRETWaQURERBQXVAmwuru74XK5AAAZGRnQarXTbivLMoaGhpT7qampSE9PV6MZRERERHEh7ABLlmV0dHQo92fKvwImZhz29fUp95977jmfhHgiIiKiRBd2gOV2uzE4OAjAf/6VLMvYu3ev0ttlMpmwa9eucJtAREREFFfCDrB6e3uV+lcz5V/Z7XZs2LABXV1dACaCq7Nnz844nEhERESUiMIOsG7cuKH8PDn/amRkBB9//DF27tyJrKwsdHV1IT8/HxaLBZ2dnQyuiIiIKCmFVcldlmWfXqnpSJKEF198ETt27GBQRUREREkvrB4s74R1SZJgtVohhIAQAm63GxaLBfn5+XC5XNizZw+MRmNYldvb2tqCWvtwpptOp4PNZgvn8omIiIimFFaANTQ0pCSsT86/0mq1KC4uxuXLl32Wx3nkkUfQ1tYWzmmJiIiI4lpYAdbp06eVn4uKiqYd/tu1axdMJhMAwOVyYdu2bSH1HpWWlio9ZOHeRkdHkZOTE9qFExEREc0g5ADLe3kcAFi8ePG022q1WlRUVCj3XS4XGhoaQj01ERERUVy7P9QdvZfHMRgMyMvLm3H7jIwMSJKkDCkODQ1BluWESXrXaDSxbgIRERHFkW+++Qb33z91KBVygOW9PE5mZibmzJkT1P6Dg4Nwu90JE2CFMdmSiIiIZpmQhwivX7+u/DxT/tV0QgnKiIiIiBJBSAFWMPlXHt4zDgH/i0JPhWUaiIiIKBGEFGB5L48TSP4V4DvjEPC/KDQRERFRogopB8s7WFq1ahX0ev2M29tsNlgsFuW+yWTC6tWrgz6vp0wDERERUTwLOsCaPDy4dOlSv9vv2rVLGR6UJAk1NTUJk9xOlIxSUlKi+mVlfHycM3GJaFYJOsDyHh6UJAlGo3HabW02G3bt2oUrV64o23/44Ycs8EkUY+Pj47FuAhFRUgsqB6ulpQXbtm1T7qempgKYWPTZQ5Zl2Gw2FBUVITc3VwmuduzYgc8++4zBFRERESU9jfAzTiDLMjZs2ICurq6gDrxixQp8//vfh9lsxk9/+lMOCRJR2Ox2O1paWvDWW29h586dqKysDPoYTqcTP/nJTzAwMKD8TpIkXLhwAbm5uWo2l4hmMb9DhFqtFp2dndFoCxHRtNra2nDgwAHcuHEDLpcr5Byy5uZmJc3BY/Ji9URE4QprsWciomgpLS3FJ598guPHj4ecMC/LMi5fvoyrV6/6LP7e2dnJwsdEpCoGWEQ0a1y6dAnf+c53mAtKRBHHAIuIZgVZlnHkyBGcPHkSDz30EJqbm30m6BARqYkBFhHNCna7HX19fQCA/v5+bNmyBUajEVarNcYtI6JkxACLiGaFnJwc3L59G3a7HfX19dDpdLhy5Qoef/xxBllEpDoGWERJzm63Y/PmzXA6nX633bp1a1ALpq9cuRKbN29GU1MTRkZG/B7f6XRi586dsNvtalxaSBYuXIjdu3djcHAQBQUFcLlc2LdvH9xud8zaRETJhwEWUZKSZRmVlZV45JFHYDab/a4ZCgAnTpyAEALNzc0+vzeZTLh7967PzLt//OMfePHFFzF37lxs374der0ey5cvR3t7+7TH1+v1MBqNWLFiBSorK2OaA6XVavHee++hoKAAfX19MQ36iCj5MMAiSkJ2ux1GoxHXrl3DrVu3UFxcHNT+jz76KAwGg3K/qKjonjIG6enpKC4uRmNjI/r7+5Gfn48rV66gpKQEdXV10x578+bN+PTTT/H+++/DaDSiv78/uItTkVarRXl5OddJJCLVMcAiSjJ2ux2FhYWYO3cuzp49q8oqCllZWTP+fdGiReju7kZBQQEAoKqqasYga9GiRfj444/x1VdfoaioKKZBVkZGBiRJitn5iSg5McAiSiJOpxOFhYUYGxtDTU1NyMHVyMgIxsbGAAAGgwF5eXl+99FqtTh06BB0Oh2AiSCrtbV12u31ej1Onz6Nu3fvoqioCMPDwyG1NVxDQ0N48MEHWcmdiFTFAIsoSciyjLKyMjgcDlRXV4dVTLO7uxsulwsAkJmZGXCV85ycHJ/hyCNHjsyYPJ6Tk4P9+/fD4XDAbDbHJNH80qVLqKioYCV3IlIVAyyiJPHGG2+gq6sLBoMBW7ZsCetY169fV36eKv9qJps2bVJymrq6unDp0qUZt9+yZQsWLFiArq4uNDY2+j3+jRs3AACfffbZPQGZ0+nEww8/DI1Gg9raWmW9QlmWsW3bNixfvlwZjpRlGVVVVfjRj36E0tLSgK+PiCgQDLCIkoDT6cTRo0cBAKtWrQpoxuBMx+rp6QEASJKExx57LKj9J+c0nTlzZsaFmfV6PVatWgUAOHr06LRDhTabDWlpaaiqqoIQAu+++y7mzp2L2traKbc/ePAgbDYbgInhy8LCQgwODmLx4sXQaDTYs2cPdu7cic2bNwd1fUREgWCARZQETp06BYfDAWCiBykcvb29yrFSU1ORnp4e1P7p6elITU1V7vf09PitwbVx40ZoNBo4HI57SkR4eAqFepeKEEKgqqpK2Uav1+Pvf/87hBB4/vnnfQLNzZs3++zf2NjoN3mfiChUDLCIEpx371WgCekz8QzBARO9YfPnzw9q/zlz5iAzM1O5PzY25rcIaV5enlIWYqZerEDZbDZkZGSE1ZNHRBQOBlhECc679yqYhPSpyLKMjo4O5f7SpUvDbl8gvIMyh8OB3t7ekI4jyzKamprgdDqxfft2NZtIRBQUBlhECc47IT0jIyOsulfeCyKHkn8FAG63G4ODg0Hto9VqkZGRodz3l7c103GeffbZoAurEhGpjQEWUQLzTkgHwu9xGhoaUsozhJJ/NZVAj7NkyRLl50DytoiI4hkDLKIE5l0QFAAWL14c1vFOnz6t/BxK/tVUbQp02NIzuw8ILG+LiCie3R/rBhBR6Lx7nCRJ8hlmC5YsyxgaGlLuhzob0btNQGjDli6XC0NDQ8jNzQ2pDckkJSUlpOFSIoqcb775BvffP3MIxQCLKIF5z/gL1+T8q1CDtdOnT/sEBJ4SDP546meNjo4CQEzXJ4w34+Pjs2pBalmWUV9fj9LSUgbZCaSvrw/nzp3D7t27uTICOERIRP/lvTxOdnZ2SGvzybLsU2JBjbIRNLvY7XaYTCb83//9X1jLPVH0ZWdnw+1242c/+xnu3r0b6+bEHAMsIgKgzmzES5cuoaurS7n/3HPPhZTHRRNSUlLw7bffzpreK7vdjqKiImzatAmVlZWz5rqTSU1NDR588EEUFBT4pBzMRgywiOie2Yih5F/JsowjR44ow4MGgwHPPPOMam2k5OZ0OlFUVISVK1cyuEpwf/zjH/Hd734XTz755KwOshhgESUw71mDnsTwUHgvjxNq/tXk3quGhoaweq+4jM3sIcsyzGYzhBA4cOAAg6sEp9VqceLECXz99deorq7G+Ph4rJsUEwywiBLY5IWVQ+WdLB9K/pXT6URFRYXSe9Xc3Ix169YFdQw1Z0RSYmlsbERXVxcaGhq4vFGS0Ov1+OUvf4m3334bdXV1s3ImLAMsogQ2eWHlUGYVTl4ep6ioKKj8K0/vw8DAACRJQnNzMzZv3hx0O27cuKG8CatV5JTin81mw4EDB2A0GrF69Wr2XiWRZ555BgaDAa+++iqsVuusC7IYYBElML1ej1WrVin3vRPVA+VdngEIrlip3W6H0WhEZ2cnJEnChQsXQgquJgt3TcVkMFsS3I8cOQKXy4XCwsKwlnmi+OPpxfr666998jNnCwZYRAnOOyF9aGgIsiwHtX9DQ4MyNBdoWYWRkRFUVlYiKysLV65cwZ49e3Dr1q2wahZ9/vnnys9FRUWzPsCaDWw2GywWCx544AEYjcakDyZnI6PRCEmS0N7eDpvNNquCLAZYYZJlGU1NTVi+fDkWLFiQNOuntbe3o6ioCBqNBhqNBjqdDocPHw76wzsW5/R8+HuWXvEcq6ioCDabTdU2b926FRqNJqbPfV5eHgwGAwBgcHAQbrc7oP1kWcbLL7+MkydPKr8bGxvDRx99dM+2N2/exMcff4y9e/di8eLF0Ov1qK+vx44dO9Df34+6urqweh+8ZzFy9uHs4em9CrXuGsW/hQsXIjs7G1999dXs68USFLT+/n7x29/+VkiSJAAoN4PBIIaHh2PdvLC43W5hMpkEAPGb3/xGuN1uIYQQFotFSJIkJEkSVqs1bs957Nixe56Xybc9e/ao0u7W1ta4ee5ra2uVtrS2ts64rdVq9fsYTXXLysoSK1asEFVVVeJvf/ubqu23Wq1Cp9MJAMJsNovx8XFVj5+INBpNUj8O3s95TU1NUl/rbLdt2zah0WiEJEni6tWrs+a5ZoAVJKvVKgoLC0V9fb2or6/3+aCK9YdsuLwDndra2nv+7vlgVjPIUvOc3kGGv9tU5wrG8PCwMBgMcfPce7fHbDbHrB2h8jx3BoNBDA0Nxbo5MZfswZUQQtTV1QmNRiMAiHPnziX99c5mbW1tIiUlRQAQhw4dmjXPNQOsMJnN5rj5kA2X51pMJpPSizSZ9wehGteq1jk9gVh+fr6wWCw+x7JarSI/P1/V3kbv5z1ennu1n5toGR4eFgsWLFAl8E0WyR5gud1uUVBQIAAISZJEb29vrJtEEWSz2URaWpoAIIxGoxgbG4t1k6KCOVhhWrp0aayboIq2tjYlF2emafqehEWHw4H9+/fHxTllWcbevXtRXV2Ny5cvo7i42OdYOTk5uHz5Msxms/I7h8OB3t7esNq9c+fOkPaPlMrKSpjNZjgcDpw6dSrWzQnYqVOnMDAwAJPJFHePKUWG98xVluRIft/73veUcjLXrl2D3W6fFblYDLDCFMyU9nglyzIaGhoATBR4NBqN0267aNEiZGdnAwAsFkvISeNqnlOr1aKzsxOVlZUznvPgwYNKMniobDYbtm3bBrPZHHQhzWjwXOOBAwdUT+iPBKfTiddffx0GgwEnT57kzMFZYnh4WJm5ypIcyW/OnDnIzMyERqMJa8WJRMMAK0HU1dVBo9Ggrq5O9WN7L3Hi79ukVqtVKmy7XC50d3cnzDk9/+RAaJXCPT1lqampOHjwYEhtiDS9Xo+enh6kpqZi48aNsNvtsW7StDwFSu/cuYPTp09zUehZ5PTp08rP8+fPZ/2rJOf9Hg4AZ86cYQ8WzQ7eb3aBfJv0Hhbt6OgIqXRDLM7praSkBDk5OUHt88Ybb6Cvrw9nzpyJ6+U8PEGWJEkoLCyMyyBLlmU8+eSTGBsbw6effhpW/axkk+wFRmVZxtDQ0Kz4gKWphVKvLxExwJrlPG92HhkZGX6/TXoPi/b19QX9AR6LcwL/y/swGAxB90B5lvOorq4OOjCLBb1ej+7ubpjNZjzyyCNoaWmJdZMU7e3tyMzMxNKlS9Hd3c1FnSNMlmW0t7ejuLgYOp3Opzbcnj17ol6/ze12Y3BwULmvdh5rvF1vovEsnVVcXIy0tDTVHr8lS5YoXxpu3boVcL2+RMYAa5ab/GYXrFDG02NxTu/hvfPnzwfVA+V0OrFx40ZkZ2dj165dwTY3ZrRaLV566SV89tlnsNvtcfHB4nQ6cfLkSXz66adhFycl/5qampCZmYmSkhJ0dHQoeU/AxP/R4cOHsWTJElit1qi1aWRkBGNjYxE5dqDXG+oEl2TnefyKi4vR0dGB0dFR5W+TH79weiDHxsYwMjISs17Mjo4OPPPMMz4BpEajQVZWFurr61UL/hhgzXKT3+wC+TaZkZEBSZKU+8EuMBztc9rtdmzYsAGDg4Po6ekJumL0/v37MTY2hpqamoQMCBYtWoRf//rXcTGsqdfr0dLSwqrdESbLMtasWYNf/epXqK6uxt27dyGEgNvtRnNzM3Q6nbKty+XCvn37YtajoMZEoZmut6WlJa6uNx7JsozHH3982scvLS1N2TbUxy8eJoR1dHRg3rx5KC4uxpdffomenh6Mj49DCIH29nbcuXMHlZWVmDt3rk/gpdFoUFNTg/Hx8aDOxwBrlhsaGvL5lpdM57TZbCgqKkJWVha6urrgcDjwxBNPoL29PeBjeEoyHD9+PCGGBonsdjuys7Nhs9lw4cIF7NmzR8lx1Gq12Lx5My5cuOATdHR1deHSpUtRaZ/3DEI1+Lvep59+GhcuXPAJErq7u3Hp0iXmgWHi8cvJyYHVasUHH3yA3bt3R/zxi8VMwsOHD6O0tBS3b99GWVkZPvzwQ2U5NWCiVNCFCxcwb968KffPysoKOi+SARYlHafTiQULFiA3Nxfnz5/3+duVK1dQUlIS0GxMp9OJ8vJymM1mlJaWRqq5RIpwE9ydTieKioowMDCA/fv3T/ulICcnByUlJT7nuXHjRsIFHE6nE8XFxQFdb3Fx8T3XO9t5Hr+bN29i//79yM3NnfK1l52dPeXrJVFYLBZUVVVhfHwcRqMRr732GlJS7g1/Fi5ciGXLlkGj0UCSJFy5ckXp4XriiScYYFF4YtGNq/Y59Xo9BgYGIISA1WrFjh077tmmqqoKbW1t0x5DlmWUlZUBQNyWZCCarLq6Gg6HAwaDAVu2bJnxA2Hjxo1RbFlkVFdXY2BgQFkgfKbr3bRpUxRblhheeOGFgB+/jRs3JuTMVqfTid27dyvDe+Xl5QHVXVOjl40BFiW1nJwcNDY2or+/H/n5+T5/a2homHaqcLRKMrz55pvQ6XTQ6XQzBnxE/niGs4UQWLlyZdCvW+/hkkA0NTUhLS0NOp0Ora2tUe/9slgsPtcbbB21eMgJiqXJj18or5dIampqwrx586DT6XDu3LmQX19WqxUDAwMAAIPBMG0vHTAxAevWrVuqvZYZYMWBtra2exLqJt+qqqoATPS8+Ns2mGKkoSSPT86hCvYfLRbnXLRoEbq7u2EymZTfTVfuIVolGWw2G/bv3w+XywWXy4Xy8vK4mOlHiUeWZRw5cgRCCEiShIqKiqCCpWAL73peu6Ojo3C5XKioqIjqa3fyShChXO/8+fOj1iNjsVhw3333+X3vDuSm0+nCngU5+fVSXl4e0ddLsPr6+lBdXY3bt2/D5XJh9+7dGB4eDulY/f39ys/+AvEvvvhCmYClxjUywKJZQ6vVoqKiQrk/VRewp5xDvJdkSElJUeXNmrfAb/Gcn+S9tl92dnbQszRD2SeWPNcrhMCyZcuCbvuyZctmdf21mzdv3vP4BRNghbJPIrh48aJSmkKNa2SAFQdKS0shhJjxVltbCwCora31u62/Nfm8ea/zBwDXr1/3u493j1MoUX4szumxevVqn16syb1nniV8urq6MGfOnBk/cL3XInQ4HMo3Yo1Gg61bt/ptS05ODg4ePAhJkiBJEo4cORJwN70n8ZK36N0i/WESToL7xYsXlR7ewsLCgMqJnDlzRvk50H08PK9dnU4HSZLQ0NAQ8Gt3/vz5YZV5AXyvd6aF4r15rx4R6D5qKSkpwbfffqvK63B0dBR5eXlhtae7u1sJJIqKigLKSfJe3qawsDCs9SP9vYdnZ2fjwIEDSEtLgyRJOHz4cMhLaQUaSHvWRR0fH4ckSXj11Vcxd+7ckM7pwQBrlpu8RlSwSxiE8s03Fuec7tyxzsPYvn07RkdHMTo6ypmKFBJP5W0hhLJwur8gzel0oqenB0KIgBLip/Lss8/i9u3bGB0dxbp166LWm+G5XgBBXe8nn3yiXK+/hO5kJsuyMrtakiQ89thjfvdR4/USbCD97LPP4ssvv8To6CjWr18f8vP16KOPwmQyQaPRoL29HVarVQkUPWRZxtatW3Hz5k1IkoQ///nPyMvLC/s1wgCLfGbXDA4O+i0g593jFOo3wVic08NT2HSqb1GB9CZ6bq2trcp+BoMBw8PDyt9OnDgRcvuIghHK8GBvby8cDgeAicke0VxoOz09HampqSHvH8rwoHeic7SvN96EMjxotVqV10s4vUkeqampSE9Pj0qQq9VqcfToUSxcuBAulwuFhYWwWCxKkNXR0YGCggJ0dnYiLy8PH3zwgWpfGBhgkc+wmWcJg+l4vskA//v2mCjnnCzR8k4osaSkpNzzTTkSgh0e9E5wLisri3rP6Zw5c5CZmancDyRFwFuww4PeCfGe652tvVdA8MODU71ewn38fvCDH4Q1xBishQsXwmq1KpPE1q1bp+SxlpeXY8mSJbh69SouX76sSs+VBwMs8kn+drlc6O7unnZb72VuSkpKQp5lF4tzAr7DCxUVFQm59A3FN88btxAi4kGW0+nE0aNHlXMEUmqhsbERXV1dKCsrw5/+9KeoBxueYXrPeYeHhwNOEfDkyXhfrz+e6/35z38ek+uNJ5Mfv0Dyk7wfv+kKdAbi888/V86bkZER9fderVYLo9GI/Px87N69G0NDQxBCoL+/H8eOHZuxfEPIBIWltbVVABAAhMFgEMPDwxE5T21trQAgamtrI3J8t9stTCaTACBMJpNwu91Tbmc2m1W71lic02q1CkmShNlsDus4QkTvuafEoNFoBAAxPj6u/Oy5jY+P+93X3zZTaW1tVc4lSZLo7e0NaPuysjJx9+7doM+nlra2NqXdJpMp4LZ47xfI9Xq2j/X1xou2tjaRkpKiPH5Xr16d8XXn2b6srEyMjY2FfF632y3WrFmjPHfvv/9+SK/3cM9vMBjEP//5z6idmz1YYUqk5QJmotVq8Ze//AUGg2HadclsNhssFgskSZq2AKfdbsfy5cuh0UzUa3nzzTcjfk6bzaacs7KyctrhRrvdjo0bN2Lr1q3MkSJVeWYAiv/ONhwfH49KT4n3TEBPT7CYpsesvr4e69evx6FDh3DixImoDtFM5j2TMJAcTA/vmYCBXO+6devi4nrjhfdMQJfLhYsXL067ref1cvDgQZw4cSKsGXVutxuDg4PKRIxI1tCayrFjx9DV1YWxsTFYrdagJlWFJSphXJKyWq3CYDD4fFM1m83C6XSqfq5I92B59Pf3i/z8fCFJkmhublZ+39zcLCRJEvn5+aK/v3/a/T29Td43f20O95zePUn47zez+vp6nx6x5uZmsWLFCp/jh4s9WDSTYHqxQunBGh4eFgsWLLjn/+2ll17y6a2xWCxi+fLlIj8/32+PT7S43W5RUFAQcE+UEBPXu3DhQr/X297eHnfXGw9Cefz89XAFymazibS0NAFAGI3GsHrDQrFt27Z7/h8lSRJPPfWUaGlpEf39/RHp1WKAFSTvYS1/t9bWVtXOG60AS4iJa6yvrxdZWVnKtWRlZQUUnLS2tgpJkpR9JEkKKPgI55xC/C+AmvwcZGVliR07dgiLxRLQcYLBAIv88X5TVzvA8h4eNJlMYnh4WFRWVgqdTufzIbJ9+/a4DDTq6uqU9p87d87v9XsPDxqNxoS73ljzHh40Go1iaGhoxsdPzYDD+9yHDh2K6vCgEBMB3rx58/x+Zq9du1a0traq1j4GWBRRtbW1DD5o1gqkFyvU/KutW7cqx6+pqYn6h1a4vHvgysrK/LY/0tc71fHdbreorKwUGo1G5Ofni3//+9+qnjOavHtxov16qaurEykpKQHlfanJ7XaLw4cPi6KiItHW1iasVqtyf/L/pvfNaDSKO3fuhH1+5mBRRAU7BZsomUQqF8u78GOgxTbjjV6vx6pVq6DRaPzOJPQuFBqp6z1+/Dh6e3uRlpaGxYsXY2RkBA0NDdi5cydqa2tx9epV9Pb2RqX0htomv14CKS6qFk9hUyEEiouLkZOTE5XX6jvvvAODwQCr1YqWlhZlBnpFRQXa29sxPj4Op9OJv/71r9i7dy90Op2yb3d3NxobGzE+Ph5WGxhgUcR4/qmfe+65oFdqJ0pGapVt8C4Umsj13MrLyyFJ0rQLr3t4FwoNZe3BQF28eBFz585FVlYWmpqaUF5ejqysLFy/fl1Jzk60QBbwLRQa7XUEPYVNH3jggaAXlQ7V4cOHsWXLFixZsgSvvfbatAn66eHZKAkAAAY5SURBVOnp2LRpEw4dOoTbt2+jpaVFKUPx+eefh90OBlgUEbIso6ysDJmZmXG9aDJRpEWiFyucdQTjSU5ODkpKSvDVV1/NOCMwGusIemrkLVu2DC0tLfjFL36BOXPmQJZlDA8PRzSwizTv2YOBrj2olu7ubrhcrqj1XnmvKRjs/8bTTz8Ns9kMjUaDJUuWhN0WBlikuvb2dhiNRixbtgxnz55N2Dd/onikxrpw8cTTi/X666/D6XTe8/dorSNot9tx7do1fPTRR8jNzVV63T1L84S7wHGsTH69RHMdRs/wYDR7r7744gvcuXMnrGN4hlG5FiHFDVmW8fTTT+Ps2bN4++23UVdXx+CKaBLvYUJP/axg3sibm5uV4Z6VK1cm/PB7Tk4OqqurMTg4iFOnTt3Ti9Xc3KwMD65cuTJi6wgODw9jdHQUxcXFPsvBXLx4EaOjowFVPY9Hkx+/aL5ePvroI3R1dWHfvn2RqZQ+hezsbJSUlECj0eDVV1+dcnHnqciyjFdeeQUWiwVNTU3qLJkTdpo8ERH5NVXJhmBnEIZSPypRbN26Veh0Op9r8lyvRqOJ+PV6zn/16tV7fr9gwYKEnEHoXUE9FjP41qxZI0wmU9TrXrndblFVVaWUhli7dq1oa2u7Zza72+0WNptNvPLKKyItLU2sXbtW/Otf/1LtMWIPFhFRlIWa7O5ZFw6AktOSLF577TVkZ2dj3759SmV3z/UKrxlokSDLMoaGhlBcXIzc3Fzl957hyRUrVkSs5yySGhsb0dnZGfUZfADw/PPPw+FwhF0FPhRarRY1NTUYGxtDU1MTUlJSsGfPHmWSgueWm5uLAwcOID09HQMDAzh//nxA63kGSiNC+S8nIqKgeQdW4+PjuO+++4IeIkxmTqcTGzZswEMPPYTjx49H7XGx2WxYu3Yt9u3bh8rKSuW8FosF69evx1tvvYX//Oc/eOqppxIyDyva6uvrceDAAZw/fz5qQ4PxiD1YREQxoFbJhmSi1+vR1dWF4eFhVFVVRe3xuXjxIoQQ0yY2d3d3M7gKUH19Pd555x309PSok8eUwNiDRUQURZN7sWbzB9B0ZFlGfX09SktLfYbsKL719fXh3Llz2L17N4NRMMAiIoqqyT1XDLKIkhOHCImIoogBFdHswACLiFTV3t6O5cuXKzN1li9fjuHhYZ9tZFnG4cOHlRk7Go0GOp0Ozc3NMWp1dHmCLAZbRMmLQ4REpJrKykrU19ff8/va2lpUVlZClmUcO3YMv//97+FyuaY8xrlz57Bu3bpIN5WIKKLYg0VEqqirq8PcuXPhdrvhdrtRUFDg83e73Q6TyYQLFy7gww8/hBACQghYLBafley9100jIkpU98e6AUSU+Gw2G2RZxksvvQRgYgjQ27vvvovOzk689dZb9yyYW1xcjJKSEpw4cSJq7SUiijQGWEQUtpycHJ8q254Fcj1+/OMf4+WXXw5obcqlS5cyL4mIEh4DLCJSXXd3N0ZHRwEAZrMZtbW10wZNnmVKgP+tYk9ElOiYg0VEqpJlGefPn1fub9y4ccYeKe/ertTUVKSnp0e8jUREkcYAi4hU5R0wGQwG5OXlzbi9d2/XqlWroNfrI95GIqJIY4BFRKoKJmAKtreLiChRMMAiItWEMzwYSG8XEVGiYIBFRKrh8CAR0QQGWESkGg4PEhFNYIBFRKoIZ3jQZDJh9erVEW8jEVG0MMAiIlWEMzxYVFSEOXPmRLyNRETRwgCLiFQxeXhw/vz5027r3dvF4qJElIwYYBFR2KYaHpyJd29Xdnb2PesTEhElOgZYRBQ2Dg8SEfligEVEYePwIBGRL40QQsS6EUQ0e7S1tWH9+vUQQsBkMuG9995jDxYRJR32YBFRVJ05cwae73UcHiSiZMUAi4iixul0oqenBwCHB4kouTHAIqKo6e3thcPhAMDZg0SU3BhgEVHU3Lhxg8ODRDQrMMAioqiYXCsrKysrhq0hIoosBlhEFBVutxuDg4MAJvKvMjIyYtwiIqLIYYBFRFExMjKCsbExAEBqairS09Nj3CIioshhHSwiIiIilbEHi4iIiEhlDLCIiIiIVMYAi4iIiEhlDLCIiIiIVMYAi4iIiEhlDLCIiIiIVPb/ujiCxHollSYAAAAASUVORK5CYII=;" vertex="1" parent="WIyWlLk6GJQsqaUBKTNV-1">
          <mxGeometry x="174.63" y="984.46" width="214.69" height="56.54" as="geometry" />
        </mxCell>
        <mxCell id="HX48B-1rYJLwdNwCFjf0-113" value="" style="shape=image;verticalLabelPosition=bottom;labelBackgroundColor=default;verticalAlign=top;aspect=fixed;imageAspect=0;image=data:image/png,iVBORw0KGgoAAAANSUhEUgAAADMAAAA3CAYAAAChMHI8AAACUElEQVRoge2Zz3HrIBDGP715pTg+eFTBqoI8X3xyCfiYBl4RyjUl+JSLUAeqIOODUS+bgx0L/AcBEmMmwzejAx5Y9sei1YILZmb8Ev15tgNzKsOkqgyTqjJMqsowqSrDpKq/Uw0URTGHH86ylZKTYVKqU3/VNsswqSrDpKoMk6oiwfR4rwoUhetToaoqVLsd3tsWfei0HFWKZU0MYHioZnXTTbGSNQsa+hIJljcd7YoMw8wsWWgwVI94qGqmS39i4UEUH+bKuTGW0xhzAYR0myo+jBTaNhPs6NfVOLdFiA4jhfa+uC4xMzMrrslvbPQEoDvkxcLMykge49GJ+53pG+y7nwZh9eI3fLEstVaHfWNP2lFh+maPgWWL9cLTwMsKpDW7fWP9BkWE6dEMYQFt1/BlwWIJPTboDlCW7hFhFA4DC8qlN8odfeFoCU08mPYTH5eGwOY12kwXRYNpPwcUiA2CWPojvowfStgCHAmmhc5CvmnskWgFm6U4MMaKErbeaewsdUCnt8ulNYlEgZmcks8ytirGIxwBxkzJY6tps3M0XhiB/28jlsJLlYc1iFYl+5cwj+w8pzYLrZJvzOD5VbPhxL1TpYsCosI8O4znqfKRFSMq7tGdFybgQHUts+z326azwkxxhJnNxSD/8TPCmFvM71RpLgQJGfSuzQdjbDH3lHy6Ygq7jbnWLDBKCjP7nCNz935MSZZ1zUKYR2IhVVjm01Qwh/711WJX/MPHeMcbERFQltiuNlivX7GY46gDYAJMesoX56kqw6SqDJOqvgG31APKtdMy4AAAAABJRU5ErkJggg==;" vertex="1" parent="WIyWlLk6GJQsqaUBKTNV-1">
          <mxGeometry x="432.4599999999999" y="985.98" width="15.76" height="17" as="geometry" />
        </mxCell>
        <mxCell id="HX48B-1rYJLwdNwCFjf0-118" value="&amp;nbsp;-&amp;nbsp;пластическая вязкость, Пз" style="text;whiteSpace=wrap;html=1;align=left;" vertex="1" parent="WIyWlLk6GJQsqaUBKTNV-1">
          <mxGeometry x="441.74" y="1013.98" width="220.57" height="30" as="geometry" />
        </mxCell>
        <mxCell id="HX48B-1rYJLwdNwCFjf0-119" value="" style="shape=image;verticalLabelPosition=bottom;labelBackgroundColor=default;verticalAlign=top;aspect=fixed;imageAspect=0;image=data:image/png,iVBORw0KGgoAAAANSUhEUgAAACoAAAAtCAYAAADYxvnjAAACOUlEQVRYhe1ZvariUBicLFuKFrFQ0gXsDUIQsTKNeQAbizyET+Dt4xvYWFlYhiSFYGVrtBe08qexkJP+2+JyD+re1SQncVk2AwEPGc8MM/n5IBIREf4B/PjbBqIiN5o2cqNpIzeaNnKjaeP/Mep5HnRdhyRJkCQJuq5jvV7fccIwhOd5ME2T88rlMsbjcXQhEsBgMCAAvx2WZXHOdDolWZa/5QEg27YjaSVOdDQaoVgsgjEGxhgMw7g7v91uoes6JpMJ5vM5iAhEBNd1Icsy5/m+jzAMs0k0CAIaDod8zRgjwzB4Sq1Wi7rdLrmu++3/LcviXMMwiDH2UvNnkjQ1TYOmaXfpbTYbvm42m/j4+EChUHi5l6IokXhC1+gXbNuOnNBj+o7jRNIQvuvDMITv+3xtmubThG7TV1UVjUYjko6w0VthWZbR6XSe8heLBS6XCwCg3W6jWq1G0hE2eitcr9dRq9X+yH1Mv9frRdYRMvqu2gFBo4/C/X7/KT9p7YCg0TjCIrUDSP54ivuYCYKAv0pVVaXj8RhLL3Gica83kdoBgerfWjuQrPp31070OdHERlzh2yHkdgSMg0TVx6n9dDphuVzydaLagXSGkmdwHIenmbR2ohSGkleYzWb8d5K7/QuZGk2tdmRsdLVaYbfbAYj/bn9EpkbTqh3I0GgYhjgcDnwtUjuQoVHGGPb7PYDPgVpRFKH9MjN6Pp9xvV4BAKVSCZVKRWg/iSj/2JAqcqNpIzeaNnKjaeMXLF/Im/5ecA8AAAAASUVORK5CYII=;" vertex="1" parent="WIyWlLk6GJQsqaUBKTNV-1">
          <mxGeometry x="425.56" y="1017.36" width="18.67" height="20" as="geometry" />
        </mxCell>
        <mxCell id="HX48B-1rYJLwdNwCFjf0-121" value="" style="rounded=1;whiteSpace=wrap;html=1;absoluteArcSize=1;arcSize=14;strokeWidth=2;" vertex="1" parent="WIyWlLk6GJQsqaUBKTNV-1">
          <mxGeometry x="350.26" y="1316" width="146.53" height="67" as="geometry" />
        </mxCell>
        <mxCell id="HX48B-1rYJLwdNwCFjf0-122" value="" style="strokeWidth=2;html=1;shape=mxgraph.flowchart.annotation_2;align=left;labelPosition=right;pointerEvents=1;" vertex="1" parent="WIyWlLk6GJQsqaUBKTNV-1">
          <mxGeometry x="498.01" y="1331" width="29.49" height="49" as="geometry" />
        </mxCell>
        <mxCell id="HX48B-1rYJLwdNwCFjf0-123" value="&lt;b&gt;Максимальный размер частиц утяжелителя, которые удерживаются во&lt;br&gt;взвешенном состоянии&lt;/b&gt;" style="text;whiteSpace=wrap;html=1;" vertex="1" parent="WIyWlLk6GJQsqaUBKTNV-1">
          <mxGeometry x="540.1999999999999" y="1277.5" width="270" height="38.5" as="geometry" />
        </mxCell>
        <mxCell id="HX48B-1rYJLwdNwCFjf0-124" value="M&lt;sub&gt;y&lt;/sub&gt;&amp;nbsp;- коэффициент формы частиц утяжелителя&amp;nbsp;" style="text;whiteSpace=wrap;html=1;align=left;" vertex="1" parent="WIyWlLk6GJQsqaUBKTNV-1">
          <mxGeometry x="526.23" y="1333" width="270.51" height="30" as="geometry" />
        </mxCell>
        <mxCell id="HX48B-1rYJLwdNwCFjf0-127" value="&amp;nbsp;P&lt;sub&gt;y&lt;/sub&gt;&amp;nbsp;-&amp;nbsp;плотность утяжелителя, г/см&lt;sup&gt;3&lt;/sup&gt;" style="text;whiteSpace=wrap;html=1;align=left;" vertex="1" parent="WIyWlLk6GJQsqaUBKTNV-1">
          <mxGeometry x="522.6000000000001" y="1348" width="220.57" height="30" as="geometry" />
        </mxCell>
        <mxCell id="HX48B-1rYJLwdNwCFjf0-129" value="" style="shape=image;verticalLabelPosition=bottom;labelBackgroundColor=default;verticalAlign=top;aspect=fixed;imageAspect=0;image=data:image/png,iVBORw0KGgoAAAANSUhEUgAAATMAAACHCAYAAAB6dL6JAAAWMUlEQVR4nO3dX2xT5f8H8Hd/+SbeFLg4vVjdjdSsS7wgTFISdERYp+mckmnATdRysyGBC2a7JSPGZHIhRLY5DGCQmYwRVlAvgLXDRLegLDGBrB1GTVh146Y9u1gv6jnx0ud3Mc/x6b/t9Kw9pz39vJIldJzuPD3t+fT5+3lsjDEGQgipcv9ndgEIIaQUKJgRQiyBghkhxBIomBFCLIGCGSHEEiiYEUIsgYIZIcQSKJgRQiyBghkhxBIomBFCLIGCGSHEEiiYEUIsgYIZIcQSKJgRQiyBghkhxBIomBFCLIGCGSHEEiiYEUIsgYIZIcQSKJgRQiyBghkhRCXLMqanp9HW1gabzQabzQaHw4HPPvsMsiybXbx1UTAjJRWLxdDf34/Gxkb1Zjhy5IjZxSIa3LhxA8888wwGBwfx+eefgzEGSZLQ3t6OQCCAjo6OjIAmiiJaW1ths9kQDAZNLPm/GCGbJEkSGxkZYYIgMABMEAR2+vRpFo1GmSRJZhePaBAIBBgANjQ0lPN/yWSSuVyunP8fGhpiANSfqakpI4ucg2pmZFNisRhaWloQCAQAAKFQCKurq/joo4/Q1NQEu91ucgnJemRZxpEjRzAyMgK/35+3huV0OtHc3AwAuHv3bsU2NymYEd1u3LiBl19+GQ8fPoTH48HPP/+Mrq4us4tFinDixAlMTEzA6/Xi4sWLGx6/sLCAeDwOAGhsbFR/LwgC6uvry1ZOLSiYEV2Gh4fx9ttvI5VKwev1YnZ2Fg0NDWYXixRheHgYExMTAIDe3l5NtehUKoVEIgEAqK+vhyAIAIBt27ahrq6ufIXVgIIZKdrw8DD6+voAAF6vF7du3aLmZJWJxWI4c+YMgLX3cN++fQWPlWVZDWC8uro6bNu2DQCwfft2bNmypTyF1YiCGSkKfxMIgoBz585RIKsysiyjv78fqVQKwMa1MkmSsLy8nPP7LVu2YPv27QDWamlmfw4omBHNRFHEwYMH1Zvg1KlTaGpqMrlUpFiXL1/GzMwMgI1rZQCwsrKCdDoNILNvzG63q//esWNHGUusDQUzotnk5CSWlpYAAC6XC4cPHza5RKRYoiji0qVL6uO2trYNa1SJREL9AsvuG1OCGD8YYBYKZkST7Jvg+PHjcDqdJpaoMFmWEYvF8PXXX6O/vx9tbW3YvXs3RFHMOCYYDMLhcMBms+Ho0aN5pxzE43F1NrzD4cDY2JiRL6Xk9HwhffPNN+q/s/vGGhsbK2IkEwBNmiXa8BMkBUFg0WiURSIR1tPTw9xud8bkSZ/Px6LRqCnlTCaTzOPx5JTJ7/erx0SjUXWCL/+TPWE0FArlHOdyuVgymTT6ZZUEP/k1+5rofU40GmUej6cirgkFM6KJ3+/PufkDgQATRVE9JhKJZNz8gUDA1BUAfABWAlU0GmVut5uFQiHGWObryp7d7vF42OLiYsYNrQTyajQ1NZXzhbSR7MBv9iz/9VAwIxvK/nb2er1scXFR07Favv3LRQlUyo2bTCZzao18MFNu1KmpKfbWW2+pgViSJOb1equ6Zsa/Br0/lf7aqc+MbIgfzQLWOo0LTZB1Op04f/68+nhiYgLhcLjsZcwmiiLm5uYAADt37oTT6URvby9OnDihjsDy86dcLhd27dqFWCyGixcvYnR0VO0Yj8fjWFhYAFAZ86n04F8DAAwNDYGtVWYK/iSTSbhcLvU5zc3NFdtPCtAAANGAH80CNh652rdvH7xer/p4dHS0qPV8Y2NjcDgccDgcugMhH4Db2tpw/fp17N69G6+99pp6THaQstlsOHv2LD755JOMm5Z//VpG/8plM9eFfw2CIKClpWXD5/CDBQBw6NCh4gpsMApmpOTsdjva2trUx8vLy5AkSdNzY7EYBgYGkEqlkEqlcPLkyYxRSK1mZ2fVm/fvv//GgwcP8P7772cckx2klICXPXdOGc3TGgTKYbPXhR+R1LL0SJZl3L17V32sZT6a2SiYkbLga2/pdBorKyuGnZu/EV0uF3777TcMDAzk1Kj4G/zvv/9GMpnMyRqR3VytxvWn2cuRtDQXs5ulWtdumomCGdkQv6C4nM8BgKamJpw9exaCIEAQBJw/f77ofhp++c3S0hKeeuqpnNoWH6QEQcB3332Hd999N+dvzc/Pq00tM5fsbOa6ZC9H0jJbf3R0VK21VkOtDKBgRjTgFxQDwOPHj8t6vu7ubqyurmJ1dTWjj0srPgAJgoDe3t6cY/g+tVQqhTfffDPv0iy+9mZ2n5He65K9HGmjpnIsFkMkElEfV0OtDKBgRjTgFxQDwC+//FLU841OD8MH2/b29rxBiu9TKzQTnq+9KaOd1U7Le8HXyvx+v64vFDNQMCMbyu7QTyQSRY1OGjmkn91xna82lX1MoaVZfI2m0qclaLXR1BK+VqY1YWOloGBGNDl8+LA652hmZgb37t1b93hlpLBQM69c+I7rQrUpvg9pvWYXX3szu4m5GdndBIXwqYFcLheuXbtWFc1LBQUzokn2ZNj15o7JsozR0VEAxqcJ4qdbFKpN8X1qhUYo+dqbspBalmV0dnYiFouV8RWUHp/Df71pMkpqIJfLhe+++676aqLmLT4g1SjfesdCx5ixlCnf8iQ9x/DLsrxeLxNFkQUCgYpem7geZV1moTWZyntWKYvG9aBgRop25coVdfExv5hckiR1yzIzFpnzAajQOkKt6yyzF1gLglC1gUyhvDfKAnrGGFtcXGQ9PT1MEAQ2MjJS1VsDUjAjuvA3AX/D9/T0FFyEXm58ACpUK9RyDGP/pRLCvymNzHpNpRYKhTLSI7ndbjYyMpKR/aRa2RhjzLhGLSHWNT09jVu3bmFhYQG3b99W+5xEUURzczM6OjowPDxscimt639mF4AQK+B3rALWBhmy52c9evQIsixX1QhhNaHRTEJKIBgMgjGm7uzOT9x1Op2Ym5vD3r17KZCVEQUzQkpo//79eX8/Pz9viRUElczQYHbkyBHYbDZNPw6HAy+++CK6urrw1Vdfac66IIoiWltbYbPZcjIgEFJuygJ7fsmXKIp5m52ktAwNZlevXgVjDKFQKOP3Xq8XkiRlZLn89ddf8eGHH2Lr1q3o7u6G0+nE7t27MT09ve45Jicn1T0BR0ZGTMlySggvEongwIEDZhfD8kxpZr700ksZ6XjzZe+sq6vDq6++ii+//BKLi4vweDx4+PAh2tvbaUSIVCxl6ZCyfjUcDqOuro42SzZARfSZbZSGuaGhAbOzs2oq5r6+voIBjf9bFbOfH6kZfIYRal4ay5Rgxmcj0JpaxW6349y5c2rCv76+vrxNSD4poNGpZwhRLC8vY2hoCEePHjW7KDXDlGDGZyMoZrebpqYmtLe3q4/zLXbmMwRU6046pHrZ7XbU19cjnU7j2LFj1bdYu4qZEsz4kZ5id7vhU7HkS0XDV/PNTHNMatv4+Dj1kxnM8GCWnXu92N1usnPL82mNgf++GQFtuc4JKaVwOIxDhw5RP5kJDA9mfC4pPX1a2Ynm5ubmcrbcUoLYRgMLhJRSLBbDysoKBTKTGB7M+GUeelIRZ+ejz7eNWWNjI41kEkMEg0G0trbi/v37mJ+fR3d3t9lFqlmGBrPs3OvlagbW19fD5XLRSCYpK1mWsbq6ioWFBSQSCQpkJjM0awafn13v7tDZewDm09TUhAcPHugqIyFa2e12XL161exikH8ZWjPj87OXag5YpcwlC4fDmtedalmXWm155gkxm6HBjB951Lt1Fz/hFqC5ZISQNYY1M2VZRiKRUB/r3bqLr90BlTOX7LXXXgMl7SXEPIbVzLL7y/SONGbPK6vm/QwJIaVjWM2MX8JUaK/CjWTX7rSu67Q6m81mdhEIMcQ///xT8PNuWDDjlzDpbRreu3dPzVUGAMePH6e1bwA1bwmBQc1MfgkToK9pyO+SDazVyg4fPlyS8hFCqp8hwYxfwqS3vyy7Vnb+/PmKqpXR1AxCzGVIMOOXMOnpLxNFESdPnlQfh0IhWv9GCMlQ9j6z7CVMxab8kWUZ7733HpaWliAIAi5cuICurq5yFHVTaGoGIeYqezDjp2QAxWWyiMfjeOedd/Dw4UMIgoDvv/+eckQRQvIqezNzdHRUnZKhdSrFysoKgsEg3G43Hj58iEAggCdPnlAgI4QUVLaamSzLGB4exsTEhPq7dDqNH3/8MaeZ+Mcff0AURdy5cwd37tzB4uIiAKCnpwf9/f265qQRQmqLjZW4oycWi+Hll1/OWHKkhdvthsPhwAsvvIADBw5g7969pSwWIcTiSh7Mqsn09DRu3bqFhYUF3L59W53qIYoimpub0dHRQXt0ElIlDM1nVkmGh4fR19enPs63v+GjR48gy3JFLGQnhKyvIjYBNkMwGARjDIFAAEDmXDin04m5uTns3buXAhkhVaJmg5li//79eX8/Pz9Pi9gJqSI1H8yUrev4hfCiKOZtdlpFPB5HV1dXzq5WpHqIooijR48iHo+bXZSKUfPBLJ9IJIIDBw6YXYySk2UZwWAQe/bsgd/vr6i1raQ4TqcTLS0t2LNnD4LBIGRZNrtIpqvZAQCFsg9nIpGALMu4d+8e6urqLDdBV1lNsXXrVjx58oT6Ai2gq6sLu3btgs/nw/3793H9+vWanpNZ8zUzfh9OqzYv4/E4fD4ftm7dilu3blEgs5CGhgbMzc0hlUrB5/PVdLOz5oOZYnl5GUNDQzh69KjZRSkpURTh8/mQTqdx7tw5CmQW5HQ68e233yKdTsPn89VsX2jNBzO73Y76+nqk02kcO3bMUv1IfMaRU6dOWa7pTP7T1NSEU6dOYWlpCe+9915N9qHVfDBTjI+PW+5mv3z5MmZmZigrb404fPgwXC4XZmZmcPnyZbOLY7iaD2bhcBiHDh2yXD+ZKIq4dOkSAP17lJLq4nQ60dzcDAC4dOlSzTU3azqYxWIxrKysWC6QAcDk5KSaqrwc2/HJsozp6Wm0tbXB4XBkpPwOBoNYWVkp+TmtqNTXUXmvl5aWMDk5WY4iVy5WYwKBAPN6veynn35iV65cMbs4ZZFMJpnL5WIAmMvlYslksqR//8qVK0wQBAag4I8gCCwajZb0vFZTjutY7vd+MyKRCOvs7Mx5zW63m42MjDBJkjb192sqmEmSxPx+PxMEgYVCIbOLUzZDQ0PqB8Xr9W76Q6KQJIl5vV4mCELGh0+SJBYKhXI+pKU8t5WU8zoqf1t57tTUVDlfiiaRSER9TV6vly0uLub9v3w/Q0NDms9TU8GsVvj9fvXD4Pf7S/I3FxcXmcvlWremEI1Gcz6YlXAzVRIjrmM53n+9+C/WQmWJRqPM4XDkDWZ37tzRfK6a7jOzouw9Snfs2FGSv+nz+Tac4tHU1IT29vaM3/HZSGqdUdeRf8/n5uZMGwgIh8Po7+8HAHi9Xly4cCHvcQ0NDdi5cyeAta0o5+fnwdYqWnj99dc1n4+CmcWsrKwgnU6rj4vZQKaQgYEBLC0taZriUY7BBqsw6jry73k6nTZlMEYURfT29qo7lp08eRJbtmzZ8HmpVAqJRELXOSmYWUwikVBTluvdcJkXDofVfRz0TPEoRTC1ArOuo57gMDY2BofDAYfDgXA4rOu8/MbfG21kJEkSlpeXdZ2HR8HMYkrZrJNlGaOjowDWAmNvb29Rzy9FMNWj0naXN/o6KmmtFMV8JmKxGAYGBpBKpZBKpXDy5EldzdTHjx+rtbLm5mY8/fTTBY/lWxOb+cxQMCMF8Xue6tmJXs9zrIiu4/pmZ2exuroKYHOvteZTAJHCZmdn1Sar1p3ov/nmG/Xfxe5eXyqVtrt8NV3HpqYmnD17FgMDAwCA8+fP61o90tjYCJvNtuH7IIoivvjiCwBrtbJPP/1UU99aPlQzI3nJsoy7d+8CWPuQtbS0bPgcfiSV1oOuqcbr2N3djdXVVayurupeHbNv3z54vV4Aa8lOo9FozjGyLMPv9+PPP/+EIAgYHx/H888/r7vcFMwshu8o3szIkJ6mEd/pq/cb3Woq4TqaMQhjt9tx6dIlPPvss0ilUnjllVcwPT2t/v/09DRaWlrwww8/wOPx4Pvvv9/0skIKZhaT3fmrV7FNI76T2+/3W3K9qx5mXMdSj2jr1dDQgIWFBXUHtPb2dnVg5YMPPsDOnTsRjUbx4MGDkmSsoT4zi1HSgCsf5sePHxd9Q/AZNwBt3+xKuiG/34+LFy8WV2iLMus68qOX27ZtQ11dna6/Uwp2ux1erxe///47nnvuOfT395etPBTMLEZJA6M0U/hdp7TimzlavtnD4TD6+vrUG5Cy2a6phOu4fft23R3qmyXLMt544w0sLS3h7t27cLvdZT0fNTMtiJ89rmzUUgx+JC2VSmF2drbgscPDw3j99dcxNDSEq1evUiDjmHUd+S8ws0aUgbVa5g8//IB0Oo1oNFr+7LebX0pKKs1m0sDwz+V/BgcHMzI3RCIR5vF4mMfjoVQ/eZh1HSspBRC/4F35EQSBdXZ2sps3b7J4PF7S81Ewsyg+W0ExGRempqYyUs+IosgCgUBGFgdBEFhPTw8FsXWYdR35jBtmZ8xYLxsG/+Pz+VgkEtn0+SiYWRT/DV3Mh5r/Ni0ml1SxIpEI6+npYR6PJ6P2oJQ7EAiU7dxGMOo6ZlO+xMyslUmSxEZGRtQgFY1G1cfrBTWv18v++usv3eelYGZhxX6w+QBYzkyxfK0xu+aolKGaEzsadR3XO6+RAZSnJJf0+/0F3z9RFNnNmzdZX19fTt62zZSbgpnFKTUELR+S7KZRuYNJIBDIW7ZkMskGBwfLeu5yMvo6KpQvCbO+CPjzF1PDCoVCGQkc//nnH13np9FMizt79ixcLhfOnDmzYfYHo9cD7t+/P+/v5+fn100ZU+nMWFepzGlzuVy4du2a4SOY/Jy6tra2oqaDdHV1we/3A1hLLGmz2XSVgYKZxTmdTszNzWHbtm04ePAg4vF43uPMWA+orFbgpxKIooj5+fmqXUFgxnVUNntOp9P49ttvTVlGlp0UVA9BEAp+wWlBwawGKAFNEAT4fL68AY3fms7MfTYjkQgOHDhgyrlLwejrKMsyOjo68Ndff+Hnn382bSNrPtX3mTNn8i4sz0eWZXz88ceIRCKbXmhOfWY1RJIkNjg4mLM7Fb+jjxkd1kofz9TUVFVvgGL0dVR2NgoEAhUxWCJJktoPCm7KhSiKOcdFo1F2+vRpJggC8/l8GTs26UXBrAYtLi6y06dPqyOcWnbQKQfl5le2H6vmTn/GjL2OyWSSdXZ2liQIlJokSWxsbIz5fD7mdrtzpmC43W7W2dnJxsbGShqEbYxVUBY7UlOUJtLy8jJaW1sxODhIaYOIbtRnRkxjt9tRX1+PdDqNY8eOUSAjm0LBjJhufHzctI5rYh3UzCSmUbYxq9ZpGKSyUM2MmCIWi2FlZYUCGSkZCmbEMMFgEK2trbh//z7m5+fR3d1tdpGIhVAwI4aQZRmrq6tYWFhAIpGgQEZKjvrMCCGWQDUzQoglUDAjhFgCBTNCiCVQMCOEWAIFM0KIJVAwI4RYAgUzQoglUDAjhFgCBTNCiCVQMCOEWAIFM0KIJfw/oiiR/HrEodcAAAAASUVORK5CYII=;" vertex="1" parent="WIyWlLk6GJQsqaUBKTNV-1">
          <mxGeometry x="353.84999999999997" y="1319.5" width="136.44" height="60" as="geometry" />
        </mxCell>
        <mxCell id="HX48B-1rYJLwdNwCFjf0-131" value="" style="rounded=1;whiteSpace=wrap;html=1;absoluteArcSize=1;arcSize=14;strokeWidth=2;" vertex="1" parent="WIyWlLk6GJQsqaUBKTNV-1">
          <mxGeometry x="353.64" y="1436.88" width="146.53" height="67" as="geometry" />
        </mxCell>
        <mxCell id="HX48B-1rYJLwdNwCFjf0-132" value="" style="strokeWidth=2;html=1;shape=mxgraph.flowchart.annotation_2;align=left;labelPosition=right;pointerEvents=1;" vertex="1" parent="WIyWlLk6GJQsqaUBKTNV-1">
          <mxGeometry x="501.39" y="1451.88" width="29.49" height="48.12" as="geometry" />
        </mxCell>
        <mxCell id="HX48B-1rYJLwdNwCFjf0-133" value="&lt;b&gt;Концентрация утяжелителя в объёме раствора в долях %&lt;/b&gt;" style="text;whiteSpace=wrap;html=1;" vertex="1" parent="WIyWlLk6GJQsqaUBKTNV-1">
          <mxGeometry x="540.1999999999999" y="1404.5" width="270" height="38.5" as="geometry" />
        </mxCell>
        <mxCell id="HX48B-1rYJLwdNwCFjf0-135" value="P&lt;span style=&quot;font-size: 10px;&quot;&gt;&lt;sub&gt;исх&lt;/sub&gt;&lt;/span&gt;&amp;nbsp;-&amp;nbsp;плотность бурового раствора до обработки утяжелителем, г/см&lt;sup&gt;3&lt;/sup&gt;" style="text;whiteSpace=wrap;html=1;align=left;" vertex="1" parent="WIyWlLk6GJQsqaUBKTNV-1">
          <mxGeometry x="530.1199999999999" y="1453.38" width="224.14" height="30" as="geometry" />
        </mxCell>
        <mxCell id="HX48B-1rYJLwdNwCFjf0-137" value="" style="shape=image;verticalLabelPosition=bottom;labelBackgroundColor=default;verticalAlign=top;aspect=fixed;imageAspect=0;image=data:image/png,iVBORw0KGgoAAAANSUhEUgAAAPcAAAB4CAYAAAAuamReAAANzklEQVR4nO3dPUwb5x8H8C9//UdQhmOAMuHKztQ0xPKG2ipGlVEZIqRGalRdMxSGpqjIjtRmqJTMNQhViqoIL2HBCQsVmAyNIwJsFYfVpapJyVDZZggDupv7dCB3ORsbn1/ufC/fj4SUc3z2w4/73XP33PPSJ4QQICLf+V+vC0BE9mByE/kUk5vIp5jcRD7F5CbyKSY3kU8xuYl8islN5FNMbiKfYnIT+RSTm8inmNxEPsXkJvIpJjeRTzG5iXyKyU3kU0xuIp9ichP5FJPbh7a2tjA5OYnBwUH09fWhr68Pg4ODmJ2dxeHhYa+L5wjGAIAg31hdXRWSJAkADX8kSRIbGxu9LqptGIN3mNw+oKqqiMfjAoBIJpNCVVXj/+od7KFQSJTL5R6WuPsYg/OY3B5XLpdFLBYTAMTq6mrd9yiKcu7g9lPNxRjUx+T2MHNtJcvyhe+VZbnqwG72fq9gDBpjg5qH3blzB/l8HpIkYX5+/sL3fv755w6VylmMQWNMbo/a3NzEysoKAODq1asIh8MXvn9kZASSJBnbV65csbV8TmAMLsbk9iBN07C0tGRsz8/Po7+//8J9SqUSTk5OjO3Lly+39J0HBwdVj5U6/Xn//fdRqVRa+8VNehEDr2Fye9Dh4SEKhQIAIBQKIRqNtrR/O/u4DWPQ3P97XQBq3YsXL4waaHx8HMPDw033WVtbM/5tdR+zsbExvHnzprWC2qgXMfAa1tweo2kanj17ZmxbaSSqVCrY29sDAEsNT27HGFjD5PaYdi5H9/f3cXR0BAC4d+8exsbGbC2j3RgDa5jcHtPq5ai54UmWZaRSKdvLaDfGwBomt4fUXo5aeZTz6NEj5PN5xONxPHz40M7iOYIxaEGve9GQdbVdKJt1n9zY2BAARDwer+pr7WWMgXWsuT3EfDkKVLf+1spms7h9+zaSySTW19ebPgP2CsagBXadNXK5nJiZmRGRSOTccLtEIiEymYyoVCpCCCGKxaKIxWK+78jfCXMfavNP7QgoRVFELBYTkUik4SAKr2IMWtPV5C4Wi2JmZsZI4sXFRXF4eFj1nkqlIpLJZN0xtoqidLM4vmK+HA2FQqJYLIrFxcWqk6d+4szlcr0uri0Yg9Z0JblVVTUSVpIkS2fL2nunIN4TtSKdTgdmNFMjdsdgeXlZSJJU91iUZbnhGHBFUUQikTDKFovFjPfpFV4kEqm6MtW/K5lMdv330HWc3PXOplbpjR1BPmCtKJfLIhQKBWYccj12x+D+/fviyZMnIhaLnUti/btrk16v1PSrVFVVjbHl6XS6YQXm1Im6o+ReXV3taGYL8x8siAesVeaTYBBmEKnHzhgUi0WhKIpxPNYmnP7d6XS66nV9fLj52E2n0+duMfUklyRJZDIZcfPmTUeuUttObvPZp5P7ZVmWeb/dhHmSgaBe4TgRAz2Jayuaesdoo4RvRM8XJ28/20pu81m001pXlmXeb1/AfHUT1JOgUzGod1+t17rmY1RvtW+lLPrnOHlybnlUWKVSwXfffWdsx+NxfPLJJ61+jEHvYRS4Z5AWmftEW5mQwI+ciIE+sKS2O+v29jaAs4ke9GNU79veTllKpRI0TXPkeG+5E8sPP/xgBFqSJPz0008dFzRo099Y1c6EBH7jVAz0E4j5WHz69CkGBgZwcnJS9bo+6YM54ZtRFAVzc3MoFAqOzZveUnIfHBwgl8sZ2904i6ZSKUxNTXX0GX61vb2NfD4PoPMrJK9yKgZra2tVI8x2dnYQDoexu7trvH58fNz0czKZDDY3N6te29nZwbVr1xCNRnFycoJSqQQA2N3dhaZp3f9l3mopuZeWlqq6/gWxJnHS1NQUxFm7CJ4/fx7IWDsRA03TUCqVMDo6ioGBAWSzWQBAOBw2Xn/16pWRtNFoFKFQCCsrK8Z7NU1DKpXC0NAQpqam8ODBA0xMTODg4ADHx8cYGxsz5nBbW1tDNpvF6empvX9Tqzfntc/sgvpIhvxHVVUxPT0tAIhEImH01SiXy0bD2fLyctU+epdpPR/M+wnxrnXc3EnF3BDnRLfYPiGEsHISWFhYwN27d41tWZbx+PFjG043RNQNli7La8fQAt5uBHPbTJ5EdrCU3Kqq4vXr18a2JEkYGRmxrVBE1DlLz7mPj49xenpqbF+6dAlDQ0O2FcpubpvJk8gOnKyByKfaSm79kQERuRcXJXBYX19fr4tAPvLvv/82PKYsJffQ0BAuXbpkdGB5/fo1VFUNZKeKTll88kjUMUuX5QMDAxgdHbW7LI7hozAKAkvJ3d/fj8nJSWP76OgI+/v7thWKiDpnuUHt1q1bCIVCxvZFU8pakUqlznWwd4r+KEy87bPc6c/ff//t+0XlyHssJ/fw8DC++eYbY3tlZaXt5FxYWMB7773H0WBENrLctxw464Z648YNYwheKBTC3t5eS7VWJpPBn3/+iYWFhdZLS0SWtfScu7+/H+vr64jH4wDO7r0/+OADHBwcNN1XHxIHgIlN5ICWam6zbDaLb7/91ng8lkgkMDc3h48++sh4RKZpGg4PD/HLL7/gn3/+wc8//xzIaYKIeqHt5NZtbW1hfX0dL1++RLFYNF6XJAmxWAyffvopvvjiC0/3RSfyoo6T2y76SaNQKODXX3817usrlQrGx8dx48YNXt4TXcCVA0e++uorfPbZZ1heXsbvv/9e95n6+vo6O44QXcCVyf348WOoqgpZlgEAf/31l/F/w8PD2Nvbw/T0NAevEF3AlckNnLXMN5rtZX9/Hx9//DH7thNdwLXJDcCYLfKPP/4wXqtUKnj58mUgp/klaoWrk7ueXC6HW7dusdYmasLV47n1oab6Eiz60i5jY2M9LhmR+3mm5q5UKtjf38fXX3/d66IQeYKrk1sfR14oFPDjjz9idna210Ui8gxXJ7fZ999/z2GVRC1wdXL39/fjww8/xG+//cb7bKIWubb7KQBjvDjHfRO1zrU1t746IhObqD2uSu5UKoWJiQns7u6yZfwCW1tbmJycrJrkcXBwELOzs44t7O4Hvo+j7euIWqSqqpBl2bHlTb1odXW1ahnlej+SJImNjY1eF9XVghJH1yQ3Naav64y36z2rqmr8X70DlWun1xe0ODK5Xa5cLhuLvDe6olEU5dyB6fVap9uCGEcmt4uZaxpZli98ryzLVQdls/cHSVDj6KoGNap2584d5PN5SJKE+fn5C9/baHgsBTeOTG6X2tzcxMrKCgDg6tWrTSeW1IfH6q5cuWJr+bwiyHFkcruQpmlYWloytufn55sOcS2VSsZMtABw+fJl28pXjxvXX/NiHLuJye1Ch4eHKBQKAM4WfohGoy3t384+fhT0OLp6PHdQvXjxwqg9xsfHLQ2YMa/dZnWfbtLXX3MTL8axm1hzu4ymaXj27JmxbaWBp1KpYG9vDwAsNRoFAePI5Haddi4l9/f3cXR0BAC4d+8eR9CBcQSY3K7T6qWkudFIlmVjPbagYxyZ3K5Seylp5THMo0ePkM/nEY/H8fDhQzuL5xmM41u97kVD79R2f2zW9XFjY0MAEPF4vKqfdNAxjmdYc7uI+VISqG65rZXNZnH79m0kk0msr69zqmcTxvGtXp9d6Iy5/7P5p3b0kqIoIhaLiUgkwqGxdTCO7zC5XcJ8KRkKhUSxWBSLi4siEolUjTFOJBIil8v1uriuxTi+w+R2iXQ6bftIpFwuJ2ZmZkQsFqsap1wul0UoFBLJZNKW73WS3XFcXl4WkiTVvT+XZbnhGHBFUUQikTDKZv4bFItFMTMzIyKRSFX7gP5d7f5dmNwuoCcXLDYAtaN2KKP5O/Tv9/rkBHbH8f79++LJkyciFoudi5X+3bVJr6qqSCaTQpIksbi4KFRVNcaWp9Ppc41/+v7dOEkxuV1Ab63VLyXtSjB9KisAIp1OV/1fuVwWd+/e9XRrsZ1xLBaLQlEUI4lrE07/7tq46vE2n2jS6bSQJEkoimK8pie5JEkik8mImzdvdvy3YHK7gLlWtXtygEYH4cbGhqdnHRHCmTjq8auNlT7/nzlhG8W6Eb227tYjOT4K6zGn+zP7dVlkp+K4trZ2rjvrwcEBcrlc1XhxvcebJEm4fv26pc++fv06JEnCyMhIVx7JMbl7zNyf2cpkAnbww7LITsRRP4HUdmfVV581J6Xet72dsuir2naKyd1D7Uwm0KnaZZH1VV28PEjCqTjqJxDzCLOnT59iYGAAJycnVa/rkz60UgsrioK5uTkUCoWuzJvO5O6h7e1t5PN5AEA8Hnf8stgvyyI7FcfaS/KdnR2Ew2Hs7u4arx8fHzf9nEwmY5xUdTs7O7h27Rqi0ShOTk5QKpUAALu7u23X4kzuHpqamoI4a9TE8+fPHbks9uOyyE7EUdM0lEoljI6OYmBgANlsFgAQDoeN11+9emUkbTQaRSgUwsrKivFeTdOQSqUwNDSEqakpPHjwABMTE8bSWWNjY0abyNraGrLZLE5PT9v/fTpukiNP0btn1rbs0sVUVRXT09MCgEgkEqJYLAohzh4h6vFcXl6u2qdYLBpzpdfuJ8S71nFzJxXz36fTbrGuXuWT7JFKpfDll196+j6bmmNyBwyXRQ4O3nMHCJdFDhYmt89xWeTgYnL7mKZpePPmDQqFAkqlEhM7YHjPTeRTrLmJfIrJTeRTTG4in2JyE/kUk5vIp5jcRD7F5CbyKSY3kU8xuYl8islN5FP/AeTSziN+I1AbAAAAAElFTkSuQmCC;" vertex="1" parent="WIyWlLk6GJQsqaUBKTNV-1">
          <mxGeometry x="366.19" y="1439.38" width="119.38" height="58" as="geometry" />
        </mxCell>
        <mxCell id="HX48B-1rYJLwdNwCFjf0-138" value="" style="rounded=1;whiteSpace=wrap;html=1;absoluteArcSize=1;arcSize=14;strokeWidth=2;" vertex="1" parent="WIyWlLk6GJQsqaUBKTNV-1">
          <mxGeometry x="196.74" y="1552.5" width="330" height="67.5" as="geometry" />
        </mxCell>
        <mxCell id="HX48B-1rYJLwdNwCFjf0-139" value="" style="strokeWidth=2;html=1;shape=mxgraph.flowchart.annotation_2;align=left;labelPosition=right;pointerEvents=1;" vertex="1" parent="WIyWlLk6GJQsqaUBKTNV-1">
          <mxGeometry x="526.74" y="1560" width="29.49" height="50" as="geometry" />
        </mxCell>
        <mxCell id="HX48B-1rYJLwdNwCFjf0-140" value="&lt;b&gt;Коэффициент, учитывающий факторы, влияющие на скорость седиментации для утяжеленного р-ра&lt;/b&gt;" style="text;whiteSpace=wrap;html=1;" vertex="1" parent="WIyWlLk6GJQsqaUBKTNV-1">
          <mxGeometry x="554.49" y="1510.5" width="255.71" height="52.5" as="geometry" />
        </mxCell>
        <mxCell id="HX48B-1rYJLwdNwCFjf0-141" value="- средний размер частиц утяжелителя, см" style="text;whiteSpace=wrap;html=1;align=left;" vertex="1" parent="WIyWlLk6GJQsqaUBKTNV-1">
          <mxGeometry x="570.49" y="1572" width="239.71" height="30" as="geometry" />
        </mxCell>
        <mxCell id="HX48B-1rYJLwdNwCFjf0-146" value="" style="shape=image;verticalLabelPosition=bottom;labelBackgroundColor=default;verticalAlign=top;aspect=fixed;imageAspect=0;image=data:image/png,iVBORw0KGgoAAAANSUhEUgAAA9kAAACOCAYAAAAl18s4AAAgAElEQVR4nOzdeVxTZ74/8E8AnTu3UdQTZLOjoIBdVJZi61LL0irBpb2trftSBew2qICKnde0d6bTuiJYnWkral1uBa1ttbLplaVuXUYIVtsOm8urQmIlVchp769VeH5/MOc0YU1CkpPl+3698lLg5JwnT56zfJ9VxhhjIIQQQgghhBBCSK+5SZ0AQgghhBBCCCHEWVCQTQghhBBCCCGEWAgF2YQQQgghhBBCiIVQkE0IIYQQQgghhFgIBdmEEEIIIYQQQoiFUJBNCCGEEEIIIYRYCAXZhBBCCCGEEEKIhVCQTQghhBDiQjQaDUJCQuDm5gaZTGb0a+PGjWhpaZE6+YQQYhEXLlzAkCFDTLoWchyHzz//HK2trd3um4JsQgghhBBCCCHEQijIJoQQQghxQdHR0bh16xYYY0a9Vq9eDXd3d6mTTQghFjFmzBhcv34dra2tRl0DExMT4eHhYdS+KcgmhBBCCCFOj+d5vP3228jPz++xqychAHD27Fns3r0bTU1NUieFOBgKsgkhhBBCiFN7//33MWvWLDzxxBOIj4+Hmxs9ApOeTZgwAZMmTcKCBQvwwQcf0JwExGh0hSGEEEIIIU6J53nExcXhgw8+wAcffID77rsPMplM6mQRBzJixAgcOHAApaWliIuLw48//ih1kogDoCCbEEIk5u7ubtIMv/bwoq6WhBB7V1tbi4ceegheXl44fPgwBgwYIHWSiIOSy+XYuXMnhg0bBqVSiW+++QaMMamTZXX33HOP5M8b5rx+/vlnqbOOgmxCCJFaS0uL0RMP2cuLuloSQuxZbW0tpk2bhsjISGzbto0CbGIR2dnZGD16NJ566il8++23Th9o//TTT5I/b5jz+s///E+ps46CbEIIIYQQ4jw0Gg2mTZsGf39/CrCJxWVmZiIoKAhPPvkkrl275vSBNjEPBdmEEEKIneN5HllZWSgoKKAHOgdw5swZ7N69G83NzVInxeXwPI/Fixfj7t27eP/99+Hp6Sl1koiTkcvl2L17N/r27YulS5fi1q1bUieJ2CEKsgkhhBA7tmvXLjz33HNQKpWIj4+nSZscwMSJEzFp0iTMnTsXBw4coDkMbGjnzp0oLi7Gpk2bMGTIEDpfiFX4+PggIyMDZ86cQXJyMn799Vepk0TsDAXZhBBCiB3ieR6TJ09GTk4OcnNzERISInWSiAlGjBiB3NxcnDx5ElOmTKF1dm2gsrISGzZswOzZszF9+nSaO4JYlVKpxMKFC5Gbm4u8vDxa3osYoKsPIYQQYmdqamoQFhYGHx8ffPzxx+jfv7/USSJmELqV3nvvvZg8eTL+9a9/UXd/K+F5Hunp6bjnnnvw5ptvwt3dXeokERfwxhtvIDg4GH//+9+pIo0YoCCbEEIIsSM1NTWIj4/HuHHjsH37dgqwncDu3bvxwAMPYNq0aRRoW8mpU6dQXFyMpKQk+Pv7UzdxYhM+Pj5YtmwZTp8+jR07duDu3btSJ4nYCQqyCSGEEDuhVqsRHx+PoUOHUoDtZN5++20MHz4c06dPx/Xr1ynQtiCe5/H2229j6NChmD17NnUTJzY1a9YsjBgxAv/7v/9Lkx0SEV2FCCF2r6amBn/7298wYcIEyGQy8aVQKKBUKpGZmYmamhpx29mzZ+PYsWMSp5rYEs/zKCwsRHx8PNzc3MTysWXLFuh0OqmTZxSe57Fo0SK0trZi7969FGA7Gblcjj179sDd3R2LFy+mrqUWRK3YREr6rdllZWU0NpsAoCDbZgoKCqBUKg2Cg8zMTPA879DHVKlUWLVqFUJCQsTjLFq0yCb7U6lUUCgUBkGXMS+FQgGVSmV2Golt8DyP3NxceHl5ITg4GNeuXcO2bdug0+nAGANjDFevXsWiRYvw3nvvITg4GDKZDMHBwfjnP/+JiIgIqT9CryxevFgMFo0p0xMmTMDs2bOxc+dOqNVqqZNvUwcPHkRAQABef/11ZGZmorW1FTqdDtOnT0daWhqeeuopg9YFtVqNyZMnw83NDSkpKXbTorhjxw4UFxcjMzMTfn5+UieHWIGvry+2bNmCU6dO4Y9//CM9jFvIRx99hIEDByIqKsolWrETEhLg4eFh1P2B4ziMHz8es2bNQnZ2NhoaGoy65mk0GiiVSri7u2PFihXUDboHUVFRUCgU2L59u0tUoCUmJqJPnz5Gl8Fx48Zh1qxZ2LFjB+rr6+3mvmtVjFiVTqdjsbGxDAD77//+b6bT6RhjjOXn5zOO4xjHcayiosKhjqnT6diWLVsYx3EMAOM4jv31r39lFRUV4rFssb/NmzczACa/YmNjzUonsZ2cnBymUCgYAJaQkMCqqqq63V6n07HHH3/c4Dtubm62UWqtKzc3l8lkMvGzxcTEdPhsarWa5efns6SkJHHbyMhIlpeXx1pbWyVKuW2kpqYymUzGNm3a1OGzNjQ0sBEjRjAABn/PyMgwyNOjR49Knk8qlYp5eXmxBQsWsJaWFknTQqzv+eefZ25ubuyTTz6R5PtWq9UsODiYxcTEsFu3btn8+JakUqmYj4+PU3wWUx06dIj16dNHvJZFR0ezH3/80WAbjUbDCgoK2LJly5i7uzsDwCIiItjRo0e7LXuZmZnMw8ND3PfHH39M16YeJCQksMGDB7PPP//cZfLq0KFDrG/fvmI5iYqKYo2NjQbbaDQaVlhYyF544QWxTEVERLAjR46wu3fvSpRy8yQmJrLBgwezc+fO9fgdU5BtRfrB7ubNmzv8vaKiwuKBtrWPWVFRwSIjI8VgOCcnp1fpNXd/DQ0NLDAw0Kwgu7N8IfZBp9OJQVP7wKgnDQ0NbPjw4Sa/z97pB4rGfLbq6mo2duxYo7d3VDqdji1atIjJZLJuA9PFixczmUzGYmJiWFNTE2PM/oJsnU7HnnjiCRYYGMiuX78uWTqI7Ugd5Ep9fEvKzMxk7u7ubMOGDQ73wN5barWajRw5UryerV+/vts8qKmpYePHj2dubm49bk9BtukKCgpY37592bp169idO3ekTo5NqNVqdv/994tlsKfPXlNTwyZOnCiWwbfeeov9+uuvNkxx71CQbScWLlzYY8up0BobGBjIGhoa7PqYOTk5YmtzZGQkq66u7lVae7O/Y8eOMQAsMTHRqMoCISi3Rs8BYhkNDQ29Dg4XLVrEOI5j5eXlVkql7bUPsj/99NMe80Vo2TenssJRdBY8d7cdx3Hs/PnzrLW1leXl5Yk3eP3fS0VIz8aNG53ueyJd27Jlixgc2jp4caYge8mSJczLy4t9+eWXLnf+tA+yjQmEdTodi4uL6zHQzs/PF1vJBw0axL744guXy19TVVZWMl9fXzZv3jz2yy+/SJ0cm2gfZB8+fLjHyi6dTsfi4+PFnhWOFGhTkG0HhCCwp5ZToWUZAFu4cKHdHlO/a7Ylulv3Zn9Ca70pLdJC3lBXcfvUvrv3ggULzLqZZ2RksOHDh7P6+norpFIaFRUVYtd5U1o6KyoqmJeXl0nBuaPQb4nuqRVaCLL1txW6Zpuap9ZArdiuS8pA11mCbLVazUJCQhz+c5hL6Covk8lYQEAAu3r1qlHXeZVKxXx9fbsNzvW3MWXfrkyn0zGlUsmGDx/Orly54hL5VVlZyfz8/MRycvnyZaM+t/77jA3O7YEpQbbzzw4hAZ7nkZWVBQDgOA4xMTFdbhsUFITQ0FAAQH5+vtkTclnzmBkZGUhLSwMAxMbG4siRI5DL5Wal0xL7q6mpwZgxY5Cammr0ez788EMAgFKp7FXaiXW88sorKC4uBtBWJv7+97+bPTvshAkT4Ovra8nkSaq0tBRarRYAMGzYMKNnnA4LC0N8fLyYj1lZWVadaNFWVCoV1q9fD8YYYmJiEBUV1WVZ4Xke9fX1HX7v7e0NT09PAG152q9fP6umuTufffYZiouL8cILL9BkZy7Gx8cHL7zwAj777DOUlZWhtbVV6iQ5HI1Gg6amJvj5+bnkvb2srAyNjY1gjIn3B2PunaGhoeJKDACwbdu2DpN1+fj4GFwnjd23K5PL5ZgyZQp4nodGo3GJyb3Kyspw8+ZNMMYwdOhQo8vJmDFjEB8fD3d3dwDA9u3bcfv2bWsn16YoyLaCsrIyMWDw9PSEj49Pl9vK5XL4+/sDALRaLUpKSuzqmCqVCuvWrQPQFrxv2rSpVzcyS+wvLCwMGRkZRm+vVqtx5syZHisfiDS2bNmCffv2iTej5cuXmx30BAcHY/To0ZZMnuS+/vpr8f+mVhI9++yz4v9LSkpQVlbm0Dd9nuexZs0aNDY2Aui5rOh0Oly5cqXDZ+7Xrx8CAgIgk8ng7+8v6cP54cOHMWjQILo2uajo6GgoFAps27aN1tc1g/CAP2rUKJcMAC9duiRe36ZMmWLSsn9PP/20GGSXlpZ2qOiRy+UYNmwYZDKZy1ZimCM4OBi3bt1ymYqz9mVQqJgxxtNPPy0G2WVlZU63/BkF2VYgtJoCQEBAQI8Bg35QUFhYaFZrkzWOqVarMXPmTLEVbe3atQgLCzM5bdban7HKy8tx+fJlhIaGIigoyOrHI8ZTq9X4xz/+IV6gY2NjERUVZfb+pk2bhtTUVKd52FKr1Th79iwYY2IlkSmfzc/PDwqFQvxZ/zrhiHbs2IGTJ08a1YoNADdu3BBbZziOEysX9SsaR48eLVl5qaysRH5+PkaPHo2goCCnKbfEeEKL4sWLF1FTU+PQlWBSuHjxIgYNGuQyS3fp02g0OHv2LFpbWzFo0CBER0eblAfC/UG47nz00UcGAY5wnZTJZBg1apTL5a+5hHy9dOmS0wfZGo0G586dQ0tLi1nnoZ+fHziOE8vgxx9/TEE26Vr77onGtJKEhISI/6+srERNTY1dHPPAgQO4fPkyACAwMBBz5841KV3W3p+xqKu4/Vq7dq1YJoDetWI7o4qKCtTV1QFo66Hi7e1t0vv1u/sBwNmzZ9HQ0GDRNNqKWq3GO++8IwYhSqWyx7JSX18vVuoJPXyEm/moUaMAtLU6SKWkpARarRZxcXGSlXue51FYWIipU6fCy8vLYO31lJQUhy0vjmTmzJm4desWSktLKcg2gfDs079//2577zkr4f7AGLPI/eHcuXMd1tB+8MEHIZPJEBwcTJWARhKGI6nVaqcYotUdlUrVoQyaUk68vb0xYMAA8efPP//cqdbQpiDbwoTuiebSarWdjiG09TGFFkbBSy+91KtxrpbenynHlbqrOM/zUKlUOHToEFatWgWlUomxY8caPLzyPI/U1FSxVjkpKanTi3NNTY04zlahUCA7O9uWH8WihO9GuJgGBgYiIiJC4lTZl6qqKvH/EyZMMHnMbr9+/cTufgDQ1NQEjUZj0TTaSk5OjljhEBgYiDlz5vR4Mz98+LBYvtqPvQ4JCYFCoRBbtKUgtMJJdW3atWsXAgMDER8fj4KCArEbPtB2X8jMzMTo0aNx/vx5p3nosUdCa87Fixcpn03A8zyuXr1q0jhQZ1JdXS2Wl/Hjx8PPz8+kPNDvDg50fn8IDg6GQqEwed+uTMjXa9euobm52anP6erqarG1fty4cWLPB2MJeSW0fjc1NeHGjRtOk2cUZFuYMAmHwJjxof7+/uA4TvxZ/8FaqmPqtzoLAWpBQQGSkpIQEhIitnbIZDIolcoeJ0+z9P6MJXVXcbVajdjYWMyePRuzZs3C5s2bUVRUhPvuu0+sZFCpVAgICMCWLVvEVrfs7Gy89957BvvKzc3F+PHjUVhYCKDtIXj9+vUO29KUk5Nj0Ir94osvOtWEZb0ltDAKnG2suSnat2IbM7ld+0qc9j18/P39ERgYaNC6bUtC+saMGWPzruI8z2Py5MlIT0/HmjVrxAdBnU6H3NxceHl5idtqtVpxG2IdI0aMQGhoKD7//PMOLYmka+2ffVwJz/M4fvy4GOBYqzu3n58fAgMD6d5sAqGbvU6nc+rJz3iex4kTJ6xeBh0Z5YaF6XdPdORj6k+2pNVqER4ejuLiYvz1r39FVVUVGGPIz88Hx3EoKipCeHg4UlNTu+waY+n9GUvqruK+vr748ssvUVVVhc2bN4u/F8aBqlQqzJkzB9u2bQNjDIsWLep0PxkZGdiyZYvY3Xf48OEAHLdlUggg9W8+QmULaVNTU4PKykqzx2MDbb1crl696vA3+YqKCoNKuuXLl/d4M2//AD5z5kyD/AsNDcUXX3whWUu2MF7c1hMK1dbWIjw8HBUVFSgsLERKSorYwi+XyzFr1iycOHECgwcPFt/jDJPm2TNhRuLm5maHvJ5LzRUn5aqtrRXvD+aMxwZ+6wnQ3XkdGhqKs2fP4g9/+APdn4mBuro6VFZWinMCmDMvglAGnXXsOgXZpAOhhUUQGxuL6upqZGRkGIx7EiZrCQwMBNA2S/TLL79s9f2Z+jlsOf67OxcvXgTQFiRER0dDrVbjT3/6E3JycjB79uwO2wtjRfPy8vDVV1+huLgYwcHB4szIQM8zydur9kMcqKt4Rw0NDQbjiU0db9cZRywvPM9j69at4oOgVqvFQw89ZND7pbNXeHg4bt68CeC38mVPD4nCeGxbzoqsVqsRHx+PmpoarFmzBuHh4Z0eW5iMS/9v+l1TieWFhITQuGwT5eTkiOe4qxHuD+aOx+6MI94f7BXHcfjxxx+Rk5PjVBN56eusDPb2Xmap/dgLCrKtTH+CMUc5ZvsWIKVS2WVXa19fX2zdulX8ed++fcjLy7Pq/owldBWfOHGi5F2d9CsaQkND4evrixUrVuCll14SZ1jXn8BOCApUKhX+8Y9/IDMzU2xtElo4AeNmkrdH7cuEo34Oa9KfCdyc8dhAx3w2ZZ1te6Hfog8AmzZtQmtrKxhjXb4aGhowYsQIcR/2uHa6FOOxX331VdTW1opj2rtrdZg5cyZ1/bMhGpdNTPHxxx+LrX/mjMcGur4/OEuAQ6xLfyZwc8ZjA209uvTXxna2+RXoDko6aN/9vKegPSoqCrGxseLPWVlZBt28Lb0/Y/A8j6ysLACGawWba+fOnVAoFFAoFGYF/fo3M6VSiQMHDmDs2LGYNm2auE374Fkmk2HDhg148803DQIs/fyUclZioC1fvLy8oFAocOzYMaPf175MOEN3v127dhnkRW8elNuvGGBuGW5oaDCYzEqqNaF7kzf6LfpCL5CebsD6k6QBHbuKS639rMi2SFt+fr64Hr05lTY0u7B1CTM9NzQ0QKfTSZ0cYseE64dwHX3mmWfEtYZNIdwfhP04w33Y3ggtvc6G53mD+SP017s2hX5rONBWBp2pwYWCbAszZxIzU4NQezimPrlcDqVSKf585cqVXj0kWGJ/QsBqiW7IKpUKa9euhVarhVarxfLly02ebKykpEQMdn7++Wd89dVXSEpKMthG/zsRAvHIyMgOa4kLMyZLOWM68Fu+NDY2QqvVYsWKFQ47CVtvqVQqpKenG+SFWq02e3/tx2ObU0MMdFwX2xIVTqbqbTnRnyHcmO6MPM+jqKhI/NmY9bRtTRguYaseHPpd7jmOQ3Jyskn5ob/GOLEOuVyOgIAAXLt2DTqdzikfzC1NP0B0Je3HY5t7f9BvDQfMD9ZJR84+G3v78di9KYP63enNDdbtFQXZxCL0g3RLTMbV2/0J4x3toau4/kN/YGAgvvnmG6Snp3d4uNYPJn7++Wc0NDQgJSXFYJv23c6lmDGdWF9paalY4SLMPm2q9q3hgYGBXY7BtVftP4Mx3b7bdy+3x7XXhUnPbBUg1NbW4sKFC2CMYcyYMSa3SksxA7qrkcvl8PPzo8nPSI/KysrECgZzz832reEBAQEOd38g0ikrK8PNmzfBGMPo0aMRFBRk1qRn+q3hQhl0pmFKzvNJ7ERQUBBCQ0PFn/Vn1e6KfsuzOS0Glj5m+5ZxY3T3Hkvvryf6Sx9ZouUuLCwM69atA8dx4DgOW7duNamrpf4kX5cvX8bvfvc7g+8LMAyehRnW582b1+GGJ4wzB6Tr+isQ8kWhUIDjOGRlZZk1btgZhIWFYf369QZ50ZvKHf1z2Nzv+bPPPkNxcbF4A3vxxRcl+X56U06Ec0f4DMKs/N15++23xV4j9tiKrc9W53BpaamYJ3FxcUYd8/Dhw2Irl9TDUgghv7l06VKvu3ifOnUKxcXF4jm+bNkyDBkyxG6vlcS+tC+D5twfTp8+jeLiYrElOzEx0enKIAXZFiasjyeor683aTyxOa2Tlj6mMDZMYOq63e1Zen89sWRXcUFCQgIaGxvR2NhoMI7aGPqBsbD8UPuLiP6Yba1Wi6effhrh4eEd9qXf2m0P40wTEhJw8+ZNNDY2Yvr06Ua/LyIiQpxFHmgbl9Pb5dqktnTpUoO8MPe7ab++szkVRfpzEgAQJ7qSqryYmzf654Ux47FVKhXy8/PtuhUbAD744AODsfLWpL9cnrFj2tVqNc6ePQvGmFGTpBHLUCgU0Gq1OHDggNMuaUN6R6PR4OzZs2L5MKeLN8/z2LZtmxjcBAQEYPbs2XSOE6NoNBqcO3dOLD/mdPHmeR7bt2/H3bt3AfxWBj08PCyeXinRGWUF+g/Fxown1m+1Mnc9Z0seU3+JqPbbGqP9uElL768n9tRVHIC4DjgATJ06tcMYa8BwzLbwUNuefmu3oy951b5M9HYcvzNpvya0OWOd2rdiO0MvA2OuA/qt2AsWLMC0adMkr4iSmjldxfXL4JYtW2g8NiF2oqKiAnV1db0aj92+FTsjIwP33nuvy18riXFUKlWvy2D7VuxNmzY55VrsFGRbgf7s2D2NJ27fTdjciawsecz2E4+Z2jLePri19P66Y+mu4r3VfhKmzlqf22/z0ksvdRoQ6bfq2UsFgrnkcrlBi/7ly5dRXl4ucarsg35PD3PGY6vVaqxYsUIMsA8cOOAUweawYcO6bZXWb8WOiYnB9u3bqWUGpncVFyZJa21txYIFC3rVK4OYx1a9HIjj0V+v3pzx2BqNBqmpqWIL4r59+zBjxgy6VhKjVVdXixU05ozH1mg0SEtLw6+//goA2LNnD5566imnmvBMQGeVFcjlcqxYsQJAW9ffkpKSLrfVD5y6auWU4phz584Vu/MWFxejrKys2+MLM2NzHCemw5r764o1uor3hv6yXF2lSX/MttCdszNCCz1gH13Fe6v9Um1bt241uzU7LS3N7PXU7Yl+117A9J4tPM9j4cKFqKurA8dxOHDgAGbPnu2wZaX9UJOu8DyPNWvWoLGxEYGBgdi3b59drwduqyBKrVbjnXfeER+IQkJCeiwL2dnZKC4uxvz586miwsacfUZi0js8z+P48ePi+TxlyhSTrnM8z+P5559HdXU1Bg4ciP3792Pu3LlOGdwQ6+B5HidOnDAog8bco/Xfv3TpUlRVVWHgwIHYu3cv5s+f77RlkO6eVqIfQBQWFnbZcpuVlQWtVovAwECsX7/ebo7p6+uLrVu3Grynq/3pj/9cu3Ztp0G7pffXFXvrKq6/LFdXadIfs93VmHyhtVt/SSee5zF79myoVCrrfggrkcvl2LhxIxQKBYC2ypeXX37ZpBmXeZ5HWloaHnroIUydOtVaSbUZ/UoZwLSl9WpqahAbG4uTJ09i0KBBOHHihKTjsC3B19cXEydOhEwmw9WrV7ushNmxYwdOnjyJgIAAFBQUUPfmfxO6lgJtFXg9DRnIz8/HqlWrMG/ePGzfvt2uKypI79y6dQs3b95EXV0dfvrpJ5dcCsvR6C/dBZi2dn1tbS2mTJmCEydOYMCAASgoKMC8efOcNrgh1qG/dBcAk3pS1NbWIi4uDkVFRfD09ER+fr5DBti1tbW4ffs2rl271vN1kxGraWhoYIGBgQwAO3bsWIe/V1RUMI7jGMdxrKKiotN9VFdXs8jISAaAcRzHsrOzrX5MfZs3b2YAGAC2efPmbrdZuHChzfenT6fTsdjY2C4/uxQWLVokft5PP/3U7G0aGhrY8OHDGQAWGxvLGhoaWEpKit18zt6oqKhgCoVCzIOVK1ey5ubmHt9XXV3NlEolKy8vt0EqbWPRokVMJpMxACwwMJBdv369x/eo1WqWmpoqvs/Y/HMUeXl5zM3NjXEcx86fP9/h7xkZGUwmk7GHHnrIqPyyB4sXL2YymYwtWLCAtbS0WP04wrm1cePGLo+3ZcsW5ubm1u02xLoyMzOZu7s7mz9/Prt7965Vj6VWq1lwcDCLiYlht27dsuqxrGXJkiXMzc2NzZ8/n925c0fq5Fjd0qVLmbu7OwPAAgIC2NWrV1lra2u379FoNGzVqlXi+5YvX+6w37cj2bp1K+vTpw+bN28e++WXX6ROjsUkJCQwDw8PsQxevnzZqDK4Zs0a8X3Jycnsxx9/tFGKLS8xMZENHjyYnTt3rsd7JQXZViYEyRzHsZycHPH3OTk5jOM4FhkZyaqrq7t8/8KFC8UHpJ6CU0sds73s7GzGcRwDwFJSUphOp2OMtQW1KSkpHX5v6/0JhAqE2NhYk99rDfqBcWBgIKuvr++wjU6nY48//ni32zDWMRDlOK7LgNwR6XQ6lpSUJAYEHMexjIwM1tDQYLCdWq1m+fn5TKlUspSUFKcJJnU6HfvLX/5iEBBxHMcOHDjQ4QZWU1PDTp06xVatWsVCQkLE7RMSElhVVZVEn8C6hEqEhx56iP3rX/9ijLVd55KSkphCoWAZGRkOVRZsEWQ3NDSwoKCgDveP1157jTU1NYnbFRQUsIcffphFRkay8+fP9/jARKyHgmzTuEqQrdPp2BtvvCEGKQDYoEGD2P79+zuUk9raWnb69Gm2evVqNnLkSPGesmTJEvbdd9/R+W0jzhZk63Q69re//Y316dPHoAzu3bu3yzK4Zs0adt9994ll8Pnnn2fffPONw5dBCrLtjE6nY1u2bGHBwcFi4QwODjYIgLty7NgxMSANDg5mHMexwMDADsGHJY/ZmerqapaYmCimRQgCEhMTTQrYrbU/xn5rAe+pEsJW9Lotj60AACAASURBVAPjhQsXdnphMWYbxtoemMeOHcsAsLi4OKOCqfz8fJaYmMgiIyMNgnch+E9JSbG7i51Op2OZmZksLi7OoGwI5XfWrFksLy/PrEqU/Px8lpSU1GV+rFy50ub50b7yxNhXcHAwGz9+PEtLS2OfffZZr9NRUFDQZd6MGDFCkrxpLzc316BSITg4uNOKGEdgiyBb6AEAgMXExLD6+nqWlpbWobIuISGBlZeXm/39CmVn7Nix7Pvvvxd/LwT5K1eupJZxI1GQbRpnD7JVKhXz8fExqHw15hUUFMTGjRvHUlJSWFlZmc3Ov8LCQrZs2TI2duxYg1Z2tVrNRo4cyZYvX+6U31NnnCXIrqysZH5+fr0qg6Wlpb0ug0VFReyFF15gDz/8MLty5YpB2br//vvZ8uXLbZbPFGQ7sc2bNxsVZBPXtnnzZoOLon6rtxBUxsbGOlTrX28IXYopPzrqLG+EG5gQZMfGxhq0fpLesUWQrd9V3FpdwIUu5kLZOXLkiEHZCQoKYjExMez27dsWP7YzoiDbNEJ+bdiwwer5RbqXlZVl0NL+0UcfidccIciOiYlhWq1W4pTaRkFBAevbty9bt26dy1QsWMvWrVtZ3759xbJ1+PBh8XwXguyYmBjW2Nhok/SYEmTTxGcOxtQ1polrSk1NRWtrK1JTUyGTyQzW6vb19cXp06fx6KOPmrUmuyNKSUnpMT8mTZrkMvmhr7O8Efj6+uLUqVOYNGlSt8tnEfuiVqtx9uxZcaLE6Ohoq0yAt3LlSrS0tCAtLQ1ubm4Gywv5+vris88+Q1RUFJUdQpzc8uXLcefOHaxevRoeHh6oqakRJ8fy8fFBaWkpoqOjaTJFYrLk5GT88ssvSE9PR58+fQyWEPPx8UFxcTFiYmLssmwZHWTX1taisLAQb7zxBpRKJUJCQpxiyRxHIqxv/dJLL9nFzNnE/kVFRXX6+/LyckRERDj0zNPm6C4/wsPDXS4/9HW1dFxFRQXCw8NtnBrSG/qzio8ZM8akWYjNERUV1en+KyoqEBYW5tLnlauora3Fiy++iMGDB2Pjxo1oaWmROklEAo899liny/5VVFQgNDSUlgQkZps0aVKn5UelUmHMmDF2WbaMStGiRYswdepUxMfH47XXXkNRURG0Wi0tk2JDPM9jwYIFCAgIwLJly6RODnEQ/v7+4DgOFy9eFH+nVqtRXl7uFEtemaqr/KioqHDJ/NDn5+cHhUJh0FtGv6xQoOQ4Dh8+LLYox8XFWb2HRnfnVXx8vFOVHZ7n8f777+ORRx7B8OHD8f3330udJMnwPI+tW7fC29sbQUFBePfdd3Hz5k2pk0UkJFwLLl26JF6DNBoNKioqEBcXZ5eBEHEMfn5+4DgO33zzjdiSLZStKVOm2OVSYEaV9r1796KqqgoVFRXgOA5A1+v5EssrKChATEwMxowZgyNHjrhkl1ZiOfn5+ZgxY4ZTPfj2RkFBAaZPn0750QnKG8ej31U8MDAQc+bMkeTBtrCw0GkqZ2pra/Hmm29i8ODB6NevH5YsWYIvv/zS5deWXr58OT788EPxgZeQzhQWFkKpVFKATSyuqKgIcXFxdhlgA4CHKRvX19dDq9UCAJRKJQV7VsbzPJYuXQpPT0988MEHVKlBTObj4wNPT0/U19eD53l89tln8PHxQVhYmNRJk0Rn+eHt7e2y+aFPyJuGhgbwPI9Tp07B29sboaGhUieNmCA3N1fsKj5hwgT4+flZ/Zje3t5i2dHpdDhz5gwGDx7sFF3FKysr8ac//QmxsbFYu3Yt1q1bR621/7Zr1y4Aba1Jjz32GGpqaly+4sHVtb8WfPHFF/Dy8kJYWBgF2aRXvL29MWDAAKjVavA8j5KSEigUCrsehmBSqj788EPx/yEhIRZPDDEkl8tx8OBB7NixgwJsYpZ+/fohICAAgGt3Exe0zw/qJv6bfv36YdiwYQCom7i1jRo1CjKZTPzXUnieR2FhoTjhWXJysk2+P/3zSqPRoLy83Gm6iYeGhiI/Px8pKSlYuXIlpk2bZrUHOmHsvKXLhbXJ5XIEBAQ4VJqJdcjlcgwbNgwymYy6iROL6qxs2Ws3cYHRpV6YdAsAAgMDERERYbVEEUIs68qVK8jIyEBiYiI9COG3/EhISKD8aOfKlSvYvHkz5Y0Dys7ORnFxMRhjiI+Pt/lkfsJ5tXTpUqd9qHa0AJgQKVy9ehWZmZlYtGiRXQdBxPEIZWvBggXw8DCpQ7bNGX0X1Gg0aGpqAgAEBATQkhyEOAC5XA5/f380NTVh2bJlNuk6as8oP7om5E1zczPljZVdvHgRjDHxX0sRltRijGHfvn02C3Tlcjn8/PzQ3NyMpKQkpy47wcHBVtu3sASapcsFIbaifx9JSEiAv78/VUoRixDuMzqdDkuXLsWQIUPsvmwZfQcuKSmh8diEOKg9e/bQMkx63n//fcqPLuzevZvyhphl9+7dLrk0ICHEUHZ2NiIjI522RwuRzo4dOzB27FiHKFtGt7MLy7pwHIeYmBirJYgQYjl5eXmYOXMmpk2bJnVS7ALlR9fy8/Mxc+ZMGodNTJafn49nnnmGyg4hLq6goABPPfUU4uPjHSIIIo6jsLAQTz75JJRKpcMMQTDqDNAfj+3p6QkfHx+rJooQ0nsqlQoajYYCyn8T8oMmOutIpVJBrVZTkERMVllZCY1G4zQTnRHrqq2txYsvvojBgwdj48aNaGlp6fB7mUwGhUKBlStXisMUif27cOECNBoNLddFLO7ChQtQq9V2vVxXZ4w6C8rLy3H58mUAwMSJE+Hr6wugrVVIJpN1+Vq0aJH1Uk4I6SAtLQ2PP/44Tp8+jfLyciQkJEidJEkJ+XHq1CmUl5dj6dKlFAj8G+UNMdeqVavwxBNP4LPPPkN5eTmef/55eqgmXbpx4wa2bt0Kb29vBAUF4d133zVYBm337t2YMGGCwe+1Wi2ysrLwX//1X7h9+7ZUSSc9WLNmDZ544gmUlpbi/PnzNNEZsZi1a9di8uTJKCkpQXl5ORYuXGj3E521Z9RdsaqqSvz/6NGjxf9PmzYNjDEcO3YMHMcBACIjI5Gfnw+dToe9e/daOLmEkK7wPI/GxkZUVlbi+vXrLh9g6+dHfX09BZF6hLy5cOEC5Q0xSfvzasmSJRRgky7xPI/k5GR8+OGHaG1t7fC31atX47333kNeXh5aW1vBGMPBgwfFh+nS0lLs2LFDbPEm9oPneWi1Wly4cAHXr1/H4sWLKcAmFqH/jHL9+nWHDLABI8ZkC+tuAl2PxxbWz87JycHs2bMtnERCiDHkcjn27NkjdTLsBuVH1yhviLnkcjnef/99qZNBHIRcLsfBgwcBtA0tiIuLw40bNwAAb7zxBjZs2IBz584ZBGfPPfccjh8/jj179qC1tRVFRUVISkrCgAEDDPZtrVn6iXHkcjl27twpdTLsUk1NDRhjuHTpUofKJdIzuVyO7OxsZGdnS52UXumx+lmn0+HKlSsAgNDQUAQFBRn8PSMjA9999x0+//xzyQPsnrqvm/JSKBRQqVSSfh5CCCGEEGfg4+ODAQMGiL1mNmzYgNTU1E5bP5955hmxh8TVq1fR3NxMgTQhxKH0GGTrj8f29/c3WLorNTUVDQ0NKCkp6RB8E0IIIYQQArS1Tg0bNsyooSl+fn5QKBQAgObmZmg0GmsnjxBCLKrHIFvoCg4Azz77LIC2LuSpqanw8/NDRkaG3ayZLYwRt8SrsbERYWFhUn8kQgghdmzXrl0YPHgwFAoFPv30U2ptIza1e/dueHt7Q6FQ4OjRo9Q1lRBC7ES3QTbP86ivrwfQNh7b398farUaMTEx2Lt3L62XTQghxGVVVlZi7dq1uHnzJrRaLVauXImGhgapk+WU8vPz4eHhYbHhYOfPn3f4CpHKykq8+uqr+OGHH8TyV19f7/CfixBXVFhYiN/97ncWucZxHIcvvviCKt0k1u3EZzU1NaisrATQNh6b53mMGjUKWq0WAFBSUkKtvYQQQgghhBBCyL91G2TX19eLAfX333+Pt956C/v27cPChQuh1Wrx9ddf2ySRjoCWvyGEEOdw9+5do5aiCQ0Nxbp167B27Vq0trYiMzMTfn5+NkihIQ8PD4dd4ujOnTtGLc0ydepU3L171wYpchyhoaF46623sHbtWrS0tCAzMxP+/v70PGKG//iP/8Avv/widTKInfj555/x+9//3qbHVCqVkpXBe+65Bz///LMkx5YCz/O45557rH6cbu9s+uOx7733Xnz44YfQ6XTw9PSEVqvFmTNnoFar4evra/WE2jvqnkUIIa5n6dKlWLp0qaRpoODTdS1ZsgRLliyROhkO7//9v/8ndRIIkcxPP/0kdRKcUpdjstVqNc6cOQMACAwMxP79+yGXy+Hr64uJEycCAJqamuxqxkdawosQQgghhBBCiJS6DLI1Gg2ampoAAAEBAejXr5/4t9GjRwMAtFqtODEaIYQQQgghhBDi6roMsktKSsTx2Eql0mCZrpCQEPH/+l3KAWDnzp3Iy8uzdDqNQkt4EUIIIYQQQgiRUpdBtjCpGcdxHZbqioiIQGBgIIC2ydF4ngcAqFQq1NfXY9q0adZKLyGEEEIIcXGjRo2CTCYT/yX24/e//73Fhm/a6vV///d/Fvv8QUFBkMlkePDBB+Hm1u1qycSJdTrxmf54bE9PT/j4+Bj8vV+/fggICMDly5dRWVmJmpoaAMCBAwfw+uuvWznJhBBCCCG2V11dLXUS7A7P87hy5UqPE8DyPI+rV6/SRLEuwJIBKyGOqtPqlfLycly+fBkAMHHixA6zh8vlciiVSgBt47LDw8OxbNkypKSkGHQrJ4QQQghxBpWVlXjnnXfQ2toKALhy5QpeffVVl5+bJjc3F3V1dWLw/O6776K6urpDMJ2bm4va2toet+N5HuvWrcMPP/wAoO05c926deI8QYQQ4gg6DbKrqqrE/wuTnLUXExMDjuMAAImJiSgpKaGlvAghhBDiNHiex5QpU+Dm5oawsDDU1NQYBIX/8z//gyFDhkAmk+Ho0aMu1UqblZUFDw8PrFy50mCd9itXruD++++Hl5cX/vnPf2LJkiVwd3fvcjs3Nzds3LgRzc3NiIuLg6enJw4dOiRWZgDAkSNHMHDgQMTExOD27ds2/ZyEEGKOTruLp6amIjU1tds3hoWFobGx0aSDFRQU4MiRI6isrMTRo0fFoFytVmPixIl46qmnkJGRYdI+CSGEEEKsQS6X4/jx41Inwy6tWLECK1as6HG7yMhI7N6926h9FhUV9TZZhBBiFzoNsq0hIyMDaWlp4s/l5eUdJki7cOECeJ6nLueEEEIIIYQQQhySzaa8S01NBWMMKSkpAAy7pPv6+uLMmTN49NFHKcAmhBDi1GhWZNKZ4OBgKheEEOIkbD6vfHR0dKe/Ly8vR0REhI1TQwghhBBCCCGEWI7Ng2x/f39wHCeuww20jcnurPs4IYQQ4mwuXrwIxpj4LyEAxJm2bVEubt26hZs3b6Kurg4//fQTlUNCCDFCbW0tbt++jWvXrvV43bSLFdLz8/MxY8YMqZNBiFNRqVRYtWoVQkJCIJPJIJPJsGjRInqYIoQQQgghRklMTESfPn3EZ8nuXhzHYdy4cZg1axZ27NiB+vp6o547NRoN4uPj4eHhgeTkZPz66682+GTWZfMg28fHB56enqivrwfP88jLy4OPjw/CwsJsnRRCnA7P88jMzIRCoUB4eDjef/99zJ8/HxUVFdDpdNi7dy+N9SOEEBc3cOBAeHl5Yfjw4bjnnnvovmCEpUuXwt3d3ehAY/z48Zg1axays7PR0NBgdKChVCrh7u6OFStW4O7duzb4ZLaTkJAADw8Pq+Yhsbzs7GzcuXMHhw4dQt++fcXfR0VFobGxEYwx8fXtt9/i9ddfx6BBg/Dyyy9jyJAhiIyMxNGjRw2W8Gvv0KFDKC4uRktLC7Zt24Zjx451u71URowYgQEDBmDo0KE9XjdtHmT369cPAQEBAKibOCGWpFKpEBsbK04ueODAATQ2NuLPf/4zwsLCaFJBQgghxEy7du1CS0sLDh48CA+P3xbniY6Oxo8//tgh0Pjzn/+MgQMH4sUXX4S/vz/Gjh2LTz/91GD97/Zyc3Nx8uRJtLa2YuvWrTh27Fi32zuanTt34u7duzh06BD69Okj/j46OhparbZDHr722msYNGiQmIeRkZE95iGxnkcffRTDhw8Xg8spU6bA09PTYBtvb2/ExcXhnXfewXfffYcJEyZApVLhqaeewqZNm5yu4qg7knUXv3LlCjZv3oykpCSpkkCI08jNzcXkyZPx1VdfITIyEufOncOcOXOkThYhhBDiVCZNmtQh0Ojfv7/BNt7e3lAqlXj33Xfxr3/9C+PHj0d5eTmefPJJbNq0yS5b6Gyps2CtszwUgjUhD1UqFZ588kls3LjRpYI1exUUFNRta+6IESNQVFSEuLg4uLu7Y+3atdi8eTPu3LnT7b4GDRoEf39/h+9hY/MgWy6Xw9/fH01NTXjhhRfg6+tr6yQQ4lQyMjIwd+5cNDY2IjY2FsXFxQgODpY6WYQQQojTE5Ze68qIESNw/PhxTJkyBW5ubkhPT8fmzZs7DbT19+UsgYYxgoKC4ObWdUjSPg+FYI0Cbdu6ceMGmpqaAAABAQEIDw/v9nsD2uK+t956C97e3pDJZFi7di0+/fTTDuXfz88PHMdBJpPB09NT3N6RSdaSvWfPHhqHTUgvZWRkYNWqVWCMITY2Fp988gn69esndbIIIYQQq5Jqln6NRmMQaERERPQYDMjlcqxbtw6DBw+GTCZDenp6p92eOws0nFH7YM2UPGwfrNlj1/GamhowxnDp0iW7TJ+5ysrKcPPmTTDGMHToUPTv39+oQHjMmDGIj4+Hu7s7AGD79u24ffu2wTbe3t4YMGAAAJi0b3tm8yA7Ly8Pzz77LI3DJqSXVCoV1q9fD8YYOI7Dxo0bKcAmhBBCrKisrEyc7GnYsGHo16+fUcFAaGgo4uPjxZa/bdu2iYGmQJgcGACGDRvmFIFGZ/SDNVPyUAjWhDzsLFgj1nPp0iWxQquz8djdefrpp8Ugu6ysDGVlZQat2XK5HMOGDYObmxv8/Pyc4nnWpkG2SqWCRqOhAJuQXlKr1Xj22WfR2NgIAEhPT0d4eLjEqSKEEEKcm37LeWdjibvzzDPPiAFiaWkpysrKDFo65XI5AgICIJPJ4Ofn57QTlvYmD/WDtc7ykFiHRqPB2bNn0dLSgkGDBiEqKqrHruL69HtpAMDHH3/cIcj28/ODTCbDgw8+6BSVS1YPslNTU/H444/j9OnTKC8vR0JCgrUPSYjTO3DgAC5fvgwACAwMxNy5cyVOUdcKCgrw8MMPi8tyjB07Fg0NDQbb8DyPrKwsjBw5UtxOoVAgJyeHluwgRGI8z6OwsBBTp06Fl5eXwTmakpLS4Xwm9u/WrVu4efMm6urq8NNPP9F11khCoNHa2opBgwYhOjq6V4HGRx991CHIFgKNUaNGmbRvR9E+D00N1vz9/bsN1oh1qFQqXL58GYwxs8ZM63cHB4DPP/+8wxraQpkPDg6227JfW1uL27dv49q1az1eN636CXieR2NjIyorK1FfX08BNiEWoFar8c4774gn94svvgg/Pz+JU9W5tLQ0TJs2DV999ZX4u3/+8584cOAAGGNicB0QEICVK1eiqqpK3E6r1WLu3LnIy8uTIumEELQtWxQYGIj4+HgUFBSIvWeAtnM0MzMTo0ePxvnz5ylQI06voqLCINDw8fEx6f363cEB4Ny5cx3Wfx41ahRkMlmPE6o5qs7y0NRgrac8JJZXXV0tVgiNGzfO5En59LuDA0BTUxNu3Lhh8L0FBQWB4zinmfDPqkG2XC7H3r170djYiNmzZ1vzUIS4DP1WbI7jEBMTg4KCAiQlJSEkJERsZZLJZFAqlaioqJAknVu2bEG/fv3Q1NQEnU6Hxx9/3ODvtbW1iI2NxfHjx3H8+HFxbcz8/HwoFApxuw8//JBunsSp6Jdve8XzPKZMmYL09HSsWbMGzc3NYIxBp9MhNzcXXl5e4rZarVbchpiPAgX7V11dLX5H48ePF1udjaXfHRxoCzQ0Go3BNsHBwVAoFE4TaLRXU1MjBmuWzEM6d6yH53mcOHFC/N6s1cvCz88PgYGBJle82Cv7bIsnhHRJfyyTVqtFREQEiouL8de//hVVVVUGgWpRUREiIiKQkpICnU5nszSqVCrodDq89tprnU5e8cknnyA5ORn79+9HYWGhwXjy+Ph4TJ061SkusIQ4otraWoSHh6O8vByFhYVISUkRz2O5XI5Zs2bhxIkTGDx4sPiekpISlJWV0YOuBThCJYwr4nkex48fNwg0rHGf8vPzQ0BAgMmt5I6A53kUFRVZPQ+JZdXV1aGystLsLv5A23d/9erVbsfPjxkzBmfOnMGwYcOcolxQkE2IA1Gr1Thz5oz4c2xsLKqqqpCRkWFwQ46Pj8fXX3+N4cOHAwAyMzPxyiuv2OwBOCwsDK+//rp4kaypqUFlZaX494cffhiHDh0yaj3v0aNHWy2dhBBDarUa8fHxqKmpwZo1axAeHt7pw44wU7L+3/Rb+QhxNrW1taisrARjzKzx2EBboHHlypVuz5PQ0FCcO3cOf/jDH5wi0NBXV1eHCxcuiHlobrDWUx4Sy2poaIBWqzV7PHZnnGUt7O5QkE2IA9FfnxMA4uLiugxUfX19kZWVJV7A9u3bJ9n45tLSUmi1WgDAggULkJGR0eXyDDzPi5NhCN3hnfkiTFzPvHnz7La18tVXX0VtbS0CAwMxZ86cbh+AZ86cabeT0ziixsZGcByHuXPnUr7aofaBhiVami21H0dRX1/fIQ8tEaw5S/die6U/uZw547GBtrXR9Zdbc5a1sLtDV3FCHIhwgxKEhIR0u31UVBRiY2PFn7du3WpSt/GdO3fCy8sLCoUCx44dMz3B+G1mYqHW+dlnn+32oqrf6u1qDyCESCk/Px/79+8HYwwTJkwweUJFZ52oiRCgbSZwIdAwZywx0LGi3JQ1op2BfrBmbh7euHHDpfPQ1nieN5gvQn8JNVPoV1IBcJq1sLtDQTYhTkwul0OpVIo3nytXrhgdZKtUKqxduxaNjY3QarVYsWKFWUv16AfNgYGBiIiI6HZ7/VbvCRMmwNfX1+RjEmLPhNlxGxoawPO81MkB0PYgtXXrVrS2toLjOCQnJ5v00CrMCEvMIzzI9u/fnyoW7ZDw/Qj017s2hSsGGgL9XmqA+cGafms44Fp5KIX247HNnZCv/VJr5n7/joSCbEKcnH538s5mMrU2U4JmU1u9CXFE/fr1Q0BAgEmVXtZWW1srjpUcM2YMgoKCTDr3zHkP+Y0wznTo0KHUKmckhUJhs3xqPx7b3ECj/brY5gbrvVVQUIC+ffsarEZi7ovjOHz55ZfdTmgFdByPbW6lnCMEa860UkBZWRlu3rwJxhhGjx6NoKAgs8bR6+dJQEAAwsPDnX5YjHN/OkKcjL+/PziOs/p7gLbJy9atWweFQgGO45CVlWVy99HedBU3ptWbEEckl8vh7++P5uZmu1l6prS0VFwDOy4uzqiWocOHD4sP1sa+h3RO6EZMrXL2qaysDI2NjWZXQgGdBxoREREuU6GiH6wJeWiJYM2e85DjOLtNm7EuXbrU614Dp0+fRnFxsVg5kpiYiCFDhjh83vSEgmxCHIiPjw88PT3Fn6uqqqx6vISEBNy8eRONjY2YPn26ye+nruKEdG7UqFH48ccfUV9fL3VSDCrDOI5DdHR0jw8/arUaZ8+eBdD2oNvTJGmke0I3YlrSyD5dvHhRrFDy9/c3K9A4deoUiouLxf0sW7ZMsrWw4+Pj8euvv4Ix1uuXVqvFww8/3OP5r7/8qLnBWvs8TEpKctr1xO2BRqPB2bNnxeDYnF4DPM9j+/btuHv3LoC2+8Xs2bPh4eFh8fTaG7ojEuJAhG6mAv2bljFsPZEYdRUnpHMxMTHgOA6HDx+WvCW7fVdxYyYwq6iowOXLl8EYQ2ZmJo3H7iWhV4AxyxqSNnPmzIGXl5fVjyMEGvpjic1pgd22bZsYrLhaxZSQh0JwbKlgbc6cOXbXVRwAtFotBg0aZLfpM5ZKpRKv8+YOk2jfir1p0yanXJ6uM65xdhPiJORyOeLi4sSLU319vUkTJ02cONFmrcO96SoeGxuLqKgom6STECnY0+Rn7buKy+XybrfneR5vv/02WltbsWDBAkyfPt0lHpisRegCa+9dX12VfoWSuYFG+xbYjIwMl+guK+gsD03VPg83b96Me++912XyUArV1dVifpszHluj0SAtLQ2//vorAGDPnj146qmnHLriwRQUZBPiYObOnYvAwEAAQHFxMcrKyrrdXpiJk+M4LF++3GY3pN50FTfmQZ8QR+br64uJEyfiwoULqKmpkaw1W61W45133hEfpIxpxc7OzsbJkycxf/58bN++3WVa46xFmFSLJj0zjTB8ytoVVdXV1eL5ac54bI1Gg5SUFLEFdt++fXjyySdd6rypqakRrzHmjMfWaDRITU3FnTt3ANh3HgqzqPfr18+h1+/meR4nTpwQv7cpU6YYDFc05v1Lly5FVVUVBg4ciL1792L+/PkuE2ADFGQT4nB8fX2RlZUlXri7W/taWJaHMYb09HSEhYXZLJ3mdhXnOA4xMTEOe2MixFjCuOySkhLJ0iC0MAHGLcOVn5+PVatWYd68edi+fTv69+9vi2Q6NaEnwZQpUyg/TSCXyzFs2DBcu3YNzc3NVqmo4nkex48fNwg0TPmOeJ7H888/j5qaGgwcOBD79+/HvHnz7DI4tBae51FUVNSrPFyyZAmqq6sxcOBA7Nu3D3PnzrXbYI3neVy9ehVDhw5F//79HfZZRn/pLgAmVS7V1tYiLi4ORUVF8PT04bVc6QAADTRJREFURH5+vssF2AAF2YQ4pGnTpmHTpk2QyWQoLi7Ge++91+l2O3bsQHFxMRYuXIjU1FSbXex701U8NDQUQUFBNkknIVISxmUXFRVJtpSX/gzhWq0WpaWlXQYrmZmZmDFjBtatW4c9e/ZQQGghFy9exKBBg4yacI78pv0s/dagv3QXYFxPD/33TpkyBcePH8eAAQNQWFjocgE2YLh0FwCTWrHb52FBQQHmzZtn18HajRs30NTUBF9fX4fukbd9+3b88MMPYIyJQ1l6+t5u3LiB9PR03HfffTh79ixeeeUV1NbW4pFHHnG5cg9QkE2Iw0pNTcWOHTugUCiwatUqpKamig/qPM8jLS0NaWlpWLFiBbZv327ThzfqKk5Iz0JDQzF16lR8/fXXknQZF2YI1z/u6tWr8Ze//AXNzc3i7woLC/HII48gJycHX331FdLS0lzygckaKisrUVBQgFGjRtE642YQeoNYa13ibdu2dQg0evqObty4gdWrV2PkyJE4d+4ckpOTUVdXh7Fjx7rk92tuHq5Zswb33Xcfzp07h1deeQV1dXVGzWIutYaGBjQ2NuLBBx+0+7R2hud5vPnmm9i7d684xKGpqQmnTp3qsBZ6XV0dzpw5g/T0dNx///3w9fXFhg0bsGDBAnzzzTfIysrCwIEDpfgY9oERQhxadXU1S0xMZBzHMQAMAOM4jiUmJrKqqipJ0pSRkcFkMhkDwBYsWMBaW1u73Fan07HHH39cTHd5ebkNU0qItPLy8pibmxvbuHFjt+eJtY7t7u7OALCYmBhWX1/P0tLSmEKhMLiWJCQksPPnz9s8fa5gy5YtzN3dnX3yySespaXFZsf99ttv2cCBA9nQoUPZ9evXHfa7ValUzMfHh82fP5/duXPHYvvV6XTsjTfeEM8PAGzQoEFs//79Hb6n2tpadvr0abZ69Wo2cuRI8d63ZMkS9t133zls3vaWTqdjf/vb35iHh4dBHu7bt4/dvXvXYNvu8vDbb791qDxMSEhg7u7u7KOPPurwOe1ZZWUl8/PzE/Pe2FdQUBAbN24cS0lJYaWlpTa9jkkhOjqa9e3bl+Xk5PT4/coYk3jtEEKIS8vLy8OMGTPAGENsbCw++eQTs9bPJMQR8TyPp59+GnV1dTh16pRNl8J6/vnnsXfvXjDGsHHjRqSmpjpky4uj0mg0eOyxxzBkyBB89NFHGDBggM2O/d1332HChAno378/zp49Cz8/P4dsZdVoNIiKioK/v79F8rCyshJKpRI3btwwqWU8KCgICoUC48aNw4wZM/Doo4+67Ll04cIFKJVKaDQas/Nw+vTpmDRpksPlIc/zeO6551BdXY2TJ09i6NChDnle2bvjx4/jyJEjUKlUyM3NFfNZo9EgNjYWTzzxBDZu3Ii+ffta/NgxMTE4e/Ys9u7di2effbbboQvOvxI4IcSuHT58WPw/dRUnrkYul2P58uWYMWMGDhw4gLS0NJs8lOl3Fec4jsYDSyAnJwd1dXXYsGEDjW83k4+PDyZMmIBjx46huroakZGRvSrHoaGhUKvVFkyh9RQVFYmBxocffiguZ6XRaBAdHY24uDhs2rQJHh62fdQfM2YMGhoabHrM9oqKinD06FGoVCocPHhQXJdZo9EgJiYGkydPxqZNm9CnTx+LHleYLGzkyJEOPemZPXv77bexatUqcVmw8vJy3HvvvQbB7sWLF6HT6cBxnFTJBEBjsgkhElKr1Thz5gzNKk5c2mOPPYbY2Fi8++67Nns41Z9VfMyYMSZN6ER6T6PR4N1338Vjjz2GqKgoh2uxsyfCuOyysrIOY0adVVZWFqZPn4733nsPX331FcrLyzu0Gn/99deSTagopa1bt2LGjBl499138eWXX6K8vLxDuRCCMEsrKytDY2MjJk+eTBVnVpKcnIxffvkF6enp6NOnj8Fa3j4+PiguLkZMTIxd5D9d1QkhkikvLxcf9GlWceKq5HI5Nm7cCJ1Oh7Vr19okUNCfVZx6kNheTk4Obt26hfXr15u09izpKCoqCl5eXjh+/LjLBJUrVqzAnTt3sHr1ari7uxus5e3j44PS0lJER0e75NCr5cuX49dff8WaNWvg4eHRIW9KSkoQHR1tlSDs0qVLGDhwIFWc2UBXwwlUKhXGjBljF/kvfQoIIS6rurpa/D896BNXFhoaivT0dHzwwQfIy8uz6kzj+l3FAwMDMWfOHLt4IHEVlZWV2LBhA1atWmXUTMuke6GhoYiPj8fFixcNAipX8Nhjj3V67lZUVCA0NNSlz+uu8kalUiE0NNTi592FCxeQn5+PBx54AMHBwS6d97bg5+cHhUKBb775Rqww1mg0qKiowJQpU+ximTcqAYQQSbRfSzskJIQeNolLS0pKQmxsLFauXGnVbuO5ubmoq6sDAEyYMAF+fn5WOxYxpFarMWvWLDzwwANITEykB3ELeeaZZ3Dr1i2X6jIOtAUaHMfh0qVLHQKNuLg4ly5fQt5888034nOGRqNBeXk54uLiLB6ECV3FX3nlFeqdIpGioiKrfLfmct2zjxAiKZ1OhytXrgAAOI6z6azKhNgjuVyOvXv3ws3NDYsWLTJYq9pS9Cu3OI5DcnIyVW7ZCM/zWLx4MVpaWrBnzx56ELegSZMmITY2Fjt27EB9fb1LtWa3V1hYiPj4eLsJNOxJYWEhlEqlxSsfNBoN3nvvPTz66KOIioqivLcBb29veHp6Qq1Wi/c1hUJhVz047CMVhBCXo9Fo0NTUBADw9PSEj4+PxCkiRHq+vr4oKCjAtWvX8Morr1g80M7OzkZxcTEYY4iPj0d4eDgF2TaSnJyMiooK5OTkYMiQIZTvFiSXy5GcnIxr164hNzfXZVqzfXx8MGDAADQ0NIDneRQUFMDLy8sq3aEdjbe3t5g3Op3OIG8sHYQdPHgQtbW1ePnll6nyzEbkcjmGDRsmzhpvT93EBRRkE0IkERYWhps3b4Ixhrq6OuqySsi/BQUFoaCgANXV1RYPtFeuXImWlhYwxrBv3z67qfF3ZjzPY8mSJTh16hROnTqFhx56yOUDIGtwxdbszgINV+8mLugqbywdhFErtrSuXr2KzMxMLFiwwObL1fWEzkJCCCHEzgQFBeHkyZPQaDR4+umnrdJ1nFgfz/NITk7G999/j/Lyctx3330UYFuJXC7H+vXr8dNPP+FPf/oTWlpapE6SzVy9ehVbtmzBokWLKMhrRwjCrJU3Bw8exI8//oi33noLAwYMsPj+Sefkcjn8/f2h0+mwdOlSu+wdREE2IYQQYofkcjlOnDiBxMREzJ49G1VVVVIniZigtrYWs2fPxiOPPILjx49TN1IbCA0NxZo1a5Cbm4tjx445fbdxIdBobm5GYmKiXQYaUpHL5fDz80NzczMSEhLg7+9vlRnFN2zYgJUrVyIiIoJ6EEhgx44dGDt2rF3mvX21qxNCCCHEwKxZszB16lTs3LkTdXV1UCqV9CBt586cOYPq6mocOHDAKuvxkq4lJCSgqKhIXCLt3nvvdfrzZefOnTQMoQvZ2dl46KGHrDLZ2Zw5c3DfffchMTHR7roqO7vCwkLMmDEDSqXSbntvyJgrDFohhBBCCCEA2gKExx57DEOGDMFHH33kdN1cNRoNoqKi4O/v75SfT1BQUIDW1lbEx8fbZUuelAoLC9HS0mKVIIzneTz33HOorq7GyZMnMXToUKrgsKELFy6gvLwcCxcutHnlRlJSEo4ePYojR47g4Ycf7va8ozOSEEIIIYQ4DR8fH+Tl5aG+vh5//OMfcfv2bamTZHGVlZVQq9VWWZLK0V24cEHMG2u0cq5cuRLl5eX44IMP8Ic//IECbBtYu3YtJk+ejJKSEskCbFPRWUkIIYQQQpzKiBEjkJeXh7q6OiQnJztFoL1mzRo88cQTKC0tRXl5ORYvXmy3XWVtLT09HZMnT0ZpaSnOnz9vlYnOeJ5HQkICysrKUFJSYrdjgZ0Nz/NobGzEhQsXcP36dYcIsAEKsgkhhBBCiBMaMWIETpw4gR9++AEzZ8506EBbP9Cor6+nAFuPkDeVlZW4fv26VfKG53msWLEC165dw5dffokHHniAWrBtRC6XIzs7Gzdu3HCYABugic8IIYQQQoiTksvlKCoqwqFDhzBv3jxs3rwZI0eOdLgASS6XY9euXVInwy7J5XLs3LnTavuvra1FSkoKpk79/+3dsYmFUBBA0dHYxNxO7MDNLcNC7EAEEwsxsgBDEytR3BZceCD/7zlgKhMJdx4Pf2IYBssNHhHZAAB8tbZto2mamKYpjuNwl5lH1nWNfd9jnme/4eNPRDYAAF+vKIrouu7tMfggdV1HXddvj8EHssIDAPiHlmWJsiwjy7JHT9/3cV3X22MDJLFtW1RVFXmeP/oGjuMY53k+erfIBgAAgESy+77vt4cAAACAb+AkGwAAABIR2QAAAJCIyAYAAIBERDYAAAAkIrIBAAAgEZENAAAAiYhsAAAASERkAwAAQCIiGwAAABIR2QAAAJDILyWENYmDg4SsAAAAAElFTkSuQmCC;" vertex="1" parent="WIyWlLk6GJQsqaUBKTNV-1">
          <mxGeometry x="206.55" y="1563" width="312.14" height="45" as="geometry" />
        </mxCell>
        <mxCell id="HX48B-1rYJLwdNwCFjf0-147" value="" style="shape=image;verticalLabelPosition=bottom;labelBackgroundColor=default;verticalAlign=top;aspect=fixed;imageAspect=0;image=data:image/png,iVBORw0KGgoAAAANSUhEUgAAAEAAAABICAYAAABGOvOzAAAEXUlEQVR4nO2aP0jzQBjGn358Y6VDHFo6WVA3/yBdtKLYDhbFQRDBoZPdpSqu4tzFRXB0aQfHWh1EUezaP7jZQp3SdNBBLvt9w0fvS4OtyeXaM5/5QSEHuZfnntzdm3tTH6WU4gfzS7YA2XgGyBYgG88A2QJk4xkgW4BsPANkC5CNZ4BsAbL58Qb8tnOzz+cblI6B8dVZz5YB/+PB8ccvAc8A2QJk4xkgW4BsPANkC5CNYwN0XUcikYDP57P8W1hYQDKZxOHhIarVqohx8EMFks1mKQD2i0QitNVqdd1DCKGVSoWenJxQRVEoAKooCs1kMpQQIlKOJYQa0Gq1aCQSYQakUqm+9xNC6PHxMbs/Go3Ser0uUtKXDNSAbDZrqV8+n2d9FEWhlUpFpKy+CDWgUChwDySVSrG+8Xh8aMtBaBZ4eXlh1zMzMxgfH7fcd29vD4qiAADu7u5wfn4uUlpPhBmg6zpubm5YOxwOw+/3W+4/OzuLtbU11j47O4OmaaLk9USYAYQQvL6+svbW1pbtGFNTU+y62Wwil8sJ0dYPYQaUy2U0m00AgKIoCIfDtmNMTk52tZ+fn4Vo64cwAy4vL9m13fXfIRwOs30AAEql0sCXgRADdF2HqqqsnUwmba1/mQgxoNFooFarsbZ5KvPy8fGBdrstJFYvhBhwf3+P9/d3AEAkEsHc3JyIsAgEAggGg0Ji9UKIAcbNamxsDCMjI1xxVFVlRg4LxwZomoZSqcTaTta/8UUKcGamVRwbYE5/Kysr3LHMaW8Ym6ljA4xPzcmaNWcSQNxm2g9HBphff2OxGEKhEFcscyaJx+NYXl52Is8Sjgwwiza+ytrFmEmAIb5LODlKOjn+GjHXET6rJA0KRzNAxOsvAORyObaRAsDp6Sn3UrINr3N2y1+9qFQqrDboJA4v3AaYhRcKBdsxCCE0Ho9LGzylDgwwVoB51iwhpKsMZrV+KBouA8xPzm4Nr16v02g0yjbPfD7PI0MIXAYYd387T0/TNJrJZFi/dDo99DK4GdsG5PP5rrXfawYQQmij0aDX19f04OCgq8/q6qr0gXfwUfr1/140TUMsFutKVVaZmJjA6Ogo5ufnsbGxgcXFRdsxBorsJ2CHYrFI0+k0jUajXZtuJyVnMhnbMV1jgDFjwJR2OwbwZCPXfB6/uLgAIQSpVApA9yk0FAqhVCphc3PTdv3ANQYAgN/v7/m9oVwuY2lpyfYBylUGAP9K58biiaZpeHx85Do+u86AzygWi9jZ2eE6Ptv6p+h3IBgMIhAIQFVV6LqOh4cHAH+/LfLg6hmgaRrK5TJ2d3f5g4hOV4Omcw5RFIVub287Lpy4egYcHR05Lpy4zgC/34/p6Wnc3t5yr3sjls4C34mrqysAwPr6upB4rpoB1WoV7XZb2OABFxiwv7+PRCKBp6cn5zv+J3xrA3Rdx9vbG2q1GlRVFT54wIV7gGi+9QwYBp4BsgXIxjNAtgDZ/HgD/gCKVOInHkjxCAAAAABJRU5ErkJggg==;" vertex="1" parent="WIyWlLk6GJQsqaUBKTNV-1">
          <mxGeometry x="553.5999999999999" y="1573.25" width="20.89" height="23.5" as="geometry" />
        </mxCell>
        <mxCell id="HX48B-1rYJLwdNwCFjf0-156" value="K&lt;sub&gt;y&lt;/sub&gt;&amp;nbsp;= 0" style="rounded=1;whiteSpace=wrap;html=1;absoluteArcSize=1;arcSize=14;strokeWidth=2;" vertex="1" parent="WIyWlLk6GJQsqaUBKTNV-1">
          <mxGeometry x="10" y="1383.25" width="124.22" height="40" as="geometry" />
        </mxCell>
        <mxCell id="HX48B-1rYJLwdNwCFjf0-157" value="" style="strokeWidth=2;html=1;shape=mxgraph.flowchart.annotation_2;align=left;labelPosition=right;pointerEvents=1;" vertex="1" parent="WIyWlLk6GJQsqaUBKTNV-1">
          <mxGeometry x="142.2" y="1372.75" width="20" height="59" as="geometry" />
        </mxCell>
        <mxCell id="HX48B-1rYJLwdNwCFjf0-158" value="&lt;b style=&quot;border-color: var(--border-color);&quot;&gt;Коэффициент, учитывающий факторы, влияющие на скорость седиментации для утяжеленного р-ра&lt;/b&gt;" style="text;whiteSpace=wrap;html=1;" vertex="1" parent="WIyWlLk6GJQsqaUBKTNV-1">
          <mxGeometry x="162.20000000000005" y="1363" width="156.42" height="112.75" as="geometry" />
        </mxCell>
        <mxCell id="HX48B-1rYJLwdNwCFjf0-164" value="" style="rounded=1;whiteSpace=wrap;html=1;absoluteArcSize=1;arcSize=14;strokeWidth=2;" vertex="1" parent="WIyWlLk6GJQsqaUBKTNV-1">
          <mxGeometry x="112.8" y="1700" width="330" height="70" as="geometry" />
        </mxCell>
        <mxCell id="HX48B-1rYJLwdNwCFjf0-165" value="" style="strokeWidth=2;html=1;shape=mxgraph.flowchart.annotation_2;align=left;labelPosition=right;pointerEvents=1;" vertex="1" parent="WIyWlLk6GJQsqaUBKTNV-1">
          <mxGeometry x="442.8" y="1700" width="29.49" height="80" as="geometry" />
        </mxCell>
        <mxCell id="HX48B-1rYJLwdNwCFjf0-166" value="&lt;b&gt;Коэффициент, учитывающий факторы, влияющие на скорость седиментации&lt;/b&gt;" style="text;whiteSpace=wrap;html=1;" vertex="1" parent="WIyWlLk6GJQsqaUBKTNV-1">
          <mxGeometry x="487.46" y="1650" width="255.71" height="40" as="geometry" />
        </mxCell>
        <mxCell id="HX48B-1rYJLwdNwCFjf0-167" value="C&lt;sub style=&quot;border-color: var(--border-color);&quot;&gt;0&amp;nbsp;&lt;/sub&gt;- объемная концентрация выбуренной породы&amp;nbsp; &amp;nbsp; &amp;nbsp; &amp;nbsp; &amp;nbsp;в осадке на забое скважины" style="text;whiteSpace=wrap;html=1;align=left;" vertex="1" parent="WIyWlLk6GJQsqaUBKTNV-1">
          <mxGeometry x="463.29" y="1700" width="283.45" height="30" as="geometry" />
        </mxCell>
        <mxCell id="HX48B-1rYJLwdNwCFjf0-172" value="h -&amp;nbsp;высота осадка на забое, см" style="text;whiteSpace=wrap;html=1;align=left;" vertex="1" parent="WIyWlLk6GJQsqaUBKTNV-1">
          <mxGeometry x="463.59" y="1737" width="186.41" height="21" as="geometry" />
        </mxCell>
        <mxCell id="HX48B-1rYJLwdNwCFjf0-174" value="- средний размер частиц выбуренной породы с учетом диспергирования, см" style="text;whiteSpace=wrap;html=1;align=left;" vertex="1" parent="WIyWlLk6GJQsqaUBKTNV-1">
          <mxGeometry x="478.51000000000005" y="1760" width="283.45" height="30" as="geometry" />
        </mxCell>
        <mxCell id="HX48B-1rYJLwdNwCFjf0-175" value="" style="shape=image;verticalLabelPosition=bottom;labelBackgroundColor=default;verticalAlign=top;aspect=fixed;imageAspect=0;image=data:image/png,iVBORw0KGgoAAAANSUhEUgAAADQAAAA5CAYAAAB55gg1AAACO0lEQVRoge2ZQW7jMAxFvwdzlxrwjj5IFgWyU68xu1mr55hdgALSRbwz5JyGs0haS4mDmhKLCoU+4IUCieEjZYZSOmZm/CD9+m4HtNWAalcDql0NqHY1oNrVgGrXb+mCruu+wo+HkraaYqDae9kft+UaUO1qQLWrAdUuJaAFr2OHrtv7jBjHEePLC169x6LjxEWsqsDOEgNYH7Ic7qYFDs6yoXUukWF3N1EuZSBmZscmAiL7iZfBMn3MJzaFVPpANw5+xnNZkwbBuPyv1wdyJtpyhnf7lqzbGYgNqQM5E70/olAHtpS7dpV6UYidkvoUkoKSlyXd36HF4zS9DwjDk2x53w/RaMLJywu6KtDiT1h5jjj0QgNPAygaTif5b5Qi0AK/pgd0PEDKg75HnCNMM85CE4pAZ8wrD4ZejLOhGYswRXpA/g3/PgYGzwc1yyKpAfm3FQfmGVk8y4I5+WCANNFKQB4xD0nL2yPRAKklHaAksoSjuLxddZ4xxeOhFxcWFaDicn1Vsm2Rl2kFoLRc50T13c6SvEAGf/9kWJI3F3f9StRdF3TKN3a+r5fL7a7vzKCObjtxZOt0ukdK2WEuBhKeTh9ZSbKTn2XmUiCFQ1l6ZCiDYS4EKnYmDgiVwzAXAaXbTbrv42CQcXnv3obygZLttr9cX66v9G55bpUFFJxJq9I1Q5v3b8Gxs5aNSY/XxgW1rMQSAN1sMcFDREzGsLWOw1dQROqYK/+PUah2WV+7GlDtakC1qwHVrv9Y4NDRWG3F1gAAAABJRU5ErkJggg==;" vertex="1" parent="WIyWlLk6GJQsqaUBKTNV-1">
          <mxGeometry x="460.26" y="1760" width="18.25" height="20" as="geometry" />
        </mxCell>
        <mxCell id="HX48B-1rYJLwdNwCFjf0-176" value="k = max (k, k&lt;sub&gt;y&lt;/sub&gt;)" style="rounded=1;whiteSpace=wrap;html=1;absoluteArcSize=1;arcSize=14;strokeWidth=2;" vertex="1" parent="WIyWlLk6GJQsqaUBKTNV-1">
          <mxGeometry x="206.54999999999998" y="1820" width="124.22" height="40" as="geometry" />
        </mxCell>
        <mxCell id="HX48B-1rYJLwdNwCFjf0-179" value="&lt;img alt=&quot;&quot; src=&quot;data:image/png;base64,iVBORw0KGgoAAAANSUhEUgAAAKUAAABSCAMAAAACYuRJAAAAAXNSR0IArs4c6QAAAARnQU1BAACxjwv8YQUAAABaUExURQAAAAAAAAAAAAAAAAAAAAAAAAAAAAAAAAAAAAAAAAAAAAAAAAAAAAAAAAAAAAAAAAAAAAAAAAAAAAAAAAAAAAAAAAAAAAAAAAAAAAAAAAAAAAAAAAAAAAAAAItJXlEAAAAddFJOUwAMGBklMT0+SkxYY2Rxc31/jZmaoam3u7zK2d3sVYWb0gAAAAlwSFlzAAAXEQAAFxEByibzPwAAA1xJREFUaEPtmQ1znCAQhs94tsG05K5H7H3I//+bfYHlAoqKqRSm4zOTCX7M+brLLqx72NnZ2fkvaTop+5YOCqW63F4PlZCcjp+8fHvvupoOMnN8XCv8qx+Purq6UtldSinoIDNHqFP/oZA1vTQHBOslo2Fe6gcJUXaESm1XC/dF50NYXZDL8ed5+HkxM0xan8KO3J+XWjgNswJZ1lrQy2E8dx4y2Tc0zIqWZuDKqtyTJRan5RGJ1pBwasCUVocZMlcWTgn1HopwqCMHWBJODUiw0WLCu/lwTIJTShyXlwm/4wZLyqkh6BmGoTlMHmruU0tn3bV4rz51GkAMWw9jODKHzkNNd6TDESd1hU9Mhu1wHO4MLToPtZd5S6l1lYap0GFtgO+fNmF9r8YqD/kxr6CLFpYybAzi6WVvaYRiZVcub9195E+6SFTXlGGjcfLQp15gzIWrfctH88C3ZdMPr28OdJAB1eqoBw46Dy1FcPrYMVlbE9pV6DxUP2Y9ahzOvtNhGgSpZAGR5iJeBMZqpzIm7N0eXt2VYIK/KVlIXdCttB/CxKxOZ3NqjF4+l+NnsmSJApY6VdXP/hwwBu2HlI7pqalVLj7bKVnMiZVUZ5jiElxcuBEHk4begcBrwkoLuCWLPlEieE8jDiqTrwBfxitZ9KBAMHXJz6GkXAhwsw0+6C1VpSPN2dsUBkxp048zLA2Y0m5HvG1XWcyXLAq9MDgsr2Sbg+RjvYxhUEABKh2HO8PSmChZCmOiZImDpkAS6BEaJ/l4JYtL/nn5ufBMr45FqKSIKeVDaJDZkqUY5kqWcoDLJ0uWgpgpWcqluWWJ4nXUby8fhUsEbxUrOowsItlavmHPtP698neq9h5XK23ZM2UCXqdxBM0Fj46t6LbrmQq+5vtc0/2ChWJVbtcz5f0PGkWCvUisyoxbhfgvDTm/nIRVioDVcvZM41Xm7JlGq9RbWdpRh0M9Yc80WiVuVOLy9EyjVWbtmUarzNozjVWp81C2nqmvcrreDPZMBy1T3BR44y2IVRnsmfotU6SBVBk10uPIQ4Ge6cCW6XqmkSpxW86eaaTKzD3TSJWb9kzXg58OTKahStoPbdIz/QLVScrHOFMPVW7YM10PXGgYzvqhyu16pjs7Ozv/mMPhD3MSZ0Bt9XQ/AAAAAElFTkSuQmCC&quot;&gt;" style="rounded=1;whiteSpace=wrap;html=1;absoluteArcSize=1;arcSize=14;strokeWidth=2;" vertex="1" parent="WIyWlLk6GJQsqaUBKTNV-1">
          <mxGeometry x="167.42999999999998" y="1921.13" width="212.8" height="98.75" as="geometry" />
        </mxCell>
        <mxCell id="HX48B-1rYJLwdNwCFjf0-180" value="" style="strokeWidth=2;html=1;shape=mxgraph.flowchart.annotation_2;align=left;labelPosition=right;pointerEvents=1;" vertex="1" parent="WIyWlLk6GJQsqaUBKTNV-1">
          <mxGeometry x="380.68" y="1941.01" width="34.55" height="59" as="geometry" />
        </mxCell>
        <mxCell id="HX48B-1rYJLwdNwCFjf0-181" value="&lt;b&gt;Статическое напряжение сдвига за время &lt;span style=&quot;font-size:14.0pt;line-height:107%;font-family:&amp;quot;Times New Roman&amp;quot;,serif;&lt;br/&gt;mso-fareast-font-family:Calibri;mso-fareast-theme-font:minor-latin;mso-ansi-language:&lt;br/&gt;EN-US;mso-fareast-language:EN-US;mso-bidi-language:AR-SA&quot; lang=&quot;EN-US&quot;&gt;t&lt;/span&gt;&lt;/b&gt;" style="text;whiteSpace=wrap;html=1;" vertex="1" parent="WIyWlLk6GJQsqaUBKTNV-1">
          <mxGeometry x="435.90999999999997" y="1900" width="177.54" height="50" as="geometry" />
        </mxCell>
        <mxCell id="HX48B-1rYJLwdNwCFjf0-182" value="" style="shape=image;verticalLabelPosition=bottom;labelBackgroundColor=default;verticalAlign=top;aspect=fixed;imageAspect=0;image=data:image/png,iVBORw0KGgoAAAANSUhEUgAAAssAAACXCAYAAADj2xZ+AAAgAElEQVR4nO3de3BUVZ4H8G9HZqq2pgGZ7kgSdKWbJIyzS0yDiQqoSOPQCei4iryEgJhAjQ9eYcbguqvM1ApKEgI16ghhBUQeEsEhSQdGCD7A3ZKlOzJuOeQFszvpDpIeSfpaW6WSs39Q987tTjrpV/r5/VSlSHdumnP79L353XN/53c0QggBIiIiIiLqIyXaDSAiIiIiilUMlomIiIiIfGCwTERERETkA4NlIiIiIiIfGCwTEREREfnAYJmIiIiIyAcGy0REREREPjBYJiIiIiLygcEyEREREZEPDJaJiIiIiHxgsExERERE5AODZSIiIiIiHxgsExERERH5wGCZiIiIiMgHBstERERERD4wWCYiIiIi8oHBMhERERGRDwyWiYiIiIh8YLBMREREROQDg2UiIiIiIh8YLBMRERER+cBgmYiIiIjIBwbLREREREQ+MFgmIiIiIvKBwTIREYXM6XQiMzMTGo0moK/a2loIIaLdfCJKEE1NTUhLSwv4XPT++++jt7e339dksExERERE5AODZSIiChuz2Yyenh4IIfz6evDBB6HRaKLdbCJKELm5uejs7PT7HLRs2TKkpAwcDjNYJiIiCpIkSaiqqoLVamU6SZxraGhAVVUV3G53tJtCMYbBMhERURAOHjyIuXPnorCwEIWFhRwhj3MFBQWYNm0aCgsLUVdXx4sfUgyLdgOIiIjiiSRJKC0tRVtbGw4fPowRI0ZEu0kUJrm5uXj33XfxyCOPoLGxES+99BL7lziyTERE5C+n04kZM2YwUE5g6enp+OCDD/Df//3feOSRR9Dd3R3tJlGUMVgmopiWkpIScAmgUL5465V8cTqd+Kd/+idotVoGyoMYNmxYRI9bjUaDa9euha39Wq0Wu3btwjfffINHH300qQPmH/7whxHtx++++y7au9wHg2Uiimm9vb1+z2oOxxfzTqk/kiRhyZIluHLlCnbv3s1AeRDff/99RI9bIQRuuOGGsO5Deno6Dh8+jP/5n/9J6oD522+/jWg//uAHP4j2LvfBYJmIiGgQzzzzDOx2O959912MGTMm2s2hCElPT8eWLVvw4YcfYvv27T4XraDExmCZiIhoAPX19Xj77bexc+dOTJw4MdrNoQibNWsWNm/ejLKyMq44maQYLBMREfngdDqxevVqPP7441xAJYmVlJRgxowZWLt2LTo6OqLdHIowBstEREQ+rF+/HlevXsWqVasYKCcxrVaLlStX4s9//jOef/55pmMkGQbLRERE/bDb7bBarSgoKGD6BWHWrFlYvHgxGhoaYLPZmI6RRBgsExER9WPr1q0QQnBUmRSrVq1CSkoKtm3bxmA5iTBYJoowSZKwZcsWjB8/XqkrOX78eFRXV0e1XVarFcuXL/dol0ajgV6vR0FBAXbu3InOzk4AQEtLC/Lz81FXVxfVNhMNFY4qU38yMzORm5vL0eUkw2CZKELkIHns2LH48ssvUVdXByEE3G43brnlFpSUlGDJkiUev+N0OpGfnw+NRoPS0tKwt6mlpQXLly+HRqNBUVERbrvtNtTX13vUvPziiy/w05/+FMXFxUhPT4dGo0F2djba29uRkZER9jb5Q5IkPPDAA34Xudfr9ZgyZQrmz5+Pd999F5IkRaXd/nA6ncjMzPR738aPH4/ly5fDZrNFu+kJZevWrejq6sKcOXOi3ZSEIkkSfvazn/m92JD62D148CDcbndU2y/nLn/99dc4depU0gbLkiRh5syZAfXj5MmTMW/ePBw4cCDq/RgwQURDrrm5WeTl5QmdTif279/f5+cOh0MYjUYBQNTW1irPl5eXCwDKl/pnoXC73WLt2rUCgM82ebPZbEKv1yttMZvNoqenJyztCZbb7RYvvfSSx3vUX7ucTqeor68XFotF2c5isYgLFy5EqeX+OXDggNBoND73zWazieXLlyvb5OXlRW2fHA6HGDduXEx8LkLlcDhEZmamMJvNoru7O9rNSUhut1ts2LBBpKSkKJ/v6dOn93m/nU6nsFqtoqCgQPmcz5w5U/zpT3+KUsuvfz6ysrKE2WwWV69ejVo7YoHb7Ra//vWv+/Sj9/si92NhYaFHP3755Zeit7c3Sq2/btmyZSIlJUUcOXJEXLt2rd9tGCwTDbHm5uZ+A2E1t9stzGazEhC53W4hhBBFRUVhD5ZtNpvQ6XQCgDAajaK5udnv362trVVOdEVFRSG3JRzkIE1+jzZv3jzgyVcd9Ot0OrFv374ItjYwbrdbzJgxY9B9q6ioUPrFaDSKjo6OiLc1kYLluro6kZKSMuhniUIjX5TIn+9XX311wPfbbreL1NRU5dh95513otY/S5cuFXq9Xpw9ezbpPyMOh0NkZ2cr56BXXnnFZ9ApxPV+HD16tNKPe/fuHXD7oeZPsMw0DKIh5HQ6YbFY0N7ejqKiIsyePbvf7bRarbIqWFNTE1paWgAAOTk5yjY6nS7klcMOHDiAiRMnwuVywWg04vTp08jKyvL79ydNmgSj0QgAMXN7urOzU1mGVqfTYfr06QNOxjKZTPj0008xbtw4uFwuLFy4ELW1tZFqbkDcbjcuXryoPJbzyb0tWLBA6Zf29naUlZUl7e3hcDh06BCEEMjOzo52UxLa5cuX+xy7A8nNzcWZM2eQmZkJl8uFxx9/PGqLhMyZMyfpUzFkcj8KIaDT6XD//fcPeA7Ozc3F6dOnkZ2djb/+9a9YtGgRjh49GtPl+BgsEw0RSZKwePFitLe3w2g0YtOmTX79nsvlUorejx8/Xnl+5MiRSEtLC7o9FRUVWLBgAYDrf5hqamqQnp4e0Gukp6djypQpYQncw6WjowMulwuA/+9RVlYWqqqqlBP6E088EZM5v+oLAaPRiEmTJvW73fDhw2EwGJTHZ86cgdPpjEgbE40kSXA4HDAYDJg0aRKrYAyh/o7dwd5v+dhNSbkevixbtiwqE+0mTpwIo9GI48ePx1/+bZh1dHSgq6sLADBixAi/+jEzMxNbtmzBDTfcAAAoLi7GuXPnYvbCg8Ey0RB5+umncfLkSQDAU089NWBgKklSv6tCjRkzBjqdDgBgMBgwfPjwoNpSV1eHdevWKY937doFk8kU1GsB10cGAhmRHko1NTXKCXbq1Kl+XwBMmzYNZrMZwPULFLlMWCw5deqUEkwM1P/ynQn5D1R3d7dSuYQC09LSgqamppCON/KP+tidMmWK38fufffdB7PZDI1GE7VjV75AvXjxYtIHy++9955HP/o78fvee+/16Mdt27bF7Ogyg2WiIVBXV4c9e/YAuD4iuHDhwgG3977dLktLS8PIkSMBXA+ctVptwG1xOp1YtWqV8thsNmPatGkBv44sJycHY8aMiYlAwvsiY86cOX6PBGq1WhQUFCjb19fXw263D0k7gyFJEhoaGpQ/QhaLxWf/y+9DrAX78cjhcMDlcsFiscTEZzxRhfPYtVqtER9d1mq1sFgscLvd6OzsTNpjz/vcM2fOHGXUfzBarVapqAEgpsvxMVgmCjPv4HSwUWXA83a7mvr2ujp/ORBlZWVob28HcD39YvPmzUEF3WqPPfZYSL8fLvIoIBBcTrc6J9XlcqGxsTFmTtTqC6jBcrG9L7ZiaeQ/3ly4cIH5yhHQ2tqKpqYmJc811GM3GrnDcs5tMuctt7a24vPPP1f6MdByoup5GNHqR38wWCYKs3379inBqT+jyoBn7p76D4d64p86f9lfdrsd9fX1yuNwBFGlpaU+JypGWmNjo/K+BbNv6jQXADh27FjM1GA+d+6c8jkaLBd7//79yrbAwKPQNLDz588rxyDzlYeO+ti9/fbbkZWVFdD7HQvHrtyGP/7xjzEZ4EXCqVOnlHzl22+/HdnZ2QH1Y0ZGhkc/Hj9+HD09PWFvZ6gYLFPUdHZ2wm63491338WKFSswZcoUFBQUeExMkiQJpaWlSmFzXwtzyNvp9fohW8DDH06nE6+//rry2N8c2gsXLijfewdGOTk5A07uGkhVVZXyBwkAVq9enTBBlCRJOHbsmF9pCr6o01wAxFT+YU1NjfL9QPmcdrsdGzduVN6HxYsXK8cMBUae3CdPUqKh0d+xG2jKy+jRo3HjjTcqjy9duhTxIGv06NEYOXIkHA5HzFxkR5Lcj3Ke8cyZMwPuR/kcLJ+v5HNwrF18DIt2Ayg5VVRU4PDhw7hw4YJHMFdUVKQEBXa7HQ888IDHzysrK3H//fd7jGz6u10kqEeVdTodVq9ePejvyLmpMu+JRdOnT8dnn30W8EnIe1Q52IA7VvlbVi0Q8sS4aK1MKHM6nTh9+rTyB+Oxxx7rd9+sViuWLFmijOysWbMGGzZsYKAcJPkzxcl9Q0t+n+XPdzB3zbzJx24k7wjIaXKtra1wu90eF97JwO1249KlS8rjcJyDe3p60NnZiZtvvjnU5oUVR5YpKkpLS3HmzBl0dXWhqKhIeV7OhbXb7XjmmWewZ88eCCE8tlGPwtrtdsyfP3/Q7SLBO+j1Ny1AnXcLAAUFBR4jpCaTCQcPHgx41FR9mxMIrFJEPFCnKSTahYB637zzOTs7O2G1WlFYWIhZs2ahq6sLeXl5OHfuHCorKxnkhUCeO5CRkcH3cQjZbLY+xy4v8OKPzWZDW1sbhBAwGAyYOHFiwvYjR5YpqtQzouWTptPpxCuvvIJdu3YNGGza7XY8//zzqKurU7YLdhJcOHz44YdKqTigb9Drizqo9acwvz+8A3cgdiblhUuwJePUvCdWhlrLOlyam5uV710uV78XAjqdDhUVFSgpKWFgFyZyJQwaWsGWjFO7fPkyrl69qjz2t05zOGm1WmRkZMBms0V8VDsWBFsyTk0+B8uvE6spUBxZpqhSj6pOnToVw4cPx+rVq/Hcc88pAbA6oJaDSafTieeffx4vv/yyx3bqADEct/YCcejQIY/H69atU3KtB/pS1z8OVxUD7xSFWFpEJBzkNAXZhAkTwvK6sXD73btk3ObNm9Hb2wshBIQQsNlsWL58OYDrd2jMZrNHcE3Bi9WZ+InEO8VowoQJYQkwx44dixEjRoT8OoH66quv4HK5YLfbk+qz43Q6cebMmbD3o3wOjrWLDgbLFFXqUdWcnBy8+eabWLx4sceCGeqAWh49KC8vx9NPP+1zu0gHh97Bm9lsViYpDPTlvcyyv6PRg4nVEdNwCXSJa1/UVUiA4GtZh5P359h730wmE958803s2rULGo0GZ8+exeTJk2N2yW4itUCXuPYlVo7dm266CQD6Lf2ZyAJd4toX77s5sZoCxWCZokY9EqzT6XDjjTfC4XD0mZSnDqinTp2Kc+fOISMjY8Dtghmhra6uhl6vh16vR3V1dUC/q84xBfwPetWj0YH+4QilvZEW7raG2tcy9e1gILgR6urqaqSmpkKv12PHjh0hjy6pV+0b6CJn9uzZKCoqUla/itUlu+OJPFGShk6oJeNk4Th2KXihloyT1dTUeKzaF64R6nBjsExRo04VMBqN+OyzzzxSEmTnz59Xvr/nnntw9OhRrFixwmMb7xSMQEdo7XY7ysrK4HK54HK5UFZWFtBqburJhP4Gvd6j0bNmzfJ7CepA2xvN9AK73Y7169d7tDWUoM677FSwI0reK4jJNbEDOVHL+9bV1QWXy4X169eHvAqg+vM+WD7nnDlzlO9dLheqqqqS6lYwxZehPHYXLFjg98pxFBrvknEZGRlB96PD4VA+DwaDAQsWLGCwTKSmHo1tb2/Hgw8+2CcwUAeURqMRJ06cwC9+8Ys+B2Z/t64jSR3g+JvyEEyZOepbPSSQZXIHep1YqBbib8k4mffCDGfOnPGoU04US9Sr9gHBH7verxPs5DIKjnrVPiCwJa69X6e/fmSwTKSiTkHIzc3FtGnT+myjDqiHDRuGvLy8fkdf1flrwdyWN5lM2LRpE3Q6HXQ6HTZt2uT3KK/3KIc/QZf3SHggo8r+tDeWFtswmUzYuHGjR1snTpwY9Oup+zqUknFbt25VbiPqdDqsWrUq4JO0vG96vR46nQ4bN24MqB+9DVQyjije9XfsBhMYhePYpeB1dHQo738oJeO2bduGK1euALjejytXrozZuwMsHUdR4Z2C4GtlOXVA/f333/tcOlq9XbCT5IqLi1FcXBzw73nzp3ydusyc0WjEpk2bAv5/BmqvXCxfnUcdTeF6bwHPXMVg00u8F2wJ9GJFLdz7JgtXZRSiWKE+dseOHRvUsdvU1IT6+nrldQoLC2EymRgsR5C6ZJzBYAiqCklTUxOsVquSylFQUBDTdZpjM4SnhKeuZmA2m/sdVfYOqJ966ql+R2zV20UjBaO/leQGIkkSqqqqlMdbt24N++1/rVaLgoIC5XF7ezvOnTsX1v8jGrw/E8Eskwt4jkwZjUZs3Lgx6idp+Q5FIMt3e1cECLZmLdFQ804xCtex+/LLL8fsaGQi8i4ZF8wS14DnqLLBYIj5fozdllFCU8+I9jUSrA6o5clX/VHfuo7GaJw8igv4d+v8zTffVEaVy8vLh2xJ7oULF8JoNCqPvetAB6q0tBR1dXWhNisk3mkKwVwYVVZWYs+ePQCuf64++eSTmMh3HKxkXH/UI9HA4DnORNGiXrUv2GN3y5YtymqtRqMRH330Ucwti5zo1Kv2BVsyTu7H3t5eGAwGpR9j+dzFYJkizrtknK+TpnfJOF8jZuFIwQiFVqv1O7fU6XTi9ddfBwAUFRWhtLR0yNqVnp6Op556Snm8Z8+eoIPdioqKfsv1RZq66kgwtaPr6uqwbt06CCGQl5cXM4Ey4H/JOJmcSiKP8Pi6Q0MUC/o7dgMJjurr67Fu3Tr09vbijjvuwMcff8xAOQrUCyDJq+0F0o9WqxW/+tWvcO3aNdxxxx1xESgDDJYpCtQjaL5Ggr0nwPlaqrm/FAyn04nly5dDkqQhaH3//FlKWpIkLF68GO3t7SgqKsJrr7025O1asWIFzGaz8njVqlUBV0uorq6Gw+EY0sDeH06nE2+88UbQS1xXVlbioYceghACa9aswcmTJ2MmUPZetW+wdApJkvCrX/3KY5LTq6++GtVi/l9//TWuXLmC1tZWfPPNN1FrB8Ue+diV81MDTReSj93e3l6sXr0aJ0+e5OTXKHA6nfjd737n0Y+BnEO3bNmChx56CN9//z1Wr16NEydO4JZbbol6oPx///d/AK7PJfJVejPgYLm1tRWffPIJtmzZgvnz52P8+PGoqKgIraUxLNn2NxL8ScFQB9QDjZipUzVyc3ORnp6OyspKbNiwIaIjzJMmTYLRaITL5UJjY2Ofn0uShIcffhgnT55EeXk5du/eHZH2abVavP/++0rA3N7ejgkTJvhVC1iSJCVAjoXPvPfCL/6WnbJarbjzzjtRWlqKH//4x9i3bx8qKytjapUo9YRPYOB0ipaWFpjNZpw4cQLA9UD5rbfeCqnCSDiMGjUKqampyMzMxI9+9KOQX6+lpQUrVqxAamoqysvLWT86jqlTMAD/j92GhgbcddddWLduHUaNGoV33nkHlZWVUVnWmjxTMAD/S8Y1NDTg7rvvRmlpKW688Ubs3bsXFRUVHhWbomnRokVISUkZOPAXfnI4HMJisYjJkycLAMqXTqcTNpvN35eJG+HaX4fDIfLy8gQAsXbt2iFscfwoKioa9L0sLy9X3vPy8nKfr6XeDoDIy8sTzc3NQ9X0AdXW1gqdTicAiP379yvP19fXi7y8PJGXlyfq6+uj0jYhhNi/f7/SPgDCYrGI+vp64Xa7lW3cbrew2WyipKREWCyWqL2X3vbv3y/0er1HXxcVFYmenh6P7ZxOp7DZbKK6ulrMmzfP47jdt2+fx77Givr6eo990+l04qOPPuq3XwoKCjzeg+LiYnHhwoUotv5vHA6HGDdunDCbzX36xV9ut1ts2bKlT19v3rxZ9Pb2hrnFfS1ZskRoNBqxePHisP5/brdb7Ny5U+Tn5wuj0Sj+8pe/hO21Y92BAwdEamqqR38uXrxYdHd3e2wnH7s7d+4U8+fPFxqNRjke3nnnnaA/U0Nt6dKlQqPRiM2bN4tr165FuzlD5uDBg+Kmm27y6MdFixaJq1evemzn3Y8pKSlKP+7du7dPv8eC+vp6MWzYMPHKK6+I77//vt9t/A6W1Ww2m/JH12g0CofDEVJDY10o++sdzNXW1g5hS2Ofw+EQRqNRABBms9ln8OJPQC2EZ9+sXbs26sFQc3OzsFgsHn0uB6Wxor6+XpSUlIjs7Ow+F4IWi0VUVlYKp9MZ7WYqwZe6jf5+TZ48WcybN09UV1fHxL54c7vdYsaMGUHtl8ViEdXV1TEXPIQjWF6yZImYPHmyx0VdvAbLzc3N4je/+U2fwD8ZgmWHwyEyMzODOnbvvvtuMW/ePLFjx464iC0SOVh2OBwiOztbuXAJtB/nzp0bF/3oT7AcVJ1ldbmiWFj1aqiFsr/qld3o+qSztra2QbfbvXs3du/ePeh2JpNJyduMBVlZWR651rGosLAQhYWF0W7GoNLT09Ha2hrtZgwJrVaLDz74INrNiDm7du0CcD038t577414/8s10v2plT4Qu92Of/7nf8YjjzyCZ555Bhs2bEiqNJL09HS0tLREuxkRkZOTA41Gg6ysrKjn3oZbenq6x8TMZBZUsKx+8/yZ2BTvQtlf9UmXK3IRESU+k8kEq9WqPL548aJS8oyI4k/AE/zUVQpCWWo2XoS6v+oFKoIpdUVElGyGDx+OsWPHJsxIXagj1UQUXQEHy+oqBcEuNRtPQt3fMWPGQKfTBf37RERERBQ9AQfL/pT9SiSh7m9aWppSHmXMmDEJ/34REcUreY4J55qQv86fPw8hBFpaWphmk8ACCpb9XXktUYRjf9VLIfNWHBEREQ1EkiTMnDkTmZmZ+Mtf/hLt5hACDJbdbjcuXrwIwPfKa4kkHPurXgpZnb9MRERERLEvoGBZvYKWnJJgt9uh1+uh0Wh8fi1ZsmRIGj/UwrW/OTk5STEZkogo0nyt9Kd+XqPRQK/XY+3atXC73VFuMRHFm4CC5UOHDinfy6Okcp1bh8OBvLw85ed5eXmor6+H2+32q15uLArX/k6fPh133HEHJ/cREYVBZ2cnqqqqkJqaiuzsbGzfvt2j3vrOnTsxefJkj+ddLhe2bNmChx9+mAEzEQXE72DZ6XTi9OnTAHyXUJMnwpWXl+Ozzz5DYWFh3E5oC+f+mkwmHDx4MG7fCyKiWCFJEp555hkcOnSoz4QqSZKwbt06bN++HcePH4e4vkotDhw4oJSha2xsxJtvvsnJWETkN7+DZXVKQn+r2JWVlaG7uxs2mw2lpaVBNcafFIdAvsaNGwen0xlUWyKxv7G430REsUyr1aKmpgZnzpzBBx98AL1er/xsw4YNSE9Px3/+539i4sSJyvPz5s1DUVGREjA3NDRAkqSIt52I4pPfwfJAq9iVlpaio6MDly5dgslkCl/roijZ9peIKN6kpaXhxhtvVB5v3rwZpaWl/S5moj6PX7p0CT09PRFpIxHFP7+Wu/YuoSZXd5AkCU8//TQA4P333w85zUDOB462SO2vLFb2m4goGXR3d6Ozs1M5txMRDcSvkWX1KnZyCTVJkvDwww+jo6MDr732WkLl4ybb/hIRyXbu3InU1FTo9Xrs2LGDub1ElPT8Cpa9V7FzOp2YPn06Tp48iYsXLybczOJk2V/mShORmt1uR1lZGbq6uuByubB+/XrY7fZoN4twvW9uuummsJ6vOzo6or1bSaepqQmjR48esG+GDx+OP/zhD2hra8Mtt9wyaF/+/ve/50XtEBs0DcM7JaGzsxOzZ89Wfi7fzvKeABevkm1/I6W/HEIiioxr164hJSWgSqFEimHDhuHatWvRbsaQ+O677zBsmF8ZqQnhhz/8Ib777rtoNyPsvv32W/zgBz8Ystcf9BOiXsXO5XLho48+Ql1dHY4ePYp169bB5XKho6MjYSa6JdP+RjJXmle9RLHPZDJh06ZNKCsrgxACGzduTIhzXSIwmUz46quvovJ/f//991H5fxNRbm4uLl++POA2kiTh0UcfRVtbGz788EPcfPPNYfv/v/3227C9VjIZdKhBXULNbDajsbERWVlZHks3qxfvCEUspAVEcn9jab+JiADgySefxJUrV9DV1YWSkhLeFSKipDdosKwODFevXq1MbBszZgx0Oh0AoKOjI2FqVibb/hIRERGRbwMGywOtYpeVlYXc3FwA1xPWW1paQm6MnBYgr7oU6ldbW1tAucWR3t9Y2W8iIiIi6t+AwXJnZye6u7sBAAaDAcOHD1d+ptVqlRqVch6vWnV1Nerq6sLd3iGVbPtLRERERAMbMFj2LqHmXVtYvSKSOn2hrq4OX375pUcViXiQbPtLRERERAPzWQ3Du4Ta9OnT+2wj5/G6XC6cPn0aTqcTH330EY4cOYKdO3cOXauHQLLtLxFRrHK73bh06ZJSRef8+fNRbhERJTOfI8v9rWLnTZ3H297ejoyMDFRXV2Pnzp1xt8Jdsu0vEVGs2r9/P9ra2pTHVqu1z+IokiRhx44dHtu98cYbaG5u7vN6kiShqqpKeexyubB169aILDDV0NCATZs2KYF/e3s71q9fz4pFRHHEZ7CsTkkYM2ZMv8GgVqtFQUEBgOujsZWVlXj//ffjMnBMtv0lIoo1lZWVSElJQWlpqUdtdpfLhUmTJkGv18Nms2Hp0qUYMWIEXnzxRY/t2tvb8ZOf/AQajQa1tbVwOp3IysrC8OHDceLECY9t3377bYwYMQJmsznsQbMkSfjZz36GlJQUFBYW4sqVKx4/f/vtt5GRkQGNRoOjR4+yDj1RjNMIHqVERBQip9OJe+65B2PHjsWRI0c8JkjHi6VLl2LPnj1YtGgRdu/ezRrTNKgnnngCu3fvxquvvoq1a9dypcw4ZLVa8fOf/xz/9m//htLSUtxwww19tmGvEhERAcjJyfH4lzwMdyAAABdxSURBVGgwOTk50Gg0yMrK4sVVAmOwTERERETkA4NlIhoyVqsVy5cvx/jx4z2WZNfr9SgoKMDOnTvR2dkJ4Pok2zvvvDMu65V3dnbik08+wc6dO7FixQpMmTIFM2bMiMgEMiIiGloMlimhSZKELVu2eARrer0ey5cvD+sqjPQ3LS0tWL58OTQaDYqKinDbbbehvr7eY5XJL774Aj/96U9RXFyM9PR0aDQaZGdno62tDRkZGdHehYAsXboU9913H+69914UFxdj+/bt+PTTT2GxWDj5l5KCekKj+qLY15der8eUKVMwf/58HDx4kBeVMUSSJMycOTOgvpw8eTLmzZuHAwcOJGxfMlimhGW32zF27FisXbvWo5yUy+XCjh07kJ2djYqKiii2MLFIkoTS0lJkZ2fj8OHD2LdvH7q6urBmzRpkZmZ6bJuWloaKigrYbDbo9XrleV9lG2PZrl27cOHCBbjdbsyYMUN5Xr5Ao/gh13NmXefAaLVa/OEPf0BPTw82bNjg8bmfPn06uru7+1wsv/DCC+jp6cGCBQswYsQIWCwWXLhwIYp7EZzz589DCIGWlpaEqGqi1Wpx/Phx9PT04Ne//rXHhMXp06fj6tWrffryX/7lXyBJEhYuXKj05Z/+9KeEeD9kDJYpITmdTsyZM0cpB+jLunXrGDCHgd1uh8FgQGVlJYxGIz799FMsWLBg0N8zmUx46623lD+uvso2xhuj0YhJkyZFuxlEEaXValFSUoJx48Ypz1kslj6VUdLS0lBQUACr1QqbzYbU1FQcP34cU6ZMwb59+xIqyIpXWq0WxcXFyMzMVM7PM2fO9NmX9fX1sNlsGD16NI4fP46pU6di37596O3tjUbzw47BMiUcSZKwePFidHd3o7KyEm63W7kKrq+vR15ensf2r7/+OhcICMGBAwcwceJEdHV1wWg04pNPPkF2drbfvz9p0iQYjUYAwJw5c+J2NFa9sNGUKVOQnp4e5RZF1tdff40rV66gtbUV33zzTbSbQ1Fy+fJldHd3A/C9Gq5abm4uzpw5g8zMTLhcLjz++OOora1lwBwDLl++rIwk63Q63H///QOen3Nzc3H69GlkZ2fjr3/9KxYtWhQXfbl371709vbC4XD43IbBMiWcDz/8EBcvXsR//Md/YM2aNR4jlYWFhWhsbITZbFaea29vx7lz56LR1LhXUVGhjCDrdDocOnQo4Jzj9PR0TJ06FTqdDmPGjBmKZkbEqVOnlDsZjz32WNwG/USh6OjoUI6DkSNHIi0tbdBjISsrC1VVVcot/2XLlsFms8V8kJXo1H05YsQIv/oyMzNTWVwIAJ588kn813/9V9z3JYNlSiiSJOHtt99GTU2Nz9xXrVaLzZs3Q6fTRbh1iaWurg6//OUvlcdvvfUWJk6cGPTrxWO+skySJDQ0NCgjMPEc9BOFoqamRgmMArnDct9998FsNkOj0SjLkcd7gBXv3nvvPY++9HcgxLsvt23bFvfpGAyWKaFotVps3boVJpNpwO3S0tIwcuRIAGBwEwSn04nVq1crJ1Kz2Yxp06YF/XoTJkyI63xldQpGPAf9RKGQJAkdHR3K40DSqrRaLSwWi7K91WqF3W5nwBwlcl/K7/+cOXP8Xp1Q7kt5+4aGhri/U8BgmRJOWlraoNsMHz4cBoMBAIObYJSVlaGtrQ3A9YuNV199NeTljeM5dUF9uzJZS8aNGjUKqampyMzMxI9+9KNoN4eioLW1FU1NTUHfYRk/frzyvcvlQmNjY7ibSH7y7stA0+vU81ZcLhdOnToVs8Hy3/3d3wEApk2b5vNvEINlSkputxsXL16ETqfD5s2bkzK4CZbdbofValUeh+Nio7S0FLNnzw61aVFTU1MD4G8TmuI16CcKRWNjo3LRePvttwe8BPSYMWM80uOOHTuWsHV7Y516Dsbtt9+O7OzsgPtSXRZULkcXrxgsU1I6d+4c2tvbsWvXrkFTNoaS1WpFfn6+UuA9Pz8fdrvdYxtJkmC1WlFQUOBRCL66ujoqba6qqkJXV5fyeNWqVSGPKsczp9OJ06dPQwihTGhSkyQJ69atQ2pqKjQaDVf2o4QkSRKOHTumjB72VzJuMKNHj1bS4wDg0qVLPFaiQO5LOc+4v5Jxg5H7Ug6wL168qFSmikcMlinpOJ1OvPbaa6itrY3qaGZpaSlmzZqFs2fPKs+dPXsWVVVVyuMDBw5g7NixmDVrFo4dO6Y873K5UFJSEvEa0d6jyqwn/LcLL6DvhKYDBw7AYDCgoqJCucA4efIknn766bj9o0HUH/lunfy5VqdUBKu7uxudnZ08ViLM7Xbj0qVLyuNwLLDU09ODzs7OUJsWNQyWKanY7XZMmDAB7e3tkCQpau2oqKjAiBEj4Ha74Xa7PUrZAdcnjOXn52P37t344IMPPOpEq29TNjQ0RHQ/GhsbPUaVp06dGnfLU4ebeva/Ou+6srISzz77LHbt2gUhBKqrq5WfORyOqH7+iMLNZrMpF43yRTTTkeKTzWZDW1sbhBAwGAyYOHFi0vclg2VKCna7HQUFBZg4cSJcLheam5uxYMEC5OfnR3xBErvdDkmS8OKLL/abK93a2oqVK1fipZdeQkNDg0eaSGFhIWbNmhXJ5irkW3Nqc+bMiUpbYoV69r96lP3AgQM4ceIEPv/8c6W/Ro8eHbV2Eg21YEvGqakXNAH8r9NM4RVsyTg1uS/l15HrNMerYdFuANFQcjqdmDp1qjLi4e3s2bOYOnUqTp8+HbEV10wmk0cArC47BgB33XUXNmzY4Nekw0iWW5Nvs8pYcq//Vfvq6urwwgsv4OOPP/b4I9Pc3Kx8n5GRwUmlMUg9IYn8p87bB66XggxHgDt27Nikng8RDU6nE2fOnAl7XxoMBgwfPjxuL3w4skwJLT09XbmdZLPZUFJS0meb9vZ2lJWVRaF116lnkJvN5gEDZe86po899lhE2ggAnZ2d/Y76JDP1jPGcnBx0dnbiN7/5Dd59912PQFm9aAkQ32XyiLwFusS1L+oSjEBkBwOC9dVXXwGAx8TEeOa9xHWw1X06Ojo8UvYyMjLi+sKHwTIlDZPJhO3bt6O5uRl5eXkePzt9+nTA6RjV1dXQ6/UhVaaQgyhZQUHBgH8c1COZwU6uC0e74111dTVSU1Oh1+uxY8eOoF7De9W+/Px8FBUV4YUXXuizkmE4+o2G3uOPP87R5SCEWjJOpk7lAMI3qjmUbrrpJuh0OphMpphvqz+8S8YF25fqVA4gPvpyIAyWKelkZWWhsbHRY1Jde3s7zp075/dr2O12lJWVweVyweVyoaysrE/JN3+ogyh/RmTUf5SmTp0acOpIuNoN/O22Wryx2+1Yv349urq64HK5sH79ethstoBfR52Wkpubi61btyIjI6PfCivqP0DB5nMSxSLvknHBjgZ73zUzGo1YuHBhTAdYkiTB4XAo+bix3FZ/eJeMCzZdzHv1P4PBgAULFsT1+8NgmZKSVqvF6tWrPZ67cOFCxNuhDn4HW9zDexQ6kikY1Je6ZNz//u//oqmpCRs3buzzB4EpGPEjLS0NI0eOhMPhYH1fP6lXegMCW+J6oNeJh4tK73kc8a6/vvR3iWvv1/n888/7TBKM5/Meg2VKWpMmTYLRaAzqd00mEzZt2gSdTgedTodNmzYFvLhJNFIwQmm3HEjI5CLz8cZkMmHjxo3Q6/XQ6XTYuHFjn7QJf6hvGTc3N6OqqqrfWeNMwYgfw4cPh8FgiNvPdjSo84xDKRm3detWJcdVp9Nh1apVMR9cybnaiTIRUd2XoZSM27ZtG65cuQLgel+uXLkyqKA7lsR364lCkJ6ejqlTpyqPAy2iX1xcjK6uLnR1daG4uDjg/987iFq4cOGA24eagiELtt1yIJEIiouLceXKFXR1dfU76XMw8ux/WVFRkc8FbpiCET+0Wi0yMjLifgGFSFJfNAYbNDY1NaG+vl55ncLCwrjIAZaDy3iYiOgPdZ6xwWDAiBEjAn6NpqYmWK1WJZVDLtka6305GAbLlNRycnIARKcMWiDBbyykYGi1WlgsFuVxoHneiUSdgjHQKBhTMOJPTk4OXC6XR84l9c+7ZFwwS1wDnqPKRqMRGzdujIuRyObmZggh4n7yGtC3ZFwwS1wDnqPKBoMBL7/8Mm644YawtjUaYv/TSDSEzp8/DwCYNWtWwGkUoQg0+I2VW/kLFy7EuHHjlMc1NTUhvV5paSnq6upCbVbEqWsmD/TZiZV+I//JS/uq+5j6p161L9iScZWVldizZw+EEDAajfj444/jpn77+fPnIYRAdnZ23AfL6lX7gi0Zt2XLFuzZswe9vb0wGAz46KOPcMsttwxRiyOLwTIlLXnGrk6n6zPZb6gFGkSFKwUjVOnp6fjFL36hPN6zZw9qa2uDeq2Kigqf1SNkVqsV+fn50Gg0yM/PD6pqRbh5l4wbKLeSKRjxJyMjAzqdTrmQJt/Uk6KDWW2vvr4ev/zlL9Hb24s77rgjrgJluRKGwWBIiKW91ReHI0aMwOjRo4Pqy2vXril9mSiBMsBgmZLYhx9+iJMnT2L9+vURHVUG4i8FQ23FihWYMWOG8nj16tVwOBwBvUZ1dTUcDgdKS0t9blNXV4fZs2djzZo1EEJg7dq1mDlzZtDBebioL3QGqmDiKwVj3bp1QZfro6GXlZWF3NxcnDlzJuDPdTJxOp144403lNzUQC8GKysr8dBDD6G3txdr1qzByZMn4yZQBv5WOSIRJvc5nU787ne/8+jLQJa43rJlC37+85/j2rVrWL16NU6cOIGbb755qJobFQyWKaHY7XZlJLK0tNTnJJ2WlhasWrUK5eXlAwZsQyFeUzBkWq0WR44cUQLm9vZ25OTk+DXqK0mS8n5XVFT43M5ut+OJJ57A4sWLMX/+fADA7NmzkZubG1RwHk7q0WKLxeJzYo+6rJTcb9XV1bjjjjsifnFG/uMkP/+oUzAA/0vGNTQ04K677sK6deswatQovPPOO6ioqAhqMlk0yZP7gs3TjiXqFAzA/5Jxcl+WlpbixhtvxN69e1FRUZEwqxl6EEQJpLa2VgBQvnQ6naisrBRut1sIIYTb7Rb79+8XFotF1NfXR6WNNptN6HQ6AUAYjUbhcDgG3L6oqEjZn6Kiogi10j/79+9X9gWA8r7K77cQ199zm80mSkpKhMViEc3NzYO+bnl5udBoNOLo0aP9Pr958+aw74u/lixZony2zp0753O72tpaodFolPcmOztb7Nu3L4ItjSyHwyHGjRsnzGaz6OnpiXZzQlJXVydSUlLE5s2bRW9vb7SbE3MOHDggUlNTPc61ixcvFt3d3R7bOZ1OYbPZxM6dO8X8+fOV40Gn04l33nknrj8nS5cuFXq9Xpw9ezauPyMHDx4UN910k0dfLlq0SFy9etVjO+++TElJUfpy7969cd2Xy5YtEykpKeLIkSPi2rVr/W7DYJkSzv79+8XkyZM9Dn4AYvLkyaKkpETYbLaotq+8vNzv4NfhcAij0ahsX1tbG6FWBqa+vl6UlJSI7OzsPhcrFotFVFZWCqfT6ddrud1uMWPGjH6DUTkAjVZAJgeE8oVOR0fHgNvm5+crFxEXLlyIYEsjL5GCZYfDITIzM4XZbO4TACYr+T3xPq/683X33XeLefPmiR07dgw6OBAPHA6HyMrKEmazuU9QGQ8cDofIzs72uJgPpC/nzp2bMH0pBINlorinHin3ZxQ6EdhsNqHX6/sNRgf6GUVXIgXLQly/g6DRaMTvf//7uB45TBRLly5Vgrvp06eL7u5u0dzcLFasWCE0Go3ynBBCtLS0iDvvvFNoNBrx6quv+gyAglVXVyduuOGGIXntZPDEE08oI9PTp08XX3/9tWhpaRErVqwQKSkpynNCXO/Lu+66S2g0GvHKK68MyfvtT7DMnGWiGHbo0CHl+2hWwSBKNqtWrYJerw+5PCKFx1tvvQWbzYbU1FRYLBa0traivr4eL774ImbMmIFLly6hp6cHdrsddrsdhw8fRmZmJv74xz+GtR2SJGHbtm0YNWoU7r///rivghEN//7v/45z585h9OjRsFgsaG9vR11dHf71X/8VM2bMwJ///Ge43W6lL9977z1kZWXhiy++iFrtcwbLRDHKe5W4aFfBiBT1kqu+dHd3c/IVDSm5KobVao2JkoV0fXItANx2222oq6vDypUrAQCXLl2CwWBAW1sbbDYb5syZg6+++grd3d2YMGFCWNsgV8FIlJXpouXUqVPo7e3FT37yE9TV1eHZZ59FSkoKLl26hFtvvVXpy0cffVTpy3/8x3+M2vvNYJkoRqlXiYuFKhiRMmbMGOh0ugG3kWu6Eg0VrVaLVatW4euvv8bWrVu5ml+UyVWExo4dC5vNhuLiYqSkpCiVHKZMmYLW1lYsW7YMGo0Gp06dQldXl7LITLhs3boVvb29WLlyJQPlIEmShOPHjyt9+eSTTyp92d7ervTlE088gZSUFKUvs7Ozo9ZmBstEMYopGETRNWvWLCxevBgNDQ0cXY4yt9uNS5cuobu7G/fee69yPmxuboZOp8M333wDi8UCjUbjEViHc/S3qakJVquVo8ohkiQJFy9eVPoyIyMDGo0GFy5cwKhRo/DNN9+goKBA6Us5sI7m4i8MlolikLy6oCxZUjAAIC0tDSNHjuw31UJO0eDFA0WKvELjc889h56enmg3J2nJI8h33nkn7r33Xo+guKurSwm6gOupEp9//nnAi2sMRJIkPPfcc9BqtXj55Zf9qkNM/ZNHkPPz8z368vjx4+jq6sI999yD9PR0aDQaJe3l7rvvVoLqaGBvE8Ug9YIWOp0urla2ClV6ejqmTp0Kl8vlccEA/G153QkTJnBUhyLCZDKhrKwMjY2N2L59O9MxoqSmpgZCCI/FT+RA6v7778e0adOU5zs6OtDV1eX3Qin+2LFjB06cOIHKysqkOh8PhZqaGvT29uLRRx/12ZfyxYjD4YDL5fLYNhoYLBPFoM7OTnR3dwNIzvxcdSUCOTiRJAnHjh2DwWDAwoULo9xCSiZr165FUVERXnnlFaZjRIF8p81gMHikP6hX0VOvpFlTU6Ns29bWFvL/39TUhE2bNmHTpk148MEHeaEeAkmS4HA4YDAYPNIq5KB45syZHqs51tTU4NZbb8WkSZPQ3t7OahhE9DcmkwldXV0QQqCtrS3pUg7k0bz6+npYrVYAwJtvvgm73Y6qqqqw3Vol8tdvf/tbmEwmzJ07t88dDxpa8qijd1pFTU0NfvzjH2P69OlK0OV0OnHmzBmMHTsWZ86cQU9PT0gBltPpxNy5czFhwgQsX76c6Rch8pVWUVNT06ccX2dnJ86cOYNbb71V6ctoYa8TUUwqLS3Fb3/7WyxduhQajQYHDx7Ep59+igcffDDaTaMkpNVqsXv3bqSmpmLJkiXMX44geQRZnVYhB8W33347srKy+oz29vT0IDMzEyaTKeiRYEmSsHTpUvz93/893nvvPYwcOTLkfUl2/aVVyEHxhAkT+u1Lt9sdcl+GSiOYgEVERCFyOp245557MHbsWBw5cgTDhw+PdpOGhCRJeOSRR9Db24vDhw973DKmxCFJEh599FFcu3aNgXKCe/LJJ7Fr1y689957eOihh/q9e8CRZSIiIj9ptVocPnwYubm5eOSRRzjCnICcTiceeOAB/MM//AMOHz7MQJkYLBMREQVCq9WivLwcJSUlmD9/Ppqbm6PdJAqTpqYmzJ07F88++ywqKip454AAAMOi3QAiIqJ4NG/ePMyaNQvV1dVobW1VFlKg+NTQ0IALFy7AarUmbBoRBYc5y0REFDI5ZznQUl1Hjx7F7NmzGWQSUVg0NTXBYrHg8uXLAf3ekSNHmLNMRERERBQojiwTEREREfnAkWUiIiIiIh8YLBMRERER+cBgmYiIiIjIBwbLREREREQ+MFgmIiIiIvKBwTIRERERkQ8MlomIiIiIfGCwTERERETkA4NlIiIiIiIfGCwTEREREfnw/6MQTn04oJnZAAAAAElFTkSuQmCC;" vertex="1" parent="WIyWlLk6GJQsqaUBKTNV-1">
          <mxGeometry x="134" y="1702.75" width="295.95" height="62.5" as="geometry" />
        </mxCell>
        <mxCell id="HX48B-1rYJLwdNwCFjf0-183" value="&lt;span style=&quot;line-height: 107%;&quot;&gt;&lt;font style=&quot;font-size: 12px;&quot;&gt;- время, в течение которого производятся исследования&lt;/font&gt;&lt;/span&gt;" style="text;whiteSpace=wrap;html=1;" vertex="1" parent="WIyWlLk6GJQsqaUBKTNV-1">
          <mxGeometry x="431.89000000000004" y="1954.76" width="315.77" height="40" as="geometry" />
        </mxCell>
        <mxCell id="HX48B-1rYJLwdNwCFjf0-184" value="" style="shape=image;verticalLabelPosition=bottom;labelBackgroundColor=default;verticalAlign=top;aspect=fixed;imageAspect=0;image=data:image/png,iVBORw0KGgoAAAANSUhEUgAAACoAAAAnCAYAAAB5XdqFAAABj0lEQVRYhe2YoY7CQBCG/15OgloMdg2OhGBxldVYHC+wPAGeN+ABIAFXUQUKS+sR4HCoXT+nSrhcy8HscJe77Jes2Sbbr//ubCaNiIjwB3j7bYFHCaLSBFFpgqg0QVSaICrN/xd1zmG5XKLT6SCKom9Hq9VCURR8U2JgraU4jgnAwyOOY7LWcl5HRERPi3IkAdBsNmNLskSNMTQej+lwOFzn8jwnpZR3avd4SnQ+n9NisfgyPxqNRFK7B+uM3lKmqZSiPM8lnCrxvp622y0ulwuSJEGv1/NdrhYvUeccsiwDAAyHQxGhWny2I01TAkBaazqfz1K7XIlXoqvVCgAwGAzQbrclcquH+4VlEQGgNE0lw6uEnWhZRFpr9Pt9weiqYYneFtGPbDuYotZanE4nAEC32/30bDqd+jUfNbBE9/s9jscjACDLMjjn4JzDZDJBo9F4yX367rvAZrNBs9kEAGitsdvtvKWqEGuclVJYr9evO6/c68IYc23hjDEv65pKIqLw21GUICpNEJUmiErzAeXuCgkD1ZrnAAAAAElFTkSuQmCC;" vertex="1" parent="WIyWlLk6GJQsqaUBKTNV-1">
          <mxGeometry x="406.94" y="1955.76" width="26.11" height="24.24" as="geometry" />
        </mxCell>
        <mxCell id="HX48B-1rYJLwdNwCFjf0-185" value="" style="endArrow=classic;html=1;rounded=0;exitX=0.5;exitY=1;exitDx=0;exitDy=0;" edge="1" parent="WIyWlLk6GJQsqaUBKTNV-1" source="HX48B-1rYJLwdNwCFjf0-1">
          <mxGeometry width="50" height="50" relative="1" as="geometry">
            <mxPoint x="440" y="190" as="sourcePoint" />
            <mxPoint x="294" y="110" as="targetPoint" />
          </mxGeometry>
        </mxCell>
        <mxCell id="HX48B-1rYJLwdNwCFjf0-187" value="" style="endArrow=classic;html=1;rounded=0;exitX=0.5;exitY=1;exitDx=0;exitDy=0;entryX=0.5;entryY=0;entryDx=0;entryDy=0;" edge="1" parent="WIyWlLk6GJQsqaUBKTNV-1" source="HX48B-1rYJLwdNwCFjf0-32" target="HX48B-1rYJLwdNwCFjf0-41">
          <mxGeometry width="50" height="50" relative="1" as="geometry">
            <mxPoint x="150" y="220" as="sourcePoint" />
            <mxPoint x="200" y="170" as="targetPoint" />
          </mxGeometry>
        </mxCell>
        <mxCell id="HX48B-1rYJLwdNwCFjf0-188" value="" style="endArrow=classic;html=1;rounded=0;exitX=0.5;exitY=1;exitDx=0;exitDy=0;" edge="1" parent="WIyWlLk6GJQsqaUBKTNV-1" source="HX48B-1rYJLwdNwCFjf0-41">
          <mxGeometry width="50" height="50" relative="1" as="geometry">
            <mxPoint x="130" y="340" as="sourcePoint" />
            <mxPoint x="294" y="340" as="targetPoint" />
          </mxGeometry>
        </mxCell>
        <mxCell id="HX48B-1rYJLwdNwCFjf0-189" value="" style="endArrow=classic;html=1;rounded=0;exitX=0.535;exitY=0.97;exitDx=0;exitDy=0;exitPerimeter=0;" edge="1" parent="WIyWlLk6GJQsqaUBKTNV-1" source="HX48B-1rYJLwdNwCFjf0-55">
          <mxGeometry width="50" height="50" relative="1" as="geometry">
            <mxPoint x="110" y="580" as="sourcePoint" />
            <mxPoint x="296" y="440" as="targetPoint" />
          </mxGeometry>
        </mxCell>
        <mxCell id="HX48B-1rYJLwdNwCFjf0-192" value="" style="endArrow=classic;html=1;rounded=0;exitX=0.542;exitY=1.006;exitDx=0;exitDy=0;exitPerimeter=0;entryX=0.546;entryY=-0.089;entryDx=0;entryDy=0;entryPerimeter=0;" edge="1" parent="WIyWlLk6GJQsqaUBKTNV-1" source="HX48B-1rYJLwdNwCFjf0-64" target="HX48B-1rYJLwdNwCFjf0-75">
          <mxGeometry width="50" height="50" relative="1" as="geometry">
            <mxPoint x="440" y="490" as="sourcePoint" />
            <mxPoint x="490" y="440" as="targetPoint" />
          </mxGeometry>
        </mxCell>
        <mxCell id="HX48B-1rYJLwdNwCFjf0-193" value="" style="endArrow=classic;html=1;rounded=0;exitX=0.538;exitY=0.971;exitDx=0;exitDy=0;exitPerimeter=0;" edge="1" parent="WIyWlLk6GJQsqaUBKTNV-1" source="HX48B-1rYJLwdNwCFjf0-75">
          <mxGeometry width="50" height="50" relative="1" as="geometry">
            <mxPoint x="150" y="700" as="sourcePoint" />
            <mxPoint x="296" y="640" as="targetPoint" />
          </mxGeometry>
        </mxCell>
        <mxCell id="HX48B-1rYJLwdNwCFjf0-194" value="" style="endArrow=classic;html=1;rounded=0;exitX=0.532;exitY=1.014;exitDx=0;exitDy=0;exitPerimeter=0;entryX=0.54;entryY=-0.015;entryDx=0;entryDy=0;entryPerimeter=0;" edge="1" parent="WIyWlLk6GJQsqaUBKTNV-1" source="HX48B-1rYJLwdNwCFjf0-82" target="HX48B-1rYJLwdNwCFjf0-91">
          <mxGeometry width="50" height="50" relative="1" as="geometry">
            <mxPoint x="130" y="780" as="sourcePoint" />
            <mxPoint x="180" y="730" as="targetPoint" />
          </mxGeometry>
        </mxCell>
        <mxCell id="HX48B-1rYJLwdNwCFjf0-195" value="" style="endArrow=classic;html=1;rounded=0;exitX=0.54;exitY=1.045;exitDx=0;exitDy=0;exitPerimeter=0;" edge="1" parent="WIyWlLk6GJQsqaUBKTNV-1" source="HX48B-1rYJLwdNwCFjf0-91">
          <mxGeometry width="50" height="50" relative="1" as="geometry">
            <mxPoint x="90" y="880" as="sourcePoint" />
            <mxPoint x="302" y="850" as="targetPoint" />
          </mxGeometry>
        </mxCell>
        <mxCell id="HX48B-1rYJLwdNwCFjf0-196" value="" style="endArrow=classic;html=1;rounded=0;exitX=0.5;exitY=1;exitDx=0;exitDy=0;entryX=0.551;entryY=0.003;entryDx=0;entryDy=0;entryPerimeter=0;" edge="1" parent="WIyWlLk6GJQsqaUBKTNV-1" source="HX48B-1rYJLwdNwCFjf0-99" target="HX48B-1rYJLwdNwCFjf0-106">
          <mxGeometry width="50" height="50" relative="1" as="geometry">
            <mxPoint x="150" y="1150" as="sourcePoint" />
            <mxPoint x="200" y="1100" as="targetPoint" />
          </mxGeometry>
        </mxCell>
        <mxCell id="HX48B-1rYJLwdNwCFjf0-197" value="" style="endArrow=classic;html=1;rounded=0;exitX=0.5;exitY=1;exitDx=0;exitDy=0;entryX=0.5;entryY=0;entryDx=0;entryDy=0;entryPerimeter=0;" edge="1" parent="WIyWlLk6GJQsqaUBKTNV-1" source="HX48B-1rYJLwdNwCFjf0-106" target="HX48B-1rYJLwdNwCFjf0-4">
          <mxGeometry width="50" height="50" relative="1" as="geometry">
            <mxPoint x="110" y="1200" as="sourcePoint" />
            <mxPoint x="160" y="1150" as="targetPoint" />
          </mxGeometry>
        </mxCell>
        <mxCell id="HX48B-1rYJLwdNwCFjf0-198" value="" style="endArrow=none;html=1;rounded=0;entryX=0;entryY=0.5;entryDx=0;entryDy=0;entryPerimeter=0;" edge="1" parent="WIyWlLk6GJQsqaUBKTNV-1" target="HX48B-1rYJLwdNwCFjf0-4">
          <mxGeometry width="50" height="50" relative="1" as="geometry">
            <mxPoint x="70" y="1240" as="sourcePoint" />
            <mxPoint x="180" y="1240" as="targetPoint" />
          </mxGeometry>
        </mxCell>
        <mxCell id="HX48B-1rYJLwdNwCFjf0-199" value="" style="endArrow=none;html=1;rounded=0;exitX=1;exitY=0.5;exitDx=0;exitDy=0;exitPerimeter=0;" edge="1" parent="WIyWlLk6GJQsqaUBKTNV-1" source="HX48B-1rYJLwdNwCFjf0-4">
          <mxGeometry width="50" height="50" relative="1" as="geometry">
            <mxPoint x="450" y="1265" as="sourcePoint" />
            <mxPoint x="440" y="1240" as="targetPoint" />
          </mxGeometry>
        </mxCell>
        <mxCell id="HX48B-1rYJLwdNwCFjf0-200" value="Нет" style="text;html=1;align=center;verticalAlign=middle;resizable=0;points=[];autosize=1;strokeColor=none;fillColor=none;" vertex="1" parent="WIyWlLk6GJQsqaUBKTNV-1">
          <mxGeometry x="170" y="1203" width="40" height="30" as="geometry" />
        </mxCell>
        <mxCell id="HX48B-1rYJLwdNwCFjf0-201" value="Да" style="text;html=1;align=center;verticalAlign=middle;resizable=0;points=[];autosize=1;strokeColor=none;fillColor=none;" vertex="1" parent="WIyWlLk6GJQsqaUBKTNV-1">
          <mxGeometry x="360.81" y="1203" width="40" height="30" as="geometry" />
        </mxCell>
        <mxCell id="HX48B-1rYJLwdNwCFjf0-202" value="" style="endArrow=classic;html=1;rounded=0;" edge="1" parent="WIyWlLk6GJQsqaUBKTNV-1">
          <mxGeometry width="50" height="50" relative="1" as="geometry">
            <mxPoint x="70" y="1240" as="sourcePoint" />
            <mxPoint x="70" y="1380" as="targetPoint" />
          </mxGeometry>
        </mxCell>
        <mxCell id="HX48B-1rYJLwdNwCFjf0-203" value="" style="endArrow=classic;html=1;rounded=0;entryX=0.621;entryY=0.021;entryDx=0;entryDy=0;entryPerimeter=0;" edge="1" parent="WIyWlLk6GJQsqaUBKTNV-1" target="HX48B-1rYJLwdNwCFjf0-121">
          <mxGeometry width="50" height="50" relative="1" as="geometry">
            <mxPoint x="440" y="1240" as="sourcePoint" />
            <mxPoint x="430" y="1280" as="targetPoint" />
          </mxGeometry>
        </mxCell>
        <mxCell id="HX48B-1rYJLwdNwCFjf0-204" value="" style="endArrow=classic;html=1;rounded=0;exitX=0.621;exitY=0.976;exitDx=0;exitDy=0;exitPerimeter=0;" edge="1" parent="WIyWlLk6GJQsqaUBKTNV-1" source="HX48B-1rYJLwdNwCFjf0-121">
          <mxGeometry width="50" height="50" relative="1" as="geometry">
            <mxPoint x="310" y="1480" as="sourcePoint" />
            <mxPoint x="442" y="1437" as="targetPoint" />
          </mxGeometry>
        </mxCell>
        <mxCell id="HX48B-1rYJLwdNwCFjf0-205" value="" style="endArrow=classic;html=1;rounded=0;exitX=0.587;exitY=0.987;exitDx=0;exitDy=0;exitPerimeter=0;" edge="1" parent="WIyWlLk6GJQsqaUBKTNV-1" source="HX48B-1rYJLwdNwCFjf0-131">
          <mxGeometry width="50" height="50" relative="1" as="geometry">
            <mxPoint x="210" y="1550" as="sourcePoint" />
            <mxPoint x="440" y="1550" as="targetPoint" />
          </mxGeometry>
        </mxCell>
        <mxCell id="HX48B-1rYJLwdNwCFjf0-207" value="" style="line;strokeWidth=2;direction=south;html=1;" vertex="1" parent="WIyWlLk6GJQsqaUBKTNV-1">
          <mxGeometry x="67" y="1423" width="10" height="237" as="geometry" />
        </mxCell>
        <mxCell id="HX48B-1rYJLwdNwCFjf0-208" value="" style="line;strokeWidth=2;direction=south;html=1;" vertex="1" parent="WIyWlLk6GJQsqaUBKTNV-1">
          <mxGeometry x="354" y="1620" width="10" height="40" as="geometry" />
        </mxCell>
        <mxCell id="HX48B-1rYJLwdNwCFjf0-209" value="" style="line;strokeWidth=2;html=1;" vertex="1" parent="WIyWlLk6GJQsqaUBKTNV-1">
          <mxGeometry x="71" y="1656" width="289" height="10" as="geometry" />
        </mxCell>
        <mxCell id="HX48B-1rYJLwdNwCFjf0-211" value="" style="endArrow=classic;html=1;rounded=0;exitX=0.75;exitY=0.5;exitDx=0;exitDy=0;exitPerimeter=0;entryX=0.53;entryY=0.009;entryDx=0;entryDy=0;entryPerimeter=0;" edge="1" parent="WIyWlLk6GJQsqaUBKTNV-1">
          <mxGeometry width="50" height="50" relative="1" as="geometry">
            <mxPoint x="271.75" y="1661" as="sourcePoint" />
            <mxPoint x="271.70000000000005" y="1700.63" as="targetPoint" />
          </mxGeometry>
        </mxCell>
        <mxCell id="HX48B-1rYJLwdNwCFjf0-212" value="" style="endArrow=classic;html=1;rounded=0;exitX=0.476;exitY=1.014;exitDx=0;exitDy=0;exitPerimeter=0;" edge="1" parent="WIyWlLk6GJQsqaUBKTNV-1" source="HX48B-1rYJLwdNwCFjf0-164">
          <mxGeometry width="50" height="50" relative="1" as="geometry">
            <mxPoint x="110" y="1910" as="sourcePoint" />
            <mxPoint x="270" y="1820" as="targetPoint" />
          </mxGeometry>
        </mxCell>
        <mxCell id="HX48B-1rYJLwdNwCFjf0-213" value="" style="endArrow=classic;html=1;rounded=0;exitX=0.5;exitY=1;exitDx=0;exitDy=0;" edge="1" parent="WIyWlLk6GJQsqaUBKTNV-1" source="HX48B-1rYJLwdNwCFjf0-176">
          <mxGeometry width="50" height="50" relative="1" as="geometry">
            <mxPoint x="100" y="1870" as="sourcePoint" />
            <mxPoint x="269" y="1920" as="targetPoint" />
          </mxGeometry>
        </mxCell>
        <mxCell id="HX48B-1rYJLwdNwCFjf0-214" value="" style="shape=image;verticalLabelPosition=bottom;labelBackgroundColor=default;verticalAlign=top;aspect=fixed;imageAspect=0;image=data:image/png,iVBORw0KGgoAAAANSUhEUgAAADUAAAA6CAYAAAAQsBGlAAADJUlEQVRoge2av0/jMBTHvzndCGIwA4gJS2SshFA3BkQm/gCkTt2QGBFqB6Yilg6kwN8AEkJiLIV/ALHRCrZmKF0aunSo4v3dcEou/ChJaucOn/yRIsWqHfvr5/f8nNQiIsJ/xo9/PYA8MKJ0wYjSBSNKF4woXTCidMGI0oW/IkoIgdvbW2xtbcGyLFiWhfn5eZyenkIIob5DyplWq0WMMSoWi9Rut4mIKAgCOjw8JADkOA4FQaC0z1xFua5LAMh13Q+/BUFAjuMQAGo2m0r7zU1UuVwmAFQulxPrqLZWLqLSDja0JOecfN9X1r/yQNFoNHB+fg4A2Nvbw8zMzMS6z8/PAIDxeIzhcKhsDEpFdTod1Ot1AIDjONjY2EjVbjQaYTAYKBuHMlFCCFSrVYxGIwDJVhJCKBXyBlXrOPQPpHR83/eJc04AiDEWhXsVKBEVHyBShuhmsxnV/5aB4vLyEr1eDwDAOcfa2lpim263G90vLy9jdnZWxVAAKPApIQTu7u6i8vr6OhYXFzO1WVpa+tL/MiNr6vgySusb7XabGGOZlmsWpEWFG+20l2p/IpL0qdfXV9zf30dl13VBvydq4uX7PjjnUZs0yzUrUqIeHx+jAMEYw+bmZqY2ALC9vS0zhE+REnV9fR3dz83NYWFhIVObLFlHFqYW9T4jSLOMOp0OWq1WVE7KOqZlalFBEODl5SUqFwqFxDZnZ2dRGpWXlQBFuV8af4oHFcYYjo+Pc7ESICFqOBxiPB4DSOdP8azj4OAAq6ur03adzLR7QTzfS0pg45vtZ3U9z6OjoyOybfvTo39WfuY3XX8IfYlzjouLizfL7ubmBvV6Hd1uN/I3aWRmJMwmvsoK4kd2z/MmPitMt1RYSipQhBvnpOP41dUVKpUKHMfB09MTVlZWZLpLj+ys7O/vf7CE53m0s7NDjDE6OTlJ9aZIpaWkfarRaKBYLKJWq8G2bQCAbdvY3d1Fv9/PLWx/hZJAUSqVUCqVVDxKCeYDgS4YUbpgROnCtxEVvgd8eHiQ/7oovX1L8v51WXjJZBYWkflnphYYUbpgROmCEaULvwDsBNQC7V1cjgAAAABJRU5ErkJggg==;" vertex="1" parent="WIyWlLk6GJQsqaUBKTNV-1">
          <mxGeometry x="147.94" y="2090" width="27.41" height="30" as="geometry" />
        </mxCell>
        <mxCell id="HX48B-1rYJLwdNwCFjf0-216" value="" style="shape=image;verticalLabelPosition=bottom;labelBackgroundColor=default;verticalAlign=top;aspect=fixed;imageAspect=0;image=data:image/png,iVBORw0KGgoAAAANSUhEUgAAADgAAAA5CAYAAABj2ui7AAAD40lEQVRoge2avUvrUBjGn1wcWzoch0qmBiy4CCJZxEHMVOgkFopDRicHFR3cxMXBVP0bHBrBRQjVf6CrLbrZQnVp2iVDSfb3DpLQ1qb5aNrbXvKDQEPOyTlPzsf75E05IiL8x/z51x2YNrHARScWuOjEAhedWOCiEwtcdGKBi87UBFqWhZeXF+RyOXAcB47jsLy8jLu7O1iWNa1mf0NToFKpEGOMRFGkWq1GRESmadLl5SUBIEmSyDTNaTT9i8gFKopCAEhRlF/XTNMkSZIIAGmaFnXTI4lUoCzLBIBkWfYsM6tRjEyg347bIywIAum6HlXzrkSyyZRKJTw8PAAAjo+PkUgkXMt+fHwAAHq9HrrdbhTNj2VigfV6HdfX1wAASZKws7Pjq55hGGi325M278lEAi3Lwvn5OQzDAOA9epZlzUTUAJPMb3s9weemoes6CYJAAIgx5oSQaRJaYH9n4XPb1zTNKT/3m0y5XEar1QIACIKAzc1Nzzqfn5/O70wmg2QyGbZ534QSaFkWXl9fnfPt7W2srKwEqsPz/Nj1Ghlhhr1/qvldS7VajRhjgaZ0FIQSaAf1sMes1h9RiDXY6XRQrVadc0VRQD8PyvXQdR2CIDh1/EzpqAgs8O3tzdlcGGPY3d0NVAcACoVC0GZDE1jg09OT8zuVSiGdTgeqE8TtREEggcNOxM9Uq9frqFQqzrmX24maQAJN08TX15dzvr6+7lnn/v7esXKzHj1gAi/qZ/31b0iMMdzc3Mx09ICAArvdLnq9HgB/66/f7VxcXGBjYyNkNycgSEzp959e5ro/sLuVbTQadHV1RdlsdmSKY/h+oigSgIFcjxdTE2ibAbegrmkabW1tOQ9hnEDbOamqSkREqqr6dkOBnYxXx4kG0xKNRmPs/ezOuwm0H+pwnkeWZV+OKPAmYwdpt5TD4+Mjzs7OIEkS3t/fsbq6GnLx/GCv42FzUCgU0Gq1UC6Xx9YPLDCfz+P09BSGYWB/fx/NZhMA0Gw2cXh4iKOjI9ze3uL5+XniHdN+A2GMgef5gWs8z4Mx5uR43AgVJkqlElRVxdLSErLZLDiOQz6fx9raGr6/v3FychJJOBiOu6OoVqvodDqu15fCNl4sFlEsFsNW94UdlkaFpHQ6jVQq5XmP+OPLvNJvOsYx1wL9TEOv3M5cC0wmk8hkMiNDUrvdhmEYnrmduRaYSCSQy+VGZsHtDJ3Xy/NcCwSAg4MDCIIw8NIM/Hzj8JWuHOtzZoBt6/b29ly97bAXVRSFGGPT8aJRMZxGtA83T6qqqlNeFEVPj2vDEcX/+F1oYoGLTixw0fnvBf4FJJdIP2ARX14AAAAASUVORK5CYII=;" vertex="1" parent="WIyWlLk6GJQsqaUBKTNV-1">
          <mxGeometry x="146.90999999999997" y="2119" width="29.47" height="30" as="geometry" />
        </mxCell>
        <mxCell id="HX48B-1rYJLwdNwCFjf0-217" value="" style="endArrow=classic;html=1;rounded=0;exitX=0.5;exitY=1;exitDx=0;exitDy=0;" edge="1" parent="WIyWlLk6GJQsqaUBKTNV-1" source="HX48B-1rYJLwdNwCFjf0-179">
          <mxGeometry width="50" height="50" relative="1" as="geometry">
            <mxPoint x="610" y="2130" as="sourcePoint" />
            <mxPoint x="274" y="2070" as="targetPoint" />
          </mxGeometry>
        </mxCell>
      </root>
    </mxGraphModel>
  </diagram>
</mxfile>
